<?xml version="1.0" encoding="UTF-8" standalone="no"?>
<!DOCTYPE svg PUBLIC "-//W3C//DTD SVG 1.1//EN"
 "http://www.w3.org/Graphics/SVG/1.1/DTD/svg11.dtd">
<!-- Generated by graphviz version 14.1.3 (20260303.0454)
 -->
<!-- Title: cluster_zone5 Pages: 1 -->
<svg width="965pt" height="671pt"
 viewBox="0.00 0.00 965.00 671.00" xmlns="http://www.w3.org/2000/svg" xmlns:xlink="http://www.w3.org/1999/xlink">
 <metadata>
Author: Kody
License: CC BY-SA 4.0
https://creativecommons.org/licenses/by-sa/4.0/
</metadata>
<g id="graph0" class="graph" transform="scale(1 1) rotate(0) translate(4 666.5)">
<title>cluster_zone5</title>
<polygon fill="#1e1e1e" stroke="none" points="-4,4 -4,-666.5 961,-666.5 961,4 -4,4"/>
<!-- 5&#45;1 -->
<g id="node1" class="node">
<title>5&#45;1</title>
<polygon fill="none" stroke="white" points="36.62,-628.75 36.62,-651.25 79.38,-651.25 79.38,-628.75 36.62,-628.75"/>
<text xml:space="preserve" text-anchor="start" x="49" y="-635.5" font-family="Times New Roman,serif" font-size="14.00" fill="white">5&#45;1</text>
<polygon fill="none" stroke="white" points="36.62,-606.25 36.62,-628.75 50.88,-628.75 50.88,-606.25 36.62,-606.25"/>
<text xml:space="preserve" text-anchor="start" x="39.62" y="-613" font-family="Times New Roman,serif" font-size="14.00" fill="white">○</text>
<polygon fill="none" stroke="white" points="50.88,-606.25 50.88,-628.75 65.12,-628.75 65.12,-606.25 50.88,-606.25"/>
<text xml:space="preserve" text-anchor="start" x="53.88" y="-613" font-family="Times New Roman,serif" font-size="14.00" fill="white">○</text>
<polygon fill="none" stroke="white" points="65.12,-606.25 65.12,-628.75 79.38,-628.75 79.38,-606.25 65.12,-606.25"/>
<text xml:space="preserve" text-anchor="start" x="68.12" y="-613" font-family="Times New Roman,serif" font-size="14.00" fill="white">○</text>
</g>
<!-- 5&#45;2 -->
<g id="node2" class="node">
<title>5&#45;2</title>
<polygon fill="none" stroke="white" points="122,-640 122,-662.5 146,-662.5 146,-640 122,-640"/>
<text xml:space="preserve" text-anchor="start" x="125" y="-646.75" font-family="Times New Roman,serif" font-size="14.00" fill="white">5&#45;2</text>
<polygon fill="none" stroke="white" points="122,-617.5 122,-640 141.12,-640 141.12,-617.5 122,-617.5"/>
<text xml:space="preserve" text-anchor="start" x="127.44" y="-624.25" font-family="Times New Roman,serif" font-size="14.00" fill="white">○</text>
<polygon fill="none" stroke="white" points="122,-595 122,-617.5 141.12,-617.5 141.12,-595 122,-595"/>
<text xml:space="preserve" text-anchor="start" x="127.44" y="-601.75" font-family="Times New Roman,serif" font-size="14.00" fill="white">○</text>
</g>
<!-- 5&#45;1&#45;&gt;5&#45;2 -->
<g id="edge3" class="edge">
<title>5&#45;1:e3&#45;&gt;5&#45;2</title>
<path fill="none" stroke="#aaaaaa" d="M79.38,-617.5C79.38,-605.2 96.93,-603.62 111.95,-608.54"/>
<polygon fill="#aaaaaa" stroke="#aaaaaa" points="110.22,-611.6 120.77,-612.59 113.14,-605.24 110.22,-611.6"/>
</g>
<!-- 5&#45;9 -->
<g id="node9" class="node">
<title>5&#45;9</title>
<polygon fill="none" stroke="white" points="0,-507.5 0,-530 24,-530 24,-507.5 0,-507.5"/>
<text xml:space="preserve" text-anchor="start" x="3" y="-514.25" font-family="Times New Roman,serif" font-size="14.00" fill="white">5&#45;9</text>
<polygon fill="none" stroke="white" points="0,-485 0,-507.5 24,-507.5 24,-485 0,-485"/>
<text xml:space="preserve" text-anchor="start" x="7.88" y="-491.75" font-family="Times New Roman,serif" font-size="14.00" fill="white">○</text>
</g>
<!-- 5&#45;1&#45;&gt;5&#45;9 -->
<g id="edge1" class="edge">
<title>5&#45;1:e1&#45;&gt;5&#45;9</title>
<path fill="none" stroke="#aaaaaa" d="M43.75,-605.25C43.75,-605.25 31.79,-568.8 22.55,-540.64"/>
<polygon fill="#aaaaaa" stroke="#aaaaaa" points="25.96,-539.82 19.52,-531.41 19.31,-542 25.96,-539.82"/>
</g>
<!-- 5&#45;10 -->
<g id="node10" class="node">
<title>5&#45;10</title>
<polygon fill="none" stroke="white" points="117.62,-386.25 117.62,-408.75 148.38,-408.75 148.38,-386.25 117.62,-386.25"/>
<text xml:space="preserve" text-anchor="start" x="120.62" y="-393" font-family="Times New Roman,serif" font-size="14.00" fill="white">5&#45;10</text>
<polygon fill="none" stroke="white" points="117.62,-363.75 117.62,-386.25 133,-386.25 133,-363.75 117.62,-363.75"/>
<text xml:space="preserve" text-anchor="start" x="121.19" y="-370.5" font-family="Times New Roman,serif" font-size="14.00" fill="white">○</text>
<polygon fill="none" stroke="white" points="133,-363.75 133,-386.25 148.38,-386.25 148.38,-363.75 133,-363.75"/>
<text xml:space="preserve" text-anchor="start" x="136.56" y="-370.5" font-family="Times New Roman,serif" font-size="14.00" fill="white">○</text>
</g>
<!-- 5&#45;1&#45;&gt;5&#45;10 -->
<g id="edge2" class="edge">
<title>5&#45;1:e2&#45;&gt;5&#45;10</title>
<path fill="none" stroke="#aaaaaa" d="M58,-605.25C58,-605.25 101.07,-480.06 121.93,-419.42"/>
<polygon fill="#aaaaaa" stroke="#aaaaaa" points="125.24,-420.58 125.18,-409.98 118.62,-418.3 125.24,-420.58"/>
</g>
<!-- 5&#45;2&#45;&gt;5&#45;1 -->
<g id="edge5" class="edge">
<title>5&#45;2:e2&#45;&gt;5&#45;1</title>
<path fill="none" stroke="#aaaaaa" d="M122,-606.25C122,-606.25 105.96,-611.98 90.06,-617.66"/>
<polygon fill="#aaaaaa" stroke="#aaaaaa" points="88.95,-614.34 80.71,-621 91.3,-620.93 88.95,-614.34"/>
</g>
<!-- 5&#45;3 -->
<g id="node3" class="node">
<title>5&#45;3</title>
<polygon fill="none" stroke="white" points="188.62,-628.75 188.62,-651.25 231.38,-651.25 231.38,-628.75 188.62,-628.75"/>
<text xml:space="preserve" text-anchor="start" x="201" y="-635.5" font-family="Times New Roman,serif" font-size="14.00" fill="white">5&#45;3</text>
<polygon fill="none" stroke="white" points="188.62,-606.25 188.62,-628.75 202.88,-628.75 202.88,-606.25 188.62,-606.25"/>
<text xml:space="preserve" text-anchor="start" x="191.62" y="-613" font-family="Times New Roman,serif" font-size="14.00" fill="white">○</text>
<polygon fill="none" stroke="white" points="202.88,-606.25 202.88,-628.75 217.12,-628.75 217.12,-606.25 202.88,-606.25"/>
<text xml:space="preserve" text-anchor="start" x="205.88" y="-613" font-family="Times New Roman,serif" font-size="14.00" fill="white">○</text>
<polygon fill="none" stroke="white" points="217.12,-606.25 217.12,-628.75 231.38,-628.75 231.38,-606.25 217.12,-606.25"/>
<text xml:space="preserve" text-anchor="start" x="220.12" y="-613" font-family="Times New Roman,serif" font-size="14.00" fill="white">○</text>
</g>
<!-- 5&#45;2&#45;&gt;5&#45;3 -->
<g id="edge4" class="edge">
<title>5&#45;2:e1&#45;&gt;5&#45;3</title>
<path fill="none" stroke="#aaaaaa" d="M121,-628.75C121,-607.25 122,-641 122,-641 122,-641 146,-641 146,-641 146,-641 162.04,-632.41 177.94,-626.65"/>
<polygon fill="#aaaaaa" stroke="#aaaaaa" points="178.78,-630.06 187.28,-623.72 176.69,-623.38 178.78,-630.06"/>
</g>
<!-- 5&#45;3&#45;&gt;5&#45;2 -->
<g id="edge6" class="edge">
<title>5&#45;3:e1&#45;&gt;5&#45;2</title>
<path fill="none" stroke="#aaaaaa" d="M188.62,-617.5C188.62,-617.5 171.75,-621.04 156.93,-624.15"/>
<polygon fill="#aaaaaa" stroke="#aaaaaa" points="156.4,-620.68 147.33,-626.16 157.84,-627.53 156.4,-620.68"/>
</g>
<!-- 5&#45;3&#45;&gt;5&#45;10 -->
<g id="edge7" class="edge">
<title>5&#45;3:e2&#45;&gt;5&#45;10</title>
<path fill="none" stroke="#aaaaaa" d="M210,-605.25C210,-605.25 165.6,-479.54 144.23,-419.04"/>
<polygon fill="#aaaaaa" stroke="#aaaaaa" points="147.66,-418.24 141.03,-409.98 141.06,-420.57 147.66,-418.24"/>
</g>
<!-- 5&#45;11 -->
<g id="node11" class="node">
<title>5&#45;11</title>
<polygon fill="none" stroke="white" points="240.62,-507.5 240.62,-530 271.38,-530 271.38,-507.5 240.62,-507.5"/>
<text xml:space="preserve" text-anchor="start" x="243.62" y="-514.25" font-family="Times New Roman,serif" font-size="14.00" fill="white">5&#45;11</text>
<polygon fill="none" stroke="white" points="240.62,-485 240.62,-507.5 271.38,-507.5 271.38,-485 240.62,-485"/>
<text xml:space="preserve" text-anchor="start" x="251.88" y="-491.75" font-family="Times New Roman,serif" font-size="14.00" fill="white">○</text>
</g>
<!-- 5&#45;3&#45;&gt;5&#45;11 -->
<g id="edge8" class="edge">
<title>5&#45;3:e3&#45;&gt;5&#45;11</title>
<path fill="none" stroke="#aaaaaa" d="M224.25,-605.25C224.25,-605.25 236.21,-568.8 245.45,-540.64"/>
<polygon fill="#aaaaaa" stroke="#aaaaaa" points="248.69,-542 248.48,-531.41 242.04,-539.82 248.69,-542"/>
</g>
<!-- 5&#45;4 -->
<g id="node4" class="node">
<title>5&#45;4</title>
<polygon fill="none" stroke="white" points="324,-628.75 324,-651.25 348,-651.25 348,-628.75 324,-628.75"/>
<text xml:space="preserve" text-anchor="start" x="327" y="-635.5" font-family="Times New Roman,serif" font-size="14.00" fill="white">5&#45;4</text>
<polygon fill="none" stroke="white" points="324,-606.25 324,-628.75 348,-628.75 348,-606.25 324,-606.25"/>
<text xml:space="preserve" text-anchor="start" x="331.88" y="-613" font-family="Times New Roman,serif" font-size="14.00" fill="white">○</text>
</g>
<!-- 5&#45;12 -->
<g id="node12" class="node">
<title>5&#45;12</title>
<polygon fill="none" stroke="white" points="407.62,-386.25 407.62,-408.75 438.38,-408.75 438.38,-386.25 407.62,-386.25"/>
<text xml:space="preserve" text-anchor="start" x="410.62" y="-393" font-family="Times New Roman,serif" font-size="14.00" fill="white">5&#45;12</text>
<polygon fill="none" stroke="white" points="407.62,-363.75 407.62,-386.25 423,-386.25 423,-363.75 407.62,-363.75"/>
<text xml:space="preserve" text-anchor="start" x="411.19" y="-370.5" font-family="Times New Roman,serif" font-size="14.00" fill="white">○</text>
<polygon fill="none" stroke="white" points="423,-363.75 423,-386.25 438.38,-386.25 438.38,-363.75 423,-363.75"/>
<text xml:space="preserve" text-anchor="start" x="426.56" y="-370.5" font-family="Times New Roman,serif" font-size="14.00" fill="white">○</text>
</g>
<!-- 5&#45;4&#45;&gt;5&#45;12 -->
<g id="edge9" class="edge">
<title>5&#45;4:e1&#45;&gt;5&#45;12</title>
<path fill="none" stroke="#aaaaaa" d="M336,-605.25C336,-605.25 386.17,-479.54 410.31,-419.04"/>
<polygon fill="#aaaaaa" stroke="#aaaaaa" points="413.48,-420.54 413.94,-409.96 406.98,-417.95 413.48,-420.54"/>
</g>
<!-- 5&#45;5 -->
<g id="node5" class="node">
<title>5&#45;5</title>
<polygon fill="none" stroke="white" points="488.62,-640 488.62,-662.5 531.38,-662.5 531.38,-640 488.62,-640"/>
<text xml:space="preserve" text-anchor="start" x="501" y="-646.75" font-family="Times New Roman,serif" font-size="14.00" fill="white">5&#45;5</text>
<polygon fill="none" stroke="white" points="488.62,-617.5 488.62,-640 502.88,-640 502.88,-617.5 488.62,-617.5"/>
<polygon fill="none" stroke="white" points="502.88,-617.5 502.88,-640 517.12,-640 517.12,-617.5 502.88,-617.5"/>
<text xml:space="preserve" text-anchor="start" x="505.88" y="-624.25" font-family="Times New Roman,serif" font-size="14.00" fill="white">○</text>
<polygon fill="none" stroke="white" points="517.12,-617.5 517.12,-640 531.38,-640 531.38,-617.5 517.12,-617.5"/>
<polygon fill="none" stroke="white" points="488.62,-595 488.62,-617.5 502.88,-617.5 502.88,-595 488.62,-595"/>
<text xml:space="preserve" text-anchor="start" x="491.62" y="-601.75" font-family="Times New Roman,serif" font-size="14.00" fill="white">○</text>
<polygon fill="none" stroke="white" points="502.88,-595 502.88,-617.5 517.12,-617.5 517.12,-595 502.88,-595"/>
<polygon fill="none" stroke="white" points="517.12,-595 517.12,-617.5 531.38,-617.5 531.38,-595 517.12,-595"/>
<text xml:space="preserve" text-anchor="start" x="520.12" y="-601.75" font-family="Times New Roman,serif" font-size="14.00" fill="white">○</text>
</g>
<!-- 5&#45;5&#45;&gt;5&#45;12 -->
<g id="edge11" class="edge">
<title>5&#45;5:e2&#45;&gt;5&#45;12</title>
<path fill="none" stroke="#aaaaaa" d="M495.75,-595C495.75,-595 454.75,-477.91 434.31,-419.54"/>
<polygon fill="#aaaaaa" stroke="#aaaaaa" points="437.62,-418.41 431.01,-410.13 431.01,-420.72 437.62,-418.41"/>
</g>
<!-- 5&#45;13 -->
<g id="node13" class="node">
<title>5&#45;13</title>
<polygon fill="none" stroke="white" points="481.5,-397.5 481.5,-420 538.5,-420 538.5,-397.5 481.5,-397.5"/>
<text xml:space="preserve" text-anchor="start" x="497.62" y="-404.25" font-family="Times New Roman,serif" font-size="14.00" fill="white">5&#45;13</text>
<polygon fill="none" stroke="white" points="481.5,-375 481.5,-397.5 495.75,-397.5 495.75,-375 481.5,-375"/>
<text xml:space="preserve" text-anchor="start" x="484.5" y="-381.75" font-family="Times New Roman,serif" font-size="14.00" fill="white">○</text>
<polygon fill="none" stroke="white" points="495.75,-375 495.75,-397.5 510,-397.5 510,-375 495.75,-375"/>
<polygon fill="none" stroke="white" points="510,-375 510,-397.5 524.25,-397.5 524.25,-375 510,-375"/>
<polygon fill="none" stroke="white" points="524.25,-375 524.25,-397.5 538.5,-397.5 538.5,-375 524.25,-375"/>
<text xml:space="preserve" text-anchor="start" x="527.25" y="-381.75" font-family="Times New Roman,serif" font-size="14.00" fill="white">○</text>
<polygon fill="none" stroke="white" points="481.5,-352.5 481.5,-375 495.75,-375 495.75,-352.5 481.5,-352.5"/>
<polygon fill="none" stroke="white" points="495.75,-352.5 495.75,-375 510,-375 510,-352.5 495.75,-352.5"/>
<text xml:space="preserve" text-anchor="start" x="498.75" y="-359.25" font-family="Times New Roman,serif" font-size="14.00" fill="white">○</text>
<polygon fill="none" stroke="white" points="510,-352.5 510,-375 524.25,-375 524.25,-352.5 510,-352.5"/>
<text xml:space="preserve" text-anchor="start" x="513" y="-359.25" font-family="Times New Roman,serif" font-size="14.00" fill="white">○</text>
<polygon fill="none" stroke="white" points="524.25,-352.5 524.25,-375 538.5,-375 538.5,-352.5 524.25,-352.5"/>
</g>
<!-- 5&#45;5&#45;&gt;5&#45;13 -->
<g id="edge10" class="edge">
<title>5&#45;5:e1&#45;&gt;5&#45;13</title>
<path fill="none" stroke="#aaaaaa" d="M510,-617.72C510,-586.37 510,-488.84 510,-431.19"/>
<polygon fill="#aaaaaa" stroke="#aaaaaa" points="513.5,-431.39 510,-421.39 506.5,-431.39 513.5,-431.39"/>
</g>
<!-- 5&#45;14 -->
<g id="node14" class="node">
<title>5&#45;14</title>
<polygon fill="none" stroke="white" points="581.62,-386.25 581.62,-408.75 612.38,-408.75 612.38,-386.25 581.62,-386.25"/>
<text xml:space="preserve" text-anchor="start" x="584.62" y="-393" font-family="Times New Roman,serif" font-size="14.00" fill="white">5&#45;14</text>
<polygon fill="none" stroke="white" points="581.62,-363.75 581.62,-386.25 597,-386.25 597,-363.75 581.62,-363.75"/>
<text xml:space="preserve" text-anchor="start" x="585.19" y="-370.5" font-family="Times New Roman,serif" font-size="14.00" fill="white">○</text>
<polygon fill="none" stroke="white" points="597,-363.75 597,-386.25 612.38,-386.25 612.38,-363.75 597,-363.75"/>
<text xml:space="preserve" text-anchor="start" x="600.56" y="-370.5" font-family="Times New Roman,serif" font-size="14.00" fill="white">○</text>
</g>
<!-- 5&#45;5&#45;&gt;5&#45;14 -->
<g id="edge12" class="edge">
<title>5&#45;5:e3&#45;&gt;5&#45;14</title>
<path fill="none" stroke="#aaaaaa" d="M524.25,-595C524.25,-595 565.25,-477.91 585.69,-419.54"/>
<polygon fill="#aaaaaa" stroke="#aaaaaa" points="588.99,-420.72 588.99,-410.13 582.38,-418.41 588.99,-420.72"/>
</g>
<!-- 5&#45;6 -->
<g id="node6" class="node">
<title>5&#45;6</title>
<polygon fill="none" stroke="white" points="677.75,-628.75 677.75,-651.25 706.25,-651.25 706.25,-628.75 677.75,-628.75"/>
<text xml:space="preserve" text-anchor="start" x="683" y="-635.5" font-family="Times New Roman,serif" font-size="14.00" fill="white">5&#45;6</text>
<polygon fill="none" stroke="white" points="677.75,-606.25 677.75,-628.75 692,-628.75 692,-606.25 677.75,-606.25"/>
<text xml:space="preserve" text-anchor="start" x="680.75" y="-613" font-family="Times New Roman,serif" font-size="14.00" fill="white">○</text>
<polygon fill="none" stroke="white" points="692,-606.25 692,-628.75 706.25,-628.75 706.25,-606.25 692,-606.25"/>
<text xml:space="preserve" text-anchor="start" x="695" y="-613" font-family="Times New Roman,serif" font-size="14.00" fill="white">○</text>
</g>
<!-- 5&#45;7 -->
<g id="node7" class="node">
<title>5&#45;7</title>
<polygon fill="none" stroke="white" points="749.62,-628.75 749.62,-651.25 792.38,-651.25 792.38,-628.75 749.62,-628.75"/>
<text xml:space="preserve" text-anchor="start" x="762" y="-635.5" font-family="Times New Roman,serif" font-size="14.00" fill="white">5&#45;7</text>
<polygon fill="none" stroke="white" points="749.62,-606.25 749.62,-628.75 763.88,-628.75 763.88,-606.25 749.62,-606.25"/>
<text xml:space="preserve" text-anchor="start" x="752.62" y="-613" font-family="Times New Roman,serif" font-size="14.00" fill="white">○</text>
<polygon fill="none" stroke="white" points="763.88,-606.25 763.88,-628.75 778.12,-628.75 778.12,-606.25 763.88,-606.25"/>
<text xml:space="preserve" text-anchor="start" x="766.88" y="-613" font-family="Times New Roman,serif" font-size="14.00" fill="white">○</text>
<polygon fill="none" stroke="white" points="778.12,-606.25 778.12,-628.75 792.38,-628.75 792.38,-606.25 778.12,-606.25"/>
<text xml:space="preserve" text-anchor="start" x="781.12" y="-613" font-family="Times New Roman,serif" font-size="14.00" fill="white">○</text>
</g>
<!-- 5&#45;6&#45;&gt;5&#45;7 -->
<g id="edge14" class="edge">
<title>5&#45;6:e2&#45;&gt;5&#45;7</title>
<path fill="none" stroke="#aaaaaa" d="M706.25,-617.5C706.25,-606.58 722.69,-604.11 738.87,-607.14"/>
<polygon fill="#aaaaaa" stroke="#aaaaaa" points="737.8,-610.47 748.37,-609.68 739.61,-603.71 737.8,-610.47"/>
</g>
<!-- 5&#45;6&#45;&gt;5&#45;14 -->
<g id="edge13" class="edge">
<title>5&#45;6:e1&#45;&gt;5&#45;14</title>
<path fill="none" stroke="#aaaaaa" d="M684.88,-605.25C684.88,-605.25 634.2,-479.54 609.82,-419.04"/>
<polygon fill="#aaaaaa" stroke="#aaaaaa" points="613.14,-417.92 606.15,-409.95 606.64,-420.54 613.14,-417.92"/>
</g>
<!-- 5&#45;7&#45;&gt;5&#45;6 -->
<g id="edge15" class="edge">
<title>5&#45;7:e1&#45;&gt;5&#45;6</title>
<path fill="none" stroke="#aaaaaa" d="M749.62,-617.5C749.62,-617.5 732.63,-620.88 717.26,-623.93"/>
<polygon fill="#aaaaaa" stroke="#aaaaaa" points="716.74,-620.46 707.62,-625.85 718.11,-627.33 716.74,-620.46"/>
</g>
<!-- 5&#45;15 -->
<g id="node15" class="node">
<title>5&#45;15</title>
<polygon fill="none" stroke="white" points="838.62,-386.25 838.62,-408.75 869.38,-408.75 869.38,-386.25 838.62,-386.25"/>
<text xml:space="preserve" text-anchor="start" x="841.62" y="-393" font-family="Times New Roman,serif" font-size="14.00" fill="white">5&#45;15</text>
<polygon fill="none" stroke="white" points="838.62,-363.75 838.62,-386.25 854,-386.25 854,-363.75 838.62,-363.75"/>
<text xml:space="preserve" text-anchor="start" x="842.19" y="-370.5" font-family="Times New Roman,serif" font-size="14.00" fill="white">○</text>
<polygon fill="none" stroke="white" points="854,-363.75 854,-386.25 869.38,-386.25 869.38,-363.75 854,-363.75"/>
<text xml:space="preserve" text-anchor="start" x="857.56" y="-370.5" font-family="Times New Roman,serif" font-size="14.00" fill="white">○</text>
</g>
<!-- 5&#45;7&#45;&gt;5&#45;15 -->
<g id="edge17" class="edge">
<title>5&#45;7:e3&#45;&gt;5&#45;15</title>
<path fill="none" stroke="#aaaaaa" d="M785.25,-605.25C785.25,-605.25 824.73,-480.06 843.85,-419.42"/>
<polygon fill="#aaaaaa" stroke="#aaaaaa" points="847.16,-420.58 846.83,-409.99 840.48,-418.48 847.16,-420.58"/>
</g>
<!-- 5&#45;22 -->
<g id="node22" class="node">
<title>5&#45;22</title>
<polygon fill="none" stroke="white" points="749.62,-253.75 749.62,-276.25 792.38,-276.25 792.38,-253.75 749.62,-253.75"/>
<text xml:space="preserve" text-anchor="start" x="758.62" y="-260.5" font-family="Times New Roman,serif" font-size="14.00" fill="white">5&#45;22</text>
<polygon fill="none" stroke="white" points="749.62,-231.25 749.62,-253.75 763.88,-253.75 763.88,-231.25 749.62,-231.25"/>
<text xml:space="preserve" text-anchor="start" x="752.62" y="-238" font-family="Times New Roman,serif" font-size="14.00" fill="white">○</text>
<polygon fill="none" stroke="white" points="763.88,-231.25 763.88,-253.75 778.12,-253.75 778.12,-231.25 763.88,-231.25"/>
<text xml:space="preserve" text-anchor="start" x="766.88" y="-238" font-family="Times New Roman,serif" font-size="14.00" fill="white">○</text>
<polygon fill="none" stroke="white" points="778.12,-231.25 778.12,-253.75 792.38,-253.75 792.38,-231.25 778.12,-231.25"/>
<text xml:space="preserve" text-anchor="start" x="781.12" y="-238" font-family="Times New Roman,serif" font-size="14.00" fill="white">○</text>
</g>
<!-- 5&#45;7&#45;&gt;5&#45;22 -->
<g id="edge16" class="edge">
<title>5&#45;7:e2&#45;&gt;5&#45;22</title>
<path fill="none" stroke="#aaaaaa" d="M771,-605.25C771,-605.25 771,-374.47 771,-287.44"/>
<polygon fill="#aaaaaa" stroke="#aaaaaa" points="774.5,-287.66 771,-277.66 767.5,-287.66 774.5,-287.66"/>
</g>
<!-- 5&#45;8 -->
<g id="node8" class="node">
<title>5&#45;8</title>
<polygon fill="none" stroke="white" points="933,-628.75 933,-651.25 957,-651.25 957,-628.75 933,-628.75"/>
<text xml:space="preserve" text-anchor="start" x="936" y="-635.5" font-family="Times New Roman,serif" font-size="14.00" fill="white">5&#45;8</text>
<polygon fill="none" stroke="white" points="933,-606.25 933,-628.75 957,-628.75 957,-606.25 933,-606.25"/>
<text xml:space="preserve" text-anchor="start" x="940.88" y="-613" font-family="Times New Roman,serif" font-size="14.00" fill="white">○</text>
</g>
<!-- 5&#45;8&#45;&gt;5&#45;15 -->
<g id="edge18" class="edge">
<title>5&#45;8:e1&#45;&gt;5&#45;15</title>
<path fill="none" stroke="#aaaaaa" d="M945,-605.25C945,-605.25 892.52,-479.54 867.27,-419.04"/>
<polygon fill="#aaaaaa" stroke="#aaaaaa" points="870.56,-417.83 863.47,-409.95 864.1,-420.52 870.56,-417.83"/>
</g>
<!-- 5&#45;9&#45;&gt;5&#45;10 -->
<g id="edge19" class="edge">
<title>5&#45;9:e1&#45;&gt;5&#45;10</title>
<path fill="none" stroke="#aaaaaa" d="M25,-496.25C25,-496.25 78.35,-442.41 110.05,-410.41"/>
<polygon fill="#aaaaaa" stroke="#aaaaaa" points="112.37,-413.05 116.92,-403.48 107.39,-408.12 112.37,-413.05"/>
</g>
<!-- 5&#45;16 -->
<g id="node16" class="node">
<title>5&#45;16</title>
<polygon fill="none" stroke="white" points="31.62,-253.75 31.62,-276.25 74.38,-276.25 74.38,-253.75 31.62,-253.75"/>
<text xml:space="preserve" text-anchor="start" x="40.62" y="-260.5" font-family="Times New Roman,serif" font-size="14.00" fill="white">5&#45;16</text>
<polygon fill="none" stroke="white" points="31.62,-231.25 31.62,-253.75 45.88,-253.75 45.88,-231.25 31.62,-231.25"/>
<text xml:space="preserve" text-anchor="start" x="34.62" y="-238" font-family="Times New Roman,serif" font-size="14.00" fill="white">○</text>
<polygon fill="none" stroke="white" points="45.88,-231.25 45.88,-253.75 60.12,-253.75 60.12,-231.25 45.88,-231.25"/>
<text xml:space="preserve" text-anchor="start" x="48.88" y="-238" font-family="Times New Roman,serif" font-size="14.00" fill="white">○</text>
<polygon fill="none" stroke="white" points="60.12,-231.25 60.12,-253.75 74.38,-253.75 74.38,-231.25 60.12,-231.25"/>
<text xml:space="preserve" text-anchor="start" x="63.12" y="-238" font-family="Times New Roman,serif" font-size="14.00" fill="white">○</text>
</g>
<!-- 5&#45;10&#45;&gt;5&#45;16 -->
<g id="edge20" class="edge">
<title>5&#45;10:e1&#45;&gt;5&#45;16</title>
<path fill="none" stroke="#aaaaaa" d="M125.31,-362.75C125.31,-362.75 94.96,-317.42 73.59,-285.5"/>
<polygon fill="#aaaaaa" stroke="#aaaaaa" points="76.6,-283.71 68.13,-277.34 70.78,-287.6 76.6,-283.71"/>
</g>
<!-- 5&#45;18 -->
<g id="node18" class="node">
<title>5&#45;18</title>
<polygon fill="none" stroke="white" points="191.62,-253.75 191.62,-276.25 234.38,-276.25 234.38,-253.75 191.62,-253.75"/>
<text xml:space="preserve" text-anchor="start" x="200.62" y="-260.5" font-family="Times New Roman,serif" font-size="14.00" fill="white">5&#45;18</text>
<polygon fill="none" stroke="white" points="191.62,-231.25 191.62,-253.75 205.88,-253.75 205.88,-231.25 191.62,-231.25"/>
<text xml:space="preserve" text-anchor="start" x="194.62" y="-238" font-family="Times New Roman,serif" font-size="14.00" fill="white">○</text>
<polygon fill="none" stroke="white" points="205.88,-231.25 205.88,-253.75 220.12,-253.75 220.12,-231.25 205.88,-231.25"/>
<text xml:space="preserve" text-anchor="start" x="208.88" y="-238" font-family="Times New Roman,serif" font-size="14.00" fill="white">○</text>
<polygon fill="none" stroke="white" points="220.12,-231.25 220.12,-253.75 234.38,-253.75 234.38,-231.25 220.12,-231.25"/>
<text xml:space="preserve" text-anchor="start" x="223.12" y="-238" font-family="Times New Roman,serif" font-size="14.00" fill="white">○</text>
</g>
<!-- 5&#45;10&#45;&gt;5&#45;18 -->
<g id="edge21" class="edge">
<title>5&#45;10:e2&#45;&gt;5&#45;18</title>
<path fill="none" stroke="#aaaaaa" d="M140.69,-362.75C140.69,-362.75 171.04,-317.42 192.41,-285.5"/>
<polygon fill="#aaaaaa" stroke="#aaaaaa" points="195.22,-287.6 197.87,-277.34 189.4,-283.71 195.22,-287.6"/>
</g>
<!-- 5&#45;11&#45;&gt;5&#45;10 -->
<g id="edge22" class="edge">
<title>5&#45;11:e1&#45;&gt;5&#45;10</title>
<path fill="none" stroke="#aaaaaa" d="M239.62,-496.25C239.62,-496.25 187.49,-442.96 156.13,-410.9"/>
<polygon fill="#aaaaaa" stroke="#aaaaaa" points="158.83,-408.65 149.34,-403.95 153.83,-413.55 158.83,-408.65"/>
</g>
<!-- 5&#45;12&#45;&gt;5&#45;13 -->
<g id="edge24" class="edge">
<title>5&#45;12:e2&#45;&gt;5&#45;13</title>
<path fill="none" stroke="#aaaaaa" d="M438.38,-375C438.38,-364.8 454.26,-361.97 470.96,-364.11"/>
<polygon fill="#aaaaaa" stroke="#aaaaaa" points="469.93,-367.47 480.41,-365.92 471.25,-360.6 469.93,-367.47"/>
</g>
<!-- 5&#45;19 -->
<g id="node19" class="node">
<title>5&#45;19</title>
<polygon fill="none" stroke="white" points="417.62,-265 417.62,-287.5 448.38,-287.5 448.38,-265 417.62,-265"/>
<text xml:space="preserve" text-anchor="start" x="420.62" y="-271.75" font-family="Times New Roman,serif" font-size="14.00" fill="white">5&#45;19</text>
<polygon fill="none" stroke="white" points="417.62,-242.5 417.62,-265 448.38,-265 448.38,-242.5 417.62,-242.5"/>
<text xml:space="preserve" text-anchor="start" x="428.88" y="-249.25" font-family="Times New Roman,serif" font-size="14.00" fill="white">○</text>
<polygon fill="none" stroke="white" points="417.62,-220 417.62,-242.5 448.38,-242.5 448.38,-220 417.62,-220"/>
<text xml:space="preserve" text-anchor="start" x="428.88" y="-226.75" font-family="Times New Roman,serif" font-size="14.00" fill="white">○</text>
</g>
<!-- 5&#45;12&#45;&gt;5&#45;19 -->
<g id="edge23" class="edge">
<title>5&#45;12:e1&#45;&gt;5&#45;19</title>
<path fill="none" stroke="#aaaaaa" d="M415.31,-362.75C415.31,-362.75 420.92,-328.53 425.82,-298.62"/>
<polygon fill="#aaaaaa" stroke="#aaaaaa" points="429.24,-299.37 427.4,-288.94 422.33,-298.24 429.24,-299.37"/>
</g>
<!-- 5&#45;13&#45;&gt;5&#45;12 -->
<g id="edge25" class="edge">
<title>5&#45;13:e1&#45;&gt;5&#45;12</title>
<path fill="none" stroke="#aaaaaa" d="M481.5,-386.25C481.5,-386.25 464.83,-386.25 449.43,-386.25"/>
<polygon fill="#aaaaaa" stroke="#aaaaaa" points="449.73,-382.75 439.73,-386.25 449.73,-389.75 449.73,-382.75"/>
</g>
<!-- 5&#45;13&#45;&gt;5&#45;14 -->
<g id="edge26" class="edge">
<title>5&#45;13:e2&#45;&gt;5&#45;14</title>
<path fill="none" stroke="#aaaaaa" d="M538.5,-386.25C538.5,-374.67 555.17,-369.33 570.57,-370.22"/>
<polygon fill="#aaaaaa" stroke="#aaaaaa" points="569.85,-373.65 580.29,-371.87 571.02,-366.75 569.85,-373.65"/>
</g>
<!-- 5&#45;13&#45;&gt;5&#45;19 -->
<g id="edge27" class="edge">
<title>5&#45;13:e3&#45;&gt;5&#45;19</title>
<path fill="none" stroke="#aaaaaa" d="M502.88,-352.5C502.88,-352.5 475.3,-313.92 454.79,-285.24"/>
<polygon fill="#aaaaaa" stroke="#aaaaaa" points="457.7,-283.29 449.04,-277.19 452.01,-287.36 457.7,-283.29"/>
</g>
<!-- 5&#45;21 -->
<g id="node21" class="node">
<title>5&#45;21</title>
<polygon fill="none" stroke="white" points="591.62,-253.75 591.62,-276.25 622.38,-276.25 622.38,-253.75 591.62,-253.75"/>
<text xml:space="preserve" text-anchor="start" x="594.62" y="-260.5" font-family="Times New Roman,serif" font-size="14.00" fill="white">5&#45;21</text>
<polygon fill="none" stroke="white" points="591.62,-231.25 591.62,-253.75 607,-253.75 607,-231.25 591.62,-231.25"/>
<text xml:space="preserve" text-anchor="start" x="595.19" y="-238" font-family="Times New Roman,serif" font-size="14.00" fill="white">○</text>
<polygon fill="none" stroke="white" points="607,-231.25 607,-253.75 622.38,-253.75 622.38,-231.25 607,-231.25"/>
<text xml:space="preserve" text-anchor="start" x="610.56" y="-238" font-family="Times New Roman,serif" font-size="14.00" fill="white">○</text>
</g>
<!-- 5&#45;13&#45;&gt;5&#45;21 -->
<g id="edge28" class="edge">
<title>5&#45;13:e4&#45;&gt;5&#45;21</title>
<path fill="none" stroke="#aaaaaa" d="M517.12,-352.5C517.12,-352.5 557.36,-308.74 583.99,-279.78"/>
<polygon fill="#aaaaaa" stroke="#aaaaaa" points="586.54,-282.18 590.73,-272.45 581.38,-277.44 586.54,-282.18"/>
</g>
<!-- 5&#45;14&#45;&gt;5&#45;13 -->
<g id="edge29" class="edge">
<title>5&#45;14:e1&#45;&gt;5&#45;13</title>
<path fill="none" stroke="#aaaaaa" d="M581.62,-375C581.62,-375 565.74,-377.53 549.04,-380.19"/>
<polygon fill="#aaaaaa" stroke="#aaaaaa" points="548.92,-376.66 539.6,-381.69 550.02,-383.58 548.92,-376.66"/>
</g>
<!-- 5&#45;14&#45;&gt;5&#45;21 -->
<g id="edge30" class="edge">
<title>5&#45;14:e2&#45;&gt;5&#45;21</title>
<path fill="none" stroke="#aaaaaa" d="M604.69,-362.75C604.69,-362.75 605.62,-319.36 606.3,-287.58"/>
<polygon fill="#aaaaaa" stroke="#aaaaaa" points="609.8,-287.67 606.51,-277.6 602.8,-287.52 609.8,-287.67"/>
</g>
<!-- 5&#45;15&#45;&gt;5&#45;22 -->
<g id="edge31" class="edge">
<title>5&#45;15:e1&#45;&gt;5&#45;22</title>
<path fill="none" stroke="#aaaaaa" d="M846.31,-362.75C846.31,-362.75 814.71,-317.42 792.44,-285.5"/>
<polygon fill="#aaaaaa" stroke="#aaaaaa" points="795.34,-283.53 786.75,-277.33 789.59,-287.53 795.34,-283.53"/>
</g>
<!-- 5&#45;23 -->
<g id="node23" class="node">
<title>5&#45;23</title>
<polygon fill="none" stroke="white" points="835.62,-253.75 835.62,-276.25 866.38,-276.25 866.38,-253.75 835.62,-253.75"/>
<text xml:space="preserve" text-anchor="start" x="838.62" y="-260.5" font-family="Times New Roman,serif" font-size="14.00" fill="white">5&#45;23</text>
<polygon fill="none" stroke="white" points="835.62,-231.25 835.62,-253.75 851,-253.75 851,-231.25 835.62,-231.25"/>
<text xml:space="preserve" text-anchor="start" x="839.19" y="-238" font-family="Times New Roman,serif" font-size="14.00" fill="white">○</text>
<polygon fill="none" stroke="white" points="851,-231.25 851,-253.75 866.38,-253.75 866.38,-231.25 851,-231.25"/>
<text xml:space="preserve" text-anchor="start" x="854.56" y="-238" font-family="Times New Roman,serif" font-size="14.00" fill="white">○</text>
</g>
<!-- 5&#45;15&#45;&gt;5&#45;23 -->
<g id="edge32" class="edge">
<title>5&#45;15:e2&#45;&gt;5&#45;23</title>
<path fill="none" stroke="#aaaaaa" d="M861.69,-362.75C861.69,-362.75 857.36,-318.97 854.21,-287.16"/>
<polygon fill="#aaaaaa" stroke="#aaaaaa" points="857.73,-287.2 853.26,-277.59 850.76,-287.89 857.73,-287.2"/>
</g>
<!-- 5&#45;17 -->
<g id="node17" class="node">
<title>5&#45;17</title>
<polygon fill="none" stroke="white" points="117.62,-253.75 117.62,-276.25 148.38,-276.25 148.38,-253.75 117.62,-253.75"/>
<text xml:space="preserve" text-anchor="start" x="120.62" y="-260.5" font-family="Times New Roman,serif" font-size="14.00" fill="white">5&#45;17</text>
<polygon fill="none" stroke="white" points="117.62,-231.25 117.62,-253.75 133,-253.75 133,-231.25 117.62,-231.25"/>
<text xml:space="preserve" text-anchor="start" x="121.19" y="-238" font-family="Times New Roman,serif" font-size="14.00" fill="white">○</text>
<polygon fill="none" stroke="white" points="133,-231.25 133,-253.75 148.38,-253.75 148.38,-231.25 133,-231.25"/>
<text xml:space="preserve" text-anchor="start" x="136.56" y="-238" font-family="Times New Roman,serif" font-size="14.00" fill="white">○</text>
</g>
<!-- 5&#45;16&#45;&gt;5&#45;17 -->
<g id="edge35" class="edge">
<title>5&#45;16:e3&#45;&gt;5&#45;17</title>
<path fill="none" stroke="#aaaaaa" d="M74.38,-242.5C74.38,-230.81 91.42,-228.8 106.96,-232.86"/>
<polygon fill="#aaaaaa" stroke="#aaaaaa" points="105.74,-236.14 116.34,-236.31 108.16,-229.57 105.74,-236.14"/>
</g>
<!-- 5&#45;24 -->
<g id="node24" class="node">
<title>5&#45;24</title>
<polygon fill="none" stroke="white" points="37.62,-132.5 37.62,-155 68.38,-155 68.38,-132.5 37.62,-132.5"/>
<text xml:space="preserve" text-anchor="start" x="40.62" y="-139.25" font-family="Times New Roman,serif" font-size="14.00" fill="white">5&#45;24</text>
<polygon fill="none" stroke="white" points="37.62,-110 37.62,-132.5 53,-132.5 53,-110 37.62,-110"/>
<polygon fill="none" stroke="white" points="53,-110 53,-132.5 68.38,-132.5 68.38,-110 53,-110"/>
<text xml:space="preserve" text-anchor="start" x="56.56" y="-116.75" font-family="Times New Roman,serif" font-size="14.00" fill="white">○</text>
<polygon fill="none" stroke="white" points="37.62,-87.5 37.62,-110 53,-110 53,-87.5 37.62,-87.5"/>
<text xml:space="preserve" text-anchor="start" x="41.19" y="-94.25" font-family="Times New Roman,serif" font-size="14.00" fill="white">○</text>
<polygon fill="none" stroke="white" points="53,-87.5 53,-110 68.38,-110 68.38,-87.5 53,-87.5"/>
</g>
<!-- 5&#45;16&#45;&gt;5&#45;24 -->
<g id="edge33" class="edge">
<title>5&#45;16:e1&#45;&gt;5&#45;24</title>
<path fill="none" stroke="#aaaaaa" d="M38.75,-230.25C38.75,-230.25 43.26,-196.03 47.21,-166.12"/>
<polygon fill="#aaaaaa" stroke="#aaaaaa" points="50.65,-166.82 48.49,-156.45 43.71,-165.9 50.65,-166.82"/>
</g>
<!-- 5&#45;25 -->
<g id="node25" class="node">
<title>5&#45;25</title>
<polygon fill="none" stroke="white" points="111.62,-132.5 111.62,-155 154.38,-155 154.38,-132.5 111.62,-132.5"/>
<text xml:space="preserve" text-anchor="start" x="120.62" y="-139.25" font-family="Times New Roman,serif" font-size="14.00" fill="white">5&#45;25</text>
<polygon fill="none" stroke="white" points="111.62,-110 111.62,-132.5 125.88,-132.5 125.88,-110 111.62,-110"/>
<text xml:space="preserve" text-anchor="start" x="114.62" y="-116.75" font-family="Times New Roman,serif" font-size="14.00" fill="white">○</text>
<polygon fill="none" stroke="white" points="125.88,-110 125.88,-132.5 140.12,-132.5 140.12,-110 125.88,-110"/>
<polygon fill="none" stroke="white" points="140.12,-110 140.12,-132.5 154.38,-132.5 154.38,-110 140.12,-110"/>
<text xml:space="preserve" text-anchor="start" x="143.12" y="-116.75" font-family="Times New Roman,serif" font-size="14.00" fill="white">○</text>
<polygon fill="none" stroke="white" points="111.62,-87.5 111.62,-110 125.88,-110 125.88,-87.5 111.62,-87.5"/>
<polygon fill="none" stroke="white" points="125.88,-87.5 125.88,-110 140.12,-110 140.12,-87.5 125.88,-87.5"/>
<text xml:space="preserve" text-anchor="start" x="128.88" y="-94.25" font-family="Times New Roman,serif" font-size="14.00" fill="white">○</text>
<polygon fill="none" stroke="white" points="140.12,-87.5 140.12,-110 154.38,-110 154.38,-87.5 140.12,-87.5"/>
</g>
<!-- 5&#45;16&#45;&gt;5&#45;25 -->
<g id="edge34" class="edge">
<title>5&#45;16:e2&#45;&gt;5&#45;25</title>
<path fill="none" stroke="#aaaaaa" d="M53,-230.25C53,-230.25 82.05,-191.03 105.14,-159.86"/>
<polygon fill="#aaaaaa" stroke="#aaaaaa" points="107.73,-162.24 110.87,-152.12 102.11,-158.08 107.73,-162.24"/>
</g>
<!-- 5&#45;17&#45;&gt;5&#45;16 -->
<g id="edge36" class="edge">
<title>5&#45;17:e1&#45;&gt;5&#45;16</title>
<path fill="none" stroke="#aaaaaa" d="M117.62,-242.5C117.62,-242.5 101.22,-245.4 85.07,-248.26"/>
<polygon fill="#aaaaaa" stroke="#aaaaaa" points="84.86,-244.74 75.62,-249.93 86.08,-251.63 84.86,-244.74"/>
</g>
<!-- 5&#45;17&#45;&gt;5&#45;18 -->
<g id="edge37" class="edge">
<title>5&#45;17:e2&#45;&gt;5&#45;18</title>
<path fill="none" stroke="#aaaaaa" d="M148.38,-242.5C148.38,-231.58 164.78,-229.11 180.93,-232.14"/>
<polygon fill="#aaaaaa" stroke="#aaaaaa" points="179.84,-235.47 190.41,-234.68 181.66,-228.71 179.84,-235.47"/>
</g>
<!-- 5&#45;18&#45;&gt;5&#45;17 -->
<g id="edge38" class="edge">
<title>5&#45;18:e1&#45;&gt;5&#45;17</title>
<path fill="none" stroke="#aaaaaa" d="M191.62,-242.5C191.62,-242.5 174.91,-245.76 159.49,-248.77"/>
<polygon fill="#aaaaaa" stroke="#aaaaaa" points="158.87,-245.33 149.73,-250.68 160.22,-252.2 158.87,-245.33"/>
</g>
<!-- 5&#45;18&#45;&gt;5&#45;25 -->
<g id="edge39" class="edge">
<title>5&#45;18:e2&#45;&gt;5&#45;25</title>
<path fill="none" stroke="#aaaaaa" d="M213,-230.25C213,-230.25 183.95,-191.03 160.86,-159.86"/>
<polygon fill="#aaaaaa" stroke="#aaaaaa" points="163.89,-158.08 155.13,-152.12 158.27,-162.24 163.89,-158.08"/>
</g>
<!-- 5&#45;26 -->
<g id="node26" class="node">
<title>5&#45;26</title>
<polygon fill="none" stroke="white" points="197.62,-121.25 197.62,-143.75 228.38,-143.75 228.38,-121.25 197.62,-121.25"/>
<text xml:space="preserve" text-anchor="start" x="200.62" y="-128" font-family="Times New Roman,serif" font-size="14.00" fill="white">5&#45;26</text>
<polygon fill="none" stroke="white" points="197.62,-98.75 197.62,-121.25 228.38,-121.25 228.38,-98.75 197.62,-98.75"/>
<text xml:space="preserve" text-anchor="start" x="208.88" y="-105.5" font-family="Times New Roman,serif" font-size="14.00" fill="white">○</text>
</g>
<!-- 5&#45;18&#45;&gt;5&#45;26 -->
<g id="edge40" class="edge">
<title>5&#45;18:e3&#45;&gt;5&#45;26</title>
<path fill="none" stroke="#aaaaaa" d="M227.25,-230.25C227.25,-230.25 221.47,-186.47 217.28,-154.66"/>
<polygon fill="#aaaaaa" stroke="#aaaaaa" points="220.79,-154.54 216.01,-145.09 213.85,-155.46 220.79,-154.54"/>
</g>
<!-- 5&#45;20 -->
<g id="node20" class="node">
<title>5&#45;20</title>
<polygon fill="none" stroke="white" points="491.5,-253.75 491.5,-276.25 548.5,-276.25 548.5,-253.75 491.5,-253.75"/>
<text xml:space="preserve" text-anchor="start" x="507.62" y="-260.5" font-family="Times New Roman,serif" font-size="14.00" fill="white">5&#45;20</text>
<polygon fill="none" stroke="white" points="491.5,-231.25 491.5,-253.75 505.75,-253.75 505.75,-231.25 491.5,-231.25"/>
<text xml:space="preserve" text-anchor="start" x="494.5" y="-238" font-family="Times New Roman,serif" font-size="14.00" fill="white">○</text>
<polygon fill="none" stroke="white" points="505.75,-231.25 505.75,-253.75 520,-253.75 520,-231.25 505.75,-231.25"/>
<text xml:space="preserve" text-anchor="start" x="508.75" y="-238" font-family="Times New Roman,serif" font-size="14.00" fill="white">○</text>
<polygon fill="none" stroke="white" points="520,-231.25 520,-253.75 534.25,-253.75 534.25,-231.25 520,-231.25"/>
<text xml:space="preserve" text-anchor="start" x="523" y="-238" font-family="Times New Roman,serif" font-size="14.00" fill="white">○</text>
<polygon fill="none" stroke="white" points="534.25,-231.25 534.25,-253.75 548.5,-253.75 548.5,-231.25 534.25,-231.25"/>
<text xml:space="preserve" text-anchor="start" x="537.25" y="-238" font-family="Times New Roman,serif" font-size="14.00" fill="white">○</text>
</g>
<!-- 5&#45;19&#45;&gt;5&#45;20 -->
<g id="edge41" class="edge">
<title>5&#45;19:e1&#45;&gt;5&#45;20</title>
<path fill="none" stroke="#aaaaaa" d="M448.38,-253.75C448.38,-243.65 463.96,-238.3 480.48,-237.68"/>
<polygon fill="#aaaaaa" stroke="#aaaaaa" points="480.29,-241.18 490.38,-237.97 480.49,-234.18 480.29,-241.18"/>
</g>
<!-- 5&#45;27 -->
<g id="node27" class="node">
<title>5&#45;27</title>
<polygon fill="none" stroke="white" points="497.62,-121.25 497.62,-143.75 528.38,-143.75 528.38,-121.25 497.62,-121.25"/>
<text xml:space="preserve" text-anchor="start" x="500.62" y="-128" font-family="Times New Roman,serif" font-size="14.00" fill="white">5&#45;27</text>
<polygon fill="none" stroke="white" points="497.62,-98.75 497.62,-121.25 528.38,-121.25 528.38,-98.75 497.62,-98.75"/>
<text xml:space="preserve" text-anchor="start" x="508.88" y="-105.5" font-family="Times New Roman,serif" font-size="14.00" fill="white">○</text>
</g>
<!-- 5&#45;19&#45;&gt;5&#45;27 -->
<g id="edge42" class="edge">
<title>5&#45;19:e2&#45;&gt;5&#45;27</title>
<path fill="none" stroke="#aaaaaa" d="M433,-220C433,-220 467.02,-178.44 490.69,-149.51"/>
<polygon fill="#aaaaaa" stroke="#aaaaaa" points="493.37,-151.76 496.99,-141.81 487.95,-147.33 493.37,-151.76"/>
</g>
<!-- 5&#45;20&#45;&gt;5&#45;19 -->
<g id="edge43" class="edge">
<title>5&#45;20:e1&#45;&gt;5&#45;19</title>
<path fill="none" stroke="#aaaaaa" d="M491.5,-242.5C491.5,-242.5 474.83,-245.76 459.43,-248.77"/>
<polygon fill="#aaaaaa" stroke="#aaaaaa" points="458.84,-245.32 449.7,-250.68 460.18,-252.19 458.84,-245.32"/>
</g>
<!-- 5&#45;20&#45;&gt;5&#45;21 -->
<g id="edge46" class="edge">
<title>5&#45;20:e4&#45;&gt;5&#45;21</title>
<path fill="none" stroke="#aaaaaa" d="M548.5,-242.5C548.5,-230.81 565.5,-228.8 581.02,-232.86"/>
<polygon fill="#aaaaaa" stroke="#aaaaaa" points="579.77,-236.13 590.37,-236.31 582.2,-229.57 579.77,-236.13"/>
</g>
<!-- 5&#45;20&#45;&gt;5&#45;27 -->
<g id="edge44" class="edge">
<title>5&#45;20:e2&#45;&gt;5&#45;27</title>
<path fill="none" stroke="#aaaaaa" d="M512.88,-230.25C512.88,-230.25 512.93,-186.86 512.96,-155.08"/>
<polygon fill="#aaaaaa" stroke="#aaaaaa" points="516.46,-155.1 512.97,-145.1 509.46,-155.1 516.46,-155.1"/>
</g>
<!-- 5&#45;28 -->
<g id="node28" class="node">
<title>5&#45;28</title>
<polygon fill="none" stroke="white" points="598.62,-121.25 598.62,-143.75 629.38,-143.75 629.38,-121.25 598.62,-121.25"/>
<text xml:space="preserve" text-anchor="start" x="601.62" y="-128" font-family="Times New Roman,serif" font-size="14.00" fill="white">5&#45;28</text>
<polygon fill="none" stroke="white" points="598.62,-98.75 598.62,-121.25 629.38,-121.25 629.38,-98.75 598.62,-98.75"/>
<text xml:space="preserve" text-anchor="start" x="609.88" y="-105.5" font-family="Times New Roman,serif" font-size="14.00" fill="white">○</text>
</g>
<!-- 5&#45;20&#45;&gt;5&#45;28 -->
<g id="edge45" class="edge">
<title>5&#45;20:e3&#45;&gt;5&#45;28</title>
<path fill="none" stroke="#aaaaaa" d="M527.12,-230.25C527.12,-230.25 565.73,-182.26 591.47,-150.26"/>
<polygon fill="#aaaaaa" stroke="#aaaaaa" points="594.18,-152.47 597.72,-142.49 588.72,-148.09 594.18,-152.47"/>
</g>
<!-- 5&#45;21&#45;&gt;5&#45;20 -->
<g id="edge47" class="edge">
<title>5&#45;21:e1&#45;&gt;5&#45;20</title>
<path fill="none" stroke="#aaaaaa" d="M591.62,-242.5C591.62,-242.5 575.74,-245.03 559.04,-247.69"/>
<polygon fill="#aaaaaa" stroke="#aaaaaa" points="558.92,-244.16 549.6,-249.19 560.02,-251.08 558.92,-244.16"/>
</g>
<!-- 5&#45;21&#45;&gt;5&#45;28 -->
<g id="edge48" class="edge">
<title>5&#45;21:e2&#45;&gt;5&#45;28</title>
<path fill="none" stroke="#aaaaaa" d="M614.69,-230.25C614.69,-230.25 614.41,-186.86 614.21,-155.08"/>
<polygon fill="#aaaaaa" stroke="#aaaaaa" points="617.71,-155.08 614.15,-145.1 610.71,-155.12 617.71,-155.08"/>
</g>
<!-- 5&#45;22&#45;&gt;5&#45;23 -->
<g id="edge51" class="edge">
<title>5&#45;22:e3&#45;&gt;5&#45;23</title>
<path fill="none" stroke="#aaaaaa" d="M792.38,-242.5C792.38,-230.81 809.42,-228.8 824.96,-232.86"/>
<polygon fill="#aaaaaa" stroke="#aaaaaa" points="823.74,-236.14 834.34,-236.31 826.16,-229.57 823.74,-236.14"/>
</g>
<!-- 5&#45;29 -->
<g id="node29" class="node">
<title>5&#45;29</title>
<polygon fill="none" stroke="white" points="675.62,-121.25 675.62,-143.75 706.38,-143.75 706.38,-121.25 675.62,-121.25"/>
<text xml:space="preserve" text-anchor="start" x="678.62" y="-128" font-family="Times New Roman,serif" font-size="14.00" fill="white">5&#45;29</text>
<polygon fill="none" stroke="white" points="675.62,-98.75 675.62,-121.25 706.38,-121.25 706.38,-98.75 675.62,-98.75"/>
<text xml:space="preserve" text-anchor="start" x="686.88" y="-105.5" font-family="Times New Roman,serif" font-size="14.00" fill="white">○</text>
</g>
<!-- 5&#45;22&#45;&gt;5&#45;29 -->
<g id="edge49" class="edge">
<title>5&#45;22:e1&#45;&gt;5&#45;29</title>
<path fill="none" stroke="#aaaaaa" d="M756.75,-230.25C756.75,-230.25 729.39,-185.31 709.97,-153.41"/>
<polygon fill="#aaaaaa" stroke="#aaaaaa" points="712.97,-151.6 704.78,-144.88 706.99,-155.24 712.97,-151.6"/>
</g>
<!-- 5&#45;30 -->
<g id="node30" class="node">
<title>5&#45;30</title>
<polygon fill="none" stroke="white" points="755.62,-121.25 755.62,-143.75 786.38,-143.75 786.38,-121.25 755.62,-121.25"/>
<text xml:space="preserve" text-anchor="start" x="758.62" y="-128" font-family="Times New Roman,serif" font-size="14.00" fill="white">5&#45;30</text>
<polygon fill="none" stroke="white" points="755.62,-98.75 755.62,-121.25 786.38,-121.25 786.38,-98.75 755.62,-98.75"/>
<text xml:space="preserve" text-anchor="start" x="766.88" y="-105.5" font-family="Times New Roman,serif" font-size="14.00" fill="white">○</text>
</g>
<!-- 5&#45;22&#45;&gt;5&#45;30 -->
<g id="edge50" class="edge">
<title>5&#45;22:e2&#45;&gt;5&#45;30</title>
<path fill="none" stroke="#aaaaaa" d="M771,-230.25C771,-230.25 771,-186.86 771,-155.08"/>
<polygon fill="#aaaaaa" stroke="#aaaaaa" points="774.5,-155.1 771,-145.1 767.5,-155.1 774.5,-155.1"/>
</g>
<!-- 5&#45;23&#45;&gt;5&#45;22 -->
<g id="edge52" class="edge">
<title>5&#45;23:e1&#45;&gt;5&#45;22</title>
<path fill="none" stroke="#aaaaaa" d="M835.62,-242.5C835.62,-242.5 819.22,-245.4 803.07,-248.26"/>
<polygon fill="#aaaaaa" stroke="#aaaaaa" points="802.86,-244.74 793.62,-249.93 804.08,-251.63 802.86,-244.74"/>
</g>
<!-- 5&#45;23&#45;&gt;5&#45;30 -->
<g id="edge53" class="edge">
<title>5&#45;23:e2&#45;&gt;5&#45;30</title>
<path fill="none" stroke="#aaaaaa" d="M858.69,-230.25C858.69,-230.25 819.18,-181.59 793.2,-149.59"/>
<polygon fill="#aaaaaa" stroke="#aaaaaa" points="796.25,-147.79 787.23,-142.24 790.81,-152.21 796.25,-147.79"/>
</g>
<!-- 5&#45;24&#45;&gt;5&#45;25 -->
<g id="edge54" class="edge">
<title>5&#45;24:e1&#45;&gt;5&#45;25</title>
<path fill="none" stroke="#aaaaaa" d="M68.38,-121.25C68.38,-110.44 84.47,-105.06 100.47,-105.13"/>
<polygon fill="#aaaaaa" stroke="#aaaaaa" points="100.09,-108.61 110.36,-106 100.71,-101.63 100.09,-108.61"/>
</g>
<!-- boss_true_ending -->
<g id="node31" class="node">
<title>boss_true_ending</title>
<polygon fill="none" stroke="white" points="87.25,0 87.25,-22.5 178.75,-22.5 178.75,0 87.25,0"/>
<text xml:space="preserve" text-anchor="start" x="90.25" y="-6.75" font-family="Times New Roman,serif" font-size="14.00" fill="white">Boss Good End</text>
</g>
<!-- 5&#45;24&#45;&gt;boss_true_ending -->
<g id="edge55" class="edge">
<title>5&#45;24:e2&#45;&gt;boss_true_ending</title>
<path fill="none" stroke="#aaaaaa" d="M45.31,-87.5C45.31,-87.5 86.86,-51.84 112.76,-29.62"/>
<polygon fill="#aaaaaa" stroke="#aaaaaa" points="114.72,-32.55 120.03,-23.38 110.16,-27.24 114.72,-32.55"/>
</g>
<!-- 5&#45;25&#45;&gt;5&#45;24 -->
<g id="edge56" class="edge">
<title>5&#45;25:e1&#45;&gt;5&#45;24</title>
<path fill="none" stroke="#aaaaaa" d="M111.62,-121.25C111.62,-121.25 94.91,-121.25 79.49,-121.25"/>
<polygon fill="#aaaaaa" stroke="#aaaaaa" points="79.76,-117.75 69.76,-121.25 79.76,-124.75 79.76,-117.75"/>
</g>
<!-- 5&#45;25&#45;&gt;5&#45;26 -->
<g id="edge57" class="edge">
<title>5&#45;25:e2&#45;&gt;5&#45;26</title>
<path fill="none" stroke="#aaaaaa" d="M154.38,-121.25C154.38,-109.67 171.09,-104.33 186.51,-105.22"/>
<polygon fill="#aaaaaa" stroke="#aaaaaa" points="185.82,-108.65 196.26,-106.87 186.98,-101.75 185.82,-108.65"/>
</g>
<!-- 5&#45;25&#45;&gt;boss_true_ending -->
<g id="edge58" class="edge">
<title>5&#45;25:e3&#45;&gt;boss_true_ending</title>
<path fill="none" stroke="#aaaaaa" d="M133,-87.5C133,-87.5 133,-56.07 133,-33.83"/>
<polygon fill="#aaaaaa" stroke="#aaaaaa" points="136.5,-33.91 133,-23.91 129.5,-33.91 136.5,-33.91"/>
</g>
<!-- 5&#45;26&#45;&gt;boss_true_ending -->
<g id="edge59" class="edge">
<title>5&#45;26:e1&#45;&gt;boss_true_ending</title>
<path fill="none" stroke="#aaaaaa" d="M196.62,-110C196.62,-110 164.26,-60.28 145.7,-31.76"/>
<polygon fill="#aaaaaa" stroke="#aaaaaa" points="148.78,-30.08 140.4,-23.61 142.92,-33.9 148.78,-30.08"/>
</g>
<!-- boss_normal_ending -->
<g id="node32" class="node">
<title>boss_normal_ending</title>
<polygon fill="none" stroke="white" points="602.25,0 602.25,-22.5 705.75,-22.5 705.75,0 602.25,0"/>
<text xml:space="preserve" text-anchor="start" x="605.25" y="-6.75" font-family="Times New Roman,serif" font-size="14.00" fill="white">Boss Normal End</text>
</g>
<!-- 5&#45;27&#45;&gt;boss_normal_ending -->
<g id="edge60" class="edge">
<title>5&#45;27:e1&#45;&gt;boss_normal_ending</title>
<path fill="none" stroke="#aaaaaa" d="M529.38,-110C529.38,-110 596.72,-57.18 632.4,-29.19"/>
<polygon fill="#aaaaaa" stroke="#aaaaaa" points="634.23,-32.2 639.94,-23.28 629.91,-26.69 634.23,-32.2"/>
</g>
<!-- 5&#45;28&#45;&gt;boss_normal_ending -->
<g id="edge61" class="edge">
<title>5&#45;28:e1&#45;&gt;boss_normal_ending</title>
<path fill="none" stroke="#aaaaaa" d="M614,-97.75C614,-97.75 632.54,-58.11 644.38,-32.81"/>
<polygon fill="#aaaaaa" stroke="#aaaaaa" points="647.55,-34.31 648.61,-23.76 641.21,-31.34 647.55,-34.31"/>
</g>
<!-- 5&#45;29&#45;&gt;boss_normal_ending -->
<g id="edge62" class="edge">
<title>5&#45;29:e1&#45;&gt;boss_normal_ending</title>
<path fill="none" stroke="#aaaaaa" d="M691,-97.75C691,-97.75 673.85,-58.11 662.9,-32.81"/>
<polygon fill="#aaaaaa" stroke="#aaaaaa" points="666.17,-31.57 658.99,-23.78 659.75,-34.35 666.17,-31.57"/>
</g>
<!-- 5&#45;30&#45;&gt;boss_normal_ending -->
<g id="edge63" class="edge">
<title>5&#45;30:e1&#45;&gt;boss_normal_ending</title>
<path fill="none" stroke="#aaaaaa" d="M754.62,-110C754.62,-110 701.63,-58.52 672.56,-30.28"/>
<polygon fill="#aaaaaa" stroke="#aaaaaa" points="675.09,-27.85 665.48,-23.4 670.21,-32.88 675.09,-27.85"/>
</g>
</g>
<text x="99%" y="99%" text-anchor="end"
      font-family="Arial, sans-serif"
      font-size="9"
      fill="#777">
Kody • CC BY-SA 4.0
</text>
</svg>
