<?xml version="1.0" encoding="UTF-8" standalone="no"?>
<!DOCTYPE svg PUBLIC "-//W3C//DTD SVG 1.1//EN"
 "http://www.w3.org/Graphics/SVG/1.1/DTD/svg11.dtd">
<!-- Generated by graphviz version 14.1.3 (20260303.0454)
 -->
<!-- Title: cluster_zone3 Pages: 1 -->
<svg width="648pt" height="642pt"
 viewBox="0.00 0.00 648.00 642.00" xmlns="http://www.w3.org/2000/svg" xmlns:xlink="http://www.w3.org/1999/xlink">
 <metadata>
Author: Kody
License: CC BY-SA 4.0
https://creativecommons.org/licenses/by-sa/4.0/
</metadata>
<g id="graph0" class="graph" transform="scale(1 1) rotate(0) translate(4 638)">
<title>cluster_zone3</title>
<polygon fill="#1e1e1e" stroke="none" points="-4,4 -4,-638 644.38,-638 644.38,4 -4,4"/>
<!-- 3&#45;1 -->
<g id="node1" class="node">
<title>3&#45;1</title>
<polygon fill="none" stroke="white" points="607,-600.25 607,-622.75 631,-622.75 631,-600.25 607,-600.25"/>
<text xml:space="preserve" text-anchor="start" x="610" y="-607" font-family="Times New Roman,serif" font-size="14.00" fill="white">3&#45;1</text>
<polygon fill="none" stroke="white" points="607,-577.75 607,-600.25 631,-600.25 631,-577.75 607,-577.75"/>
<text xml:space="preserve" text-anchor="start" x="614.88" y="-584.5" font-family="Times New Roman,serif" font-size="14.00" fill="white">○</text>
</g>
<!-- 3&#45;6 -->
<g id="node6" class="node">
<title>3&#45;6</title>
<polygon fill="none" stroke="white" points="597.62,-467.75 597.62,-490.25 640.38,-490.25 640.38,-467.75 597.62,-467.75"/>
<text xml:space="preserve" text-anchor="start" x="610" y="-474.5" font-family="Times New Roman,serif" font-size="14.00" fill="white">3&#45;6</text>
<polygon fill="none" stroke="white" points="597.62,-445.25 597.62,-467.75 611.88,-467.75 611.88,-445.25 597.62,-445.25"/>
<text xml:space="preserve" text-anchor="start" x="600.62" y="-452" font-family="Times New Roman,serif" font-size="14.00" fill="white">○</text>
<polygon fill="none" stroke="white" points="611.88,-445.25 611.88,-467.75 626.12,-467.75 626.12,-445.25 611.88,-445.25"/>
<text xml:space="preserve" text-anchor="start" x="614.88" y="-452" font-family="Times New Roman,serif" font-size="14.00" fill="white">○</text>
<polygon fill="none" stroke="white" points="626.12,-445.25 626.12,-467.75 640.38,-467.75 640.38,-445.25 626.12,-445.25"/>
<text xml:space="preserve" text-anchor="start" x="629.12" y="-452" font-family="Times New Roman,serif" font-size="14.00" fill="white">○</text>
</g>
<!-- 3&#45;1&#45;&gt;3&#45;6 -->
<g id="edge1" class="edge">
<title>3&#45;1:e1&#45;&gt;3&#45;6</title>
<path fill="none" stroke="#aaaaaa" d="M619,-576.75C619,-576.75 619,-533.36 619,-501.58"/>
<polygon fill="#aaaaaa" stroke="#aaaaaa" points="622.5,-501.6 619,-491.6 615.5,-501.6 622.5,-501.6"/>
</g>
<!-- 3&#45;2 -->
<g id="node2" class="node">
<title>3&#45;2</title>
<polygon fill="none" stroke="white" points="35.75,-600.25 35.75,-622.75 64.25,-622.75 64.25,-600.25 35.75,-600.25"/>
<text xml:space="preserve" text-anchor="start" x="41" y="-607" font-family="Times New Roman,serif" font-size="14.00" fill="white">3&#45;2</text>
<polygon fill="none" stroke="white" points="35.75,-577.75 35.75,-600.25 50,-600.25 50,-577.75 35.75,-577.75"/>
<text xml:space="preserve" text-anchor="start" x="38.75" y="-584.5" font-family="Times New Roman,serif" font-size="14.00" fill="white">○</text>
<polygon fill="none" stroke="white" points="50,-577.75 50,-600.25 64.25,-600.25 64.25,-577.75 50,-577.75"/>
<text xml:space="preserve" text-anchor="start" x="53" y="-584.5" font-family="Times New Roman,serif" font-size="14.00" fill="white">○</text>
</g>
<!-- 3&#45;7 -->
<g id="node7" class="node">
<title>3&#45;7</title>
<polygon fill="none" stroke="white" points="28.75,-346.5 28.75,-369 57.25,-369 57.25,-346.5 28.75,-346.5"/>
<text xml:space="preserve" text-anchor="start" x="34" y="-353.25" font-family="Times New Roman,serif" font-size="14.00" fill="white">3&#45;7</text>
<polygon fill="none" stroke="white" points="28.75,-324 28.75,-346.5 43,-346.5 43,-324 28.75,-324"/>
<text xml:space="preserve" text-anchor="start" x="31.75" y="-330.75" font-family="Times New Roman,serif" font-size="14.00" fill="white">○</text>
<polygon fill="none" stroke="white" points="43,-324 43,-346.5 57.25,-346.5 57.25,-324 43,-324"/>
<polygon fill="none" stroke="white" points="28.75,-301.5 28.75,-324 43,-324 43,-301.5 28.75,-301.5"/>
<polygon fill="none" stroke="white" points="43,-301.5 43,-324 57.25,-324 57.25,-301.5 43,-301.5"/>
<text xml:space="preserve" text-anchor="start" x="46" y="-308.25" font-family="Times New Roman,serif" font-size="14.00" fill="white">○</text>
</g>
<!-- 3&#45;2&#45;&gt;3&#45;7 -->
<g id="edge2" class="edge">
<title>3&#45;2:e1&#45;&gt;3&#45;7</title>
<path fill="none" stroke="#aaaaaa" d="M42.88,-576.75C42.88,-576.75 42.94,-449.81 42.98,-380.37"/>
<polygon fill="#aaaaaa" stroke="#aaaaaa" points="46.48,-380.45 42.98,-370.45 39.48,-380.45 46.48,-380.45"/>
</g>
<!-- 3&#45;8 -->
<g id="node8" class="node">
<title>3&#45;8</title>
<polygon fill="none" stroke="white" points="105.75,-479 105.75,-501.5 134.25,-501.5 134.25,-479 105.75,-479"/>
<text xml:space="preserve" text-anchor="start" x="111" y="-485.75" font-family="Times New Roman,serif" font-size="14.00" fill="white">3&#45;8</text>
<polygon fill="none" stroke="white" points="105.75,-456.5 105.75,-479 120,-479 120,-456.5 105.75,-456.5"/>
<polygon fill="none" stroke="white" points="120,-456.5 120,-479 134.25,-479 134.25,-456.5 120,-456.5"/>
<text xml:space="preserve" text-anchor="start" x="123" y="-463.25" font-family="Times New Roman,serif" font-size="14.00" fill="white">○</text>
<polygon fill="none" stroke="white" points="105.75,-434 105.75,-456.5 120,-456.5 120,-434 105.75,-434"/>
<text xml:space="preserve" text-anchor="start" x="108.75" y="-440.75" font-family="Times New Roman,serif" font-size="14.00" fill="white">○</text>
<polygon fill="none" stroke="white" points="120,-434 120,-456.5 134.25,-456.5 134.25,-434 120,-434"/>
</g>
<!-- 3&#45;2&#45;&gt;3&#45;8 -->
<g id="edge3" class="edge">
<title>3&#45;2:e2&#45;&gt;3&#45;8</title>
<path fill="none" stroke="#aaaaaa" d="M57.12,-576.75C57.12,-576.75 81.74,-534.47 100.16,-502.82"/>
<polygon fill="#aaaaaa" stroke="#aaaaaa" points="103.12,-504.7 105.13,-494.3 97.07,-501.18 103.12,-504.7"/>
</g>
<!-- 3&#45;3 -->
<g id="node3" class="node">
<title>3&#45;3</title>
<polygon fill="none" stroke="white" points="108,-600.25 108,-622.75 132,-622.75 132,-600.25 108,-600.25"/>
<text xml:space="preserve" text-anchor="start" x="111" y="-607" font-family="Times New Roman,serif" font-size="14.00" fill="white">3&#45;3</text>
<polygon fill="none" stroke="white" points="108,-577.75 108,-600.25 132,-600.25 132,-577.75 108,-577.75"/>
<text xml:space="preserve" text-anchor="start" x="115.88" y="-584.5" font-family="Times New Roman,serif" font-size="14.00" fill="white">○</text>
</g>
<!-- 3&#45;3&#45;&gt;3&#45;8 -->
<g id="edge4" class="edge">
<title>3&#45;3:e1&#45;&gt;3&#45;8</title>
<path fill="none" stroke="#aaaaaa" d="M120,-576.75C120,-576.75 120,-542.53 120,-512.62"/>
<polygon fill="#aaaaaa" stroke="#aaaaaa" points="123.5,-512.96 120,-502.96 116.5,-512.96 123.5,-512.96"/>
</g>
<!-- 3&#45;4 -->
<g id="node4" class="node">
<title>3&#45;4</title>
<polygon fill="none" stroke="white" points="176.75,-600.25 176.75,-622.75 205.25,-622.75 205.25,-600.25 176.75,-600.25"/>
<text xml:space="preserve" text-anchor="start" x="182" y="-607" font-family="Times New Roman,serif" font-size="14.00" fill="white">3&#45;4</text>
<polygon fill="none" stroke="white" points="176.75,-577.75 176.75,-600.25 191,-600.25 191,-577.75 176.75,-577.75"/>
<text xml:space="preserve" text-anchor="start" x="179.75" y="-584.5" font-family="Times New Roman,serif" font-size="14.00" fill="white">○</text>
<polygon fill="none" stroke="white" points="191,-577.75 191,-600.25 205.25,-600.25 205.25,-577.75 191,-577.75"/>
<text xml:space="preserve" text-anchor="start" x="194" y="-584.5" font-family="Times New Roman,serif" font-size="14.00" fill="white">○</text>
</g>
<!-- 3&#45;4&#45;&gt;3&#45;8 -->
<g id="edge5" class="edge">
<title>3&#45;4:e1&#45;&gt;3&#45;8</title>
<path fill="none" stroke="#aaaaaa" d="M183.88,-576.75C183.88,-576.75 158.73,-534.24 139.99,-502.56"/>
<polygon fill="#aaaaaa" stroke="#aaaaaa" points="143.05,-500.85 134.95,-494.02 137.02,-504.41 143.05,-500.85"/>
</g>
<!-- 3&#45;9 -->
<g id="node9" class="node">
<title>3&#45;9</title>
<polygon fill="none" stroke="white" points="177.62,-467.75 177.62,-490.25 220.38,-490.25 220.38,-467.75 177.62,-467.75"/>
<text xml:space="preserve" text-anchor="start" x="190" y="-474.5" font-family="Times New Roman,serif" font-size="14.00" fill="white">3&#45;9</text>
<polygon fill="none" stroke="white" points="177.62,-445.25 177.62,-467.75 191.88,-467.75 191.88,-445.25 177.62,-445.25"/>
<text xml:space="preserve" text-anchor="start" x="180.62" y="-452" font-family="Times New Roman,serif" font-size="14.00" fill="white">○</text>
<polygon fill="none" stroke="white" points="191.88,-445.25 191.88,-467.75 206.12,-467.75 206.12,-445.25 191.88,-445.25"/>
<text xml:space="preserve" text-anchor="start" x="194.88" y="-452" font-family="Times New Roman,serif" font-size="14.00" fill="white">○</text>
<polygon fill="none" stroke="white" points="206.12,-445.25 206.12,-467.75 220.38,-467.75 220.38,-445.25 206.12,-445.25"/>
<text xml:space="preserve" text-anchor="start" x="209.12" y="-452" font-family="Times New Roman,serif" font-size="14.00" fill="white">○</text>
</g>
<!-- 3&#45;4&#45;&gt;3&#45;9 -->
<g id="edge6" class="edge">
<title>3&#45;4:e2&#45;&gt;3&#45;9</title>
<path fill="none" stroke="#aaaaaa" d="M198.12,-576.75C198.12,-576.75 198.48,-533.36 198.73,-501.58"/>
<polygon fill="#aaaaaa" stroke="#aaaaaa" points="202.23,-501.63 198.81,-491.6 195.23,-501.57 202.23,-501.63"/>
</g>
<!-- 3&#45;5 -->
<g id="node5" class="node">
<title>3&#45;5</title>
<polygon fill="none" stroke="white" points="258,-611.5 258,-634 282,-634 282,-611.5 258,-611.5"/>
<text xml:space="preserve" text-anchor="start" x="261" y="-618.25" font-family="Times New Roman,serif" font-size="14.00" fill="white">3&#45;5</text>
<polygon fill="none" stroke="white" points="258,-589 258,-611.5 282,-611.5 282,-589 258,-589"/>
<text xml:space="preserve" text-anchor="start" x="265.88" y="-595.75" font-family="Times New Roman,serif" font-size="14.00" fill="white">○</text>
<polygon fill="none" stroke="white" points="258,-566.5 258,-589 282,-589 282,-566.5 258,-566.5"/>
<text xml:space="preserve" text-anchor="start" x="265.88" y="-573.25" font-family="Times New Roman,serif" font-size="14.00" fill="white">○</text>
</g>
<!-- 3&#45;5&#45;&gt;3&#45;9 -->
<g id="edge7" class="edge">
<title>3&#45;5:e1&#45;&gt;3&#45;9</title>
<path fill="none" stroke="#aaaaaa" d="M257,-600.25C257,-600.25 230.17,-539.41 213,-500.5"/>
<polygon fill="#aaaaaa" stroke="#aaaaaa" points="216.3,-499.29 209.06,-491.56 209.89,-502.12 216.3,-499.29"/>
</g>
<!-- 3&#45;10 -->
<g id="node10" class="node">
<title>3&#45;10</title>
<polygon fill="none" stroke="white" points="263.62,-467.75 263.62,-490.25 294.38,-490.25 294.38,-467.75 263.62,-467.75"/>
<text xml:space="preserve" text-anchor="start" x="266.62" y="-474.5" font-family="Times New Roman,serif" font-size="14.00" fill="white">3&#45;10</text>
<polygon fill="none" stroke="white" points="263.62,-445.25 263.62,-467.75 279,-467.75 279,-445.25 263.62,-445.25"/>
<text xml:space="preserve" text-anchor="start" x="267.19" y="-452" font-family="Times New Roman,serif" font-size="14.00" fill="white">○</text>
<polygon fill="none" stroke="white" points="279,-445.25 279,-467.75 294.38,-467.75 294.38,-445.25 279,-445.25"/>
<text xml:space="preserve" text-anchor="start" x="282.56" y="-452" font-family="Times New Roman,serif" font-size="14.00" fill="white">○</text>
</g>
<!-- 3&#45;5&#45;&gt;3&#45;10 -->
<g id="edge8" class="edge">
<title>3&#45;5:e2&#45;&gt;3&#45;10</title>
<path fill="none" stroke="#aaaaaa" d="M270,-566.5C270,-566.5 273.4,-529.58 276.02,-501.12"/>
<polygon fill="#aaaaaa" stroke="#aaaaaa" points="279.48,-501.75 276.91,-491.47 272.51,-501.1 279.48,-501.75"/>
</g>
<!-- 3&#45;13 -->
<g id="node13" class="node">
<title>3&#45;13</title>
<polygon fill="none" stroke="white" points="437.62,-611.5 437.62,-634 468.38,-634 468.38,-611.5 437.62,-611.5"/>
<text xml:space="preserve" text-anchor="start" x="440.62" y="-618.25" font-family="Times New Roman,serif" font-size="14.00" fill="white">3&#45;13</text>
<polygon fill="none" stroke="white" points="437.62,-589 437.62,-611.5 453,-611.5 453,-589 437.62,-589"/>
<text xml:space="preserve" text-anchor="start" x="441.19" y="-595.75" font-family="Times New Roman,serif" font-size="14.00" fill="white">○</text>
<polygon fill="none" stroke="white" points="453,-589 453,-611.5 468.38,-611.5 468.38,-589 453,-589"/>
<polygon fill="none" stroke="white" points="437.62,-566.5 437.62,-589 453,-589 453,-566.5 437.62,-566.5"/>
<polygon fill="none" stroke="white" points="453,-566.5 453,-589 468.38,-589 468.38,-566.5 453,-566.5"/>
<text xml:space="preserve" text-anchor="start" x="456.56" y="-573.25" font-family="Times New Roman,serif" font-size="14.00" fill="white">○</text>
</g>
<!-- 3&#45;6&#45;&gt;3&#45;13 -->
<g id="edge9" class="edge">
<title>3&#45;6:e1&#45;&gt;3&#45;13</title>
<path fill="none" stroke="#aaaaaa" d="M596.62,-456.5C596.62,-456.5 565,-501.5 565,-501.5 565,-501.5 509.59,-549.86 476.71,-578.55"/>
<polygon fill="#aaaaaa" stroke="#aaaaaa" points="474.48,-575.86 469.25,-585.07 479.08,-581.13 474.48,-575.86"/>
</g>
<!-- 3&#45;14 -->
<g id="node14" class="node">
<title>3&#45;14</title>
<polygon fill="none" stroke="white" points="516.62,-214 516.62,-236.5 547.38,-236.5 547.38,-214 516.62,-214"/>
<text xml:space="preserve" text-anchor="start" x="519.62" y="-220.75" font-family="Times New Roman,serif" font-size="14.00" fill="white">3&#45;14</text>
<polygon fill="none" stroke="white" points="516.62,-191.5 516.62,-214 547.38,-214 547.38,-191.5 516.62,-191.5"/>
<text xml:space="preserve" text-anchor="start" x="527.88" y="-198.25" font-family="Times New Roman,serif" font-size="14.00" fill="white">○</text>
</g>
<!-- 3&#45;6&#45;&gt;3&#45;14 -->
<g id="edge10" class="edge">
<title>3&#45;6:e2&#45;&gt;3&#45;14</title>
<path fill="none" stroke="#aaaaaa" d="M619,-444.25C619,-444.25 567.89,-309.57 544.02,-246.67"/>
<polygon fill="#aaaaaa" stroke="#aaaaaa" points="547.39,-245.68 540.57,-237.57 540.84,-248.16 547.39,-245.68"/>
</g>
<!-- 3&#45;15 -->
<g id="node15" class="node">
<title>3&#45;15</title>
<polygon fill="none" stroke="white" points="601.62,-214 601.62,-236.5 632.38,-236.5 632.38,-214 601.62,-214"/>
<text xml:space="preserve" text-anchor="start" x="604.62" y="-220.75" font-family="Times New Roman,serif" font-size="14.00" fill="white">3&#45;15</text>
<polygon fill="none" stroke="white" points="601.62,-191.5 601.62,-214 632.38,-214 632.38,-191.5 601.62,-191.5"/>
<text xml:space="preserve" text-anchor="start" x="612.88" y="-198.25" font-family="Times New Roman,serif" font-size="14.00" fill="white">○</text>
</g>
<!-- 3&#45;6&#45;&gt;3&#45;15 -->
<g id="edge11" class="edge">
<title>3&#45;6:e3&#45;&gt;3&#45;15</title>
<path fill="none" stroke="#aaaaaa" d="M633.25,-444.25C633.25,-444.25 623.78,-310.68 619.3,-247.45"/>
<polygon fill="#aaaaaa" stroke="#aaaaaa" points="622.81,-247.39 618.61,-237.67 615.82,-247.89 622.81,-247.39"/>
</g>
<!-- 3&#45;11 -->
<g id="node11" class="node">
<title>3&#45;11</title>
<polygon fill="none" stroke="white" points="115.62,-214 115.62,-236.5 146.38,-236.5 146.38,-214 115.62,-214"/>
<text xml:space="preserve" text-anchor="start" x="118.62" y="-220.75" font-family="Times New Roman,serif" font-size="14.00" fill="white">3&#45;11</text>
<polygon fill="none" stroke="white" points="115.62,-191.5 115.62,-214 146.38,-214 146.38,-191.5 115.62,-191.5"/>
<text xml:space="preserve" text-anchor="start" x="126.88" y="-198.25" font-family="Times New Roman,serif" font-size="14.00" fill="white">○</text>
</g>
<!-- 3&#45;7&#45;&gt;3&#45;11 -->
<g id="edge13" class="edge">
<title>3&#45;7:e2&#45;&gt;3&#45;11</title>
<path fill="none" stroke="#aaaaaa" d="M50.12,-301.5C50.12,-301.5 84.22,-265.04 108.13,-239.46"/>
<polygon fill="#aaaaaa" stroke="#aaaaaa" points="110.48,-242.07 114.75,-232.38 105.37,-237.29 110.48,-242.07"/>
</g>
<!-- boss_3_honey -->
<g id="node19" class="node">
<title>boss_3_honey</title>
<polygon fill="none" stroke="white" points="0,-104 0,-126.5 72,-126.5 72,-104 0,-104"/>
<text xml:space="preserve" text-anchor="start" x="3" y="-110.75" font-family="Times New Roman,serif" font-size="14.00" fill="white">Boss Honey</text>
<polygon fill="none" stroke="white" points="0,-81.5 0,-104 72,-104 72,-81.5 0,-81.5"/>
<text xml:space="preserve" text-anchor="start" x="31.88" y="-88.25" font-family="Times New Roman,serif" font-size="14.00" fill="white">○</text>
</g>
<!-- 3&#45;7&#45;&gt;boss_3_honey -->
<g id="edge12" class="edge">
<title>3&#45;7:e1&#45;&gt;boss_3_honey</title>
<path fill="none" stroke="#aaaaaa" d="M27.75,-335.25C27.75,-335.25 28.75,-301.5 28.75,-301.5 28.75,-301.5 32.73,-193.73 34.79,-137.81"/>
<polygon fill="#aaaaaa" stroke="#aaaaaa" points="38.28,-138.04 35.15,-127.92 31.29,-137.78 38.28,-138.04"/>
</g>
<!-- 3&#45;8&#45;&gt;3&#45;9 -->
<g id="edge15" class="edge">
<title>3&#45;8:e2&#45;&gt;3&#45;9</title>
<path fill="none" stroke="#aaaaaa" d="M112.88,-433C112.88,-411.5 134.25,-412.5 134.25,-412.5 134.25,-412.5 156.5,-424.28 174.71,-438.36"/>
<polygon fill="#aaaaaa" stroke="#aaaaaa" points="172.12,-440.75 182.05,-444.44 176.59,-435.36 172.12,-440.75"/>
</g>
<!-- 3&#45;8&#45;&gt;3&#45;11 -->
<g id="edge14" class="edge">
<title>3&#45;8:e1&#45;&gt;3&#45;11</title>
<path fill="none" stroke="#aaaaaa" d="M135.25,-467.75C135.25,-467.75 132.69,-315.67 131.55,-247.45"/>
<polygon fill="#aaaaaa" stroke="#aaaaaa" points="135.05,-247.57 131.38,-237.63 128.05,-247.69 135.05,-247.57"/>
</g>
<!-- 3&#45;9&#45;&gt;3&#45;8 -->
<g id="edge16" class="edge">
<title>3&#45;9:e1&#45;&gt;3&#45;8</title>
<path fill="none" stroke="#aaaaaa" d="M177.62,-456.5C177.62,-456.5 160.63,-459.88 145.26,-462.93"/>
<polygon fill="#aaaaaa" stroke="#aaaaaa" points="144.74,-459.46 135.62,-464.85 146.11,-466.33 144.74,-459.46"/>
</g>
<!-- 3&#45;9&#45;&gt;3&#45;11 -->
<g id="edge17" class="edge">
<title>3&#45;9:e2&#45;&gt;3&#45;11</title>
<path fill="none" stroke="#aaaaaa" d="M199,-444.25C199,-444.25 165,-301.5 165,-301.5 165,-301.5 153.22,-271.53 143.53,-246.87"/>
<polygon fill="#aaaaaa" stroke="#aaaaaa" points="146.87,-245.82 139.96,-237.79 140.36,-248.38 146.87,-245.82"/>
</g>
<!-- 3&#45;12 -->
<g id="node12" class="node">
<title>3&#45;12</title>
<polygon fill="none" stroke="white" points="307.62,-335.25 307.62,-357.75 338.38,-357.75 338.38,-335.25 307.62,-335.25"/>
<text xml:space="preserve" text-anchor="start" x="310.62" y="-342" font-family="Times New Roman,serif" font-size="14.00" fill="white">3&#45;12</text>
<polygon fill="none" stroke="white" points="307.62,-312.75 307.62,-335.25 323,-335.25 323,-312.75 307.62,-312.75"/>
<text xml:space="preserve" text-anchor="start" x="311.19" y="-319.5" font-family="Times New Roman,serif" font-size="14.00" fill="white">○</text>
<polygon fill="none" stroke="white" points="323,-312.75 323,-335.25 338.38,-335.25 338.38,-312.75 323,-312.75"/>
<text xml:space="preserve" text-anchor="start" x="326.56" y="-319.5" font-family="Times New Roman,serif" font-size="14.00" fill="white">○</text>
</g>
<!-- 3&#45;9&#45;&gt;3&#45;12 -->
<g id="edge18" class="edge">
<title>3&#45;9:e3&#45;&gt;3&#45;12</title>
<path fill="none" stroke="#aaaaaa" d="M213.25,-444.25C213.25,-444.25 267.46,-390.9 299.68,-359.2"/>
<polygon fill="#aaaaaa" stroke="#aaaaaa" points="301.99,-361.84 306.66,-352.33 297.08,-356.85 301.99,-361.84"/>
</g>
<!-- 3&#45;10&#45;&gt;3&#45;12 -->
<g id="edge19" class="edge">
<title>3&#45;10:e1&#45;&gt;3&#45;12</title>
<path fill="none" stroke="#aaaaaa" d="M271.31,-444.25C271.31,-444.25 292.63,-399.7 307.89,-367.83"/>
<polygon fill="#aaaaaa" stroke="#aaaaaa" points="310.97,-369.48 312.13,-358.95 304.66,-366.46 310.97,-369.48"/>
</g>
<!-- 3&#45;10&#45;&gt;3&#45;13 -->
<g id="edge20" class="edge">
<title>3&#45;10:e2&#45;&gt;3&#45;13</title>
<path fill="none" stroke="#aaaaaa" d="M295.38,-456.5C295.38,-456.5 327,-501.5 327,-501.5 327,-501.5 392.45,-552.28 429.01,-580.64"/>
<polygon fill="#aaaaaa" stroke="#aaaaaa" points="426.81,-583.36 436.86,-586.73 431.1,-577.83 426.81,-583.36"/>
</g>
<!-- boss_3_a -->
<g id="node16" class="node">
<title>boss_3_a</title>
<polygon fill="none" stroke="white" points="115.5,-104 115.5,-126.5 160.5,-126.5 160.5,-104 115.5,-104"/>
<text xml:space="preserve" text-anchor="start" x="118.5" y="-110.75" font-family="Times New Roman,serif" font-size="14.00" fill="white">Boss A</text>
<polygon fill="none" stroke="white" points="115.5,-81.5 115.5,-104 130.5,-104 130.5,-81.5 115.5,-81.5"/>
<text xml:space="preserve" text-anchor="start" x="118.88" y="-88.25" font-family="Times New Roman,serif" font-size="14.00" fill="white">○</text>
<polygon fill="none" stroke="white" points="130.5,-81.5 130.5,-104 145.5,-104 145.5,-81.5 130.5,-81.5"/>
<text xml:space="preserve" text-anchor="start" x="133.88" y="-88.25" font-family="Times New Roman,serif" font-size="14.00" fill="white">○</text>
<polygon fill="none" stroke="white" points="145.5,-81.5 145.5,-104 160.5,-104 160.5,-81.5 145.5,-81.5"/>
<text xml:space="preserve" text-anchor="start" x="148.88" y="-88.25" font-family="Times New Roman,serif" font-size="14.00" fill="white">○</text>
</g>
<!-- 3&#45;11&#45;&gt;boss_3_a -->
<g id="edge21" class="edge">
<title>3&#45;11:e1&#45;&gt;boss_3_a</title>
<path fill="none" stroke="#aaaaaa" d="M131,-191.5C131,-191.5 133.38,-162.06 135.37,-137.53"/>
<polygon fill="#aaaaaa" stroke="#aaaaaa" points="138.83,-138.14 136.15,-127.89 131.85,-137.58 138.83,-138.14"/>
</g>
<!-- 3&#45;12&#45;&gt;3&#45;13 -->
<g id="edge23" class="edge">
<title>3&#45;12:e2&#45;&gt;3&#45;13</title>
<path fill="none" stroke="#aaaaaa" d="M339.38,-324C339.38,-324 403.27,-478.78 435.23,-556.21"/>
<polygon fill="#aaaaaa" stroke="#aaaaaa" points="431.89,-557.29 438.94,-565.2 438.36,-554.62 431.89,-557.29"/>
</g>
<!-- boss_3_b -->
<g id="node17" class="node">
<title>boss_3_b</title>
<polygon fill="none" stroke="white" points="293.5,-104 293.5,-126.5 338.5,-126.5 338.5,-104 293.5,-104"/>
<text xml:space="preserve" text-anchor="start" x="296.5" y="-110.75" font-family="Times New Roman,serif" font-size="14.00" fill="white">Boss B</text>
<polygon fill="none" stroke="white" points="293.5,-81.5 293.5,-104 316,-104 316,-81.5 293.5,-81.5"/>
<text xml:space="preserve" text-anchor="start" x="300.62" y="-88.25" font-family="Times New Roman,serif" font-size="14.00" fill="white">○</text>
<polygon fill="none" stroke="white" points="316,-81.5 316,-104 338.5,-104 338.5,-81.5 316,-81.5"/>
<text xml:space="preserve" text-anchor="start" x="323.12" y="-88.25" font-family="Times New Roman,serif" font-size="14.00" fill="white">○</text>
</g>
<!-- 3&#45;12&#45;&gt;boss_3_b -->
<g id="edge22" class="edge">
<title>3&#45;12:e1&#45;&gt;boss_3_b</title>
<path fill="none" stroke="#aaaaaa" d="M315.31,-311.75C315.31,-311.75 315.7,-195.71 315.89,-137.5"/>
<polygon fill="#aaaaaa" stroke="#aaaaaa" points="319.39,-137.87 315.92,-127.86 312.39,-137.85 319.39,-137.87"/>
</g>
<!-- 3&#45;13&#45;&gt;3&#45;12 -->
<g id="edge25" class="edge">
<title>3&#45;13:e2&#45;&gt;3&#45;12</title>
<path fill="none" stroke="#aaaaaa" d="M460.69,-566.5C460.69,-566.5 430,-434 430,-434 430,-434 378.13,-386.61 346.62,-357.83"/>
<polygon fill="#aaaaaa" stroke="#aaaaaa" points="349.19,-355.44 339.45,-351.28 344.47,-360.6 349.19,-355.44"/>
</g>
<!-- boss_3_c -->
<g id="node18" class="node">
<title>boss_3_c</title>
<polygon fill="none" stroke="white" points="463.5,-104 463.5,-126.5 508.5,-126.5 508.5,-104 463.5,-104"/>
<text xml:space="preserve" text-anchor="start" x="466.5" y="-110.75" font-family="Times New Roman,serif" font-size="14.00" fill="white">Boss C</text>
<polygon fill="none" stroke="white" points="463.5,-81.5 463.5,-104 486,-104 486,-81.5 463.5,-81.5"/>
<text xml:space="preserve" text-anchor="start" x="470.62" y="-88.25" font-family="Times New Roman,serif" font-size="14.00" fill="white">○</text>
<polygon fill="none" stroke="white" points="486,-81.5 486,-104 508.5,-104 508.5,-81.5 486,-81.5"/>
<text xml:space="preserve" text-anchor="start" x="493.12" y="-88.25" font-family="Times New Roman,serif" font-size="14.00" fill="white">○</text>
</g>
<!-- 3&#45;13&#45;&gt;boss_3_c -->
<g id="edge24" class="edge">
<title>3&#45;13:e1&#45;&gt;boss_3_c</title>
<path fill="none" stroke="#aaaaaa" d="M436.62,-600.25C436.62,-600.25 437.62,-566.5 437.62,-566.5 437.62,-566.5 471.58,-242.55 482.6,-137.48"/>
<polygon fill="#aaaaaa" stroke="#aaaaaa" points="486.04,-138.15 483.61,-127.84 479.08,-137.42 486.04,-138.15"/>
</g>
<!-- 3&#45;14&#45;&gt;boss_3_c -->
<g id="edge26" class="edge">
<title>3&#45;14:e1&#45;&gt;boss_3_c</title>
<path fill="none" stroke="#aaaaaa" d="M532,-191.5C532,-191.5 515.92,-161.26 502.77,-136.53"/>
<polygon fill="#aaaaaa" stroke="#aaaaaa" points="505.87,-134.9 498.08,-127.72 499.69,-138.19 505.87,-134.9"/>
</g>
<!-- 3&#45;15&#45;&gt;boss_3_c -->
<g id="edge27" class="edge">
<title>3&#45;15:e1&#45;&gt;boss_3_c</title>
<path fill="none" stroke="#aaaaaa" d="M600.62,-202.75C600.62,-202.75 551,-160.43 517.05,-131.48"/>
<polygon fill="#aaaaaa" stroke="#aaaaaa" points="519.4,-128.89 509.52,-125.06 514.86,-134.21 519.4,-128.89"/>
</g>
<!-- 4&#45;2 -->
<g id="node20" class="node">
<title>4&#45;2</title>
<text xml:space="preserve" text-anchor="middle" x="57" y="-3.2" font-family="Times New Roman,serif" font-size="14.00" fill="white">4&#45;2</text>
</g>
<!-- boss_3_a&#45;&gt;4&#45;2 -->
<g id="edge28" class="edge">
<title>boss_3_a:e1&#45;&gt;4&#45;2</title>
<path fill="none" stroke="#aaaaaa" d="M123,-81.5C123,-81.5 90.57,-46 71.18,-24.77"/>
<polygon fill="#aaaaaa" stroke="#aaaaaa" points="73.92,-22.58 64.59,-17.56 68.75,-27.3 73.92,-22.58"/>
</g>
<!-- 4&#45;3 -->
<g id="node21" class="node">
<title>4&#45;3</title>
<text xml:space="preserve" text-anchor="middle" x="138" y="-3.2" font-family="Times New Roman,serif" font-size="14.00" fill="white">4&#45;3</text>
</g>
<!-- boss_3_a&#45;&gt;4&#45;3 -->
<g id="edge29" class="edge">
<title>boss_3_a:e2&#45;&gt;4&#45;3</title>
<path fill="none" stroke="#aaaaaa" d="M138,-81.5C138,-81.5 138,-49.11 138,-27.71"/>
<polygon fill="#aaaaaa" stroke="#aaaaaa" points="141.5,-27.96 138,-17.96 134.5,-27.96 141.5,-27.96"/>
</g>
<!-- 4&#45;4 -->
<g id="node22" class="node">
<title>4&#45;4</title>
<text xml:space="preserve" text-anchor="middle" x="269" y="-3.2" font-family="Times New Roman,serif" font-size="14.00" fill="white">4&#45;4</text>
</g>
<!-- boss_3_a&#45;&gt;4&#45;4 -->
<g id="edge30" class="edge">
<title>boss_3_a:e3&#45;&gt;4&#45;4</title>
<path fill="none" stroke="#aaaaaa" d="M153,-81.5C153,-81.5 217.82,-41.13 250.55,-20.74"/>
<polygon fill="#aaaaaa" stroke="#aaaaaa" points="252.36,-23.74 259,-15.48 248.66,-17.8 252.36,-23.74"/>
</g>
<!-- boss_3_b&#45;&gt;4&#45;4 -->
<g id="edge31" class="edge">
<title>boss_3_b:e1&#45;&gt;4&#45;4</title>
<path fill="none" stroke="#aaaaaa" d="M304.75,-81.5C304.75,-81.5 288.12,-47.89 277.54,-26.51"/>
<polygon fill="#aaaaaa" stroke="#aaaaaa" points="280.8,-25.21 273.23,-17.8 274.53,-28.31 280.8,-25.21"/>
</g>
<!-- 4&#45;5 -->
<g id="node23" class="node">
<title>4&#45;5</title>
<text xml:space="preserve" text-anchor="middle" x="362" y="-3.2" font-family="Times New Roman,serif" font-size="14.00" fill="white">4&#45;5</text>
</g>
<!-- boss_3_b&#45;&gt;4&#45;5 -->
<g id="edge32" class="edge">
<title>boss_3_b:e2&#45;&gt;4&#45;5</title>
<path fill="none" stroke="#aaaaaa" d="M327.25,-81.5C327.25,-81.5 343.27,-48.19 353.55,-26.81"/>
<polygon fill="#aaaaaa" stroke="#aaaaaa" points="356.7,-28.33 357.88,-17.81 350.4,-25.3 356.7,-28.33"/>
</g>
<!-- boss_3_c&#45;&gt;4&#45;5 -->
<g id="edge33" class="edge">
<title>boss_3_c:e1&#45;&gt;4&#45;5</title>
<path fill="none" stroke="#aaaaaa" d="M462.5,-92.75C462.5,-92.75 407.91,-47.4 379.2,-23.54"/>
<polygon fill="#aaaaaa" stroke="#aaaaaa" points="381.66,-21.03 371.73,-17.34 377.19,-26.42 381.66,-21.03"/>
</g>
<!-- 4&#45;6 -->
<g id="node24" class="node">
<title>4&#45;6</title>
<text xml:space="preserve" text-anchor="middle" x="497" y="-3.2" font-family="Times New Roman,serif" font-size="14.00" fill="white">4&#45;6</text>
</g>
<!-- boss_3_c&#45;&gt;4&#45;6 -->
<g id="edge34" class="edge">
<title>boss_3_c:e2&#45;&gt;4&#45;6</title>
<path fill="none" stroke="#aaaaaa" d="M497.25,-81.5C497.25,-81.5 497.14,-49.11 497.06,-27.71"/>
<polygon fill="#aaaaaa" stroke="#aaaaaa" points="500.56,-27.94 497.03,-17.96 493.56,-27.97 500.56,-27.94"/>
</g>
<!-- boss_3_honey&#45;&gt;4&#45;2 -->
<g id="edge35" class="edge">
<title>boss_3_honey:e1&#45;&gt;4&#45;2</title>
<path fill="none" stroke="#aaaaaa" d="M36,-81.5C36,-81.5 45.5,-48.81 51.72,-27.41"/>
<polygon fill="#aaaaaa" stroke="#aaaaaa" points="55.06,-28.47 54.49,-17.9 48.34,-26.52 55.06,-28.47"/>
</g>
</g>
<text x="99%" y="99%" text-anchor="end"
      font-family="Arial, sans-serif"
      font-size="9"
      fill="#777">
Kody • CC BY-SA 4.0
</text>
</svg>
