<?xml version="1.0" encoding="UTF-8" standalone="no"?>
<!DOCTYPE svg PUBLIC "-//W3C//DTD SVG 1.1//EN"
 "http://www.w3.org/Graphics/SVG/1.1/DTD/svg11.dtd">
<!-- Generated by graphviz version 14.1.3 (20260303.0454)
 -->
<!-- Title: cluster_zone2 Pages: 1 -->
<svg width="551pt" height="555pt"
 viewBox="0.00 0.00 551.00 555.00" xmlns="http://www.w3.org/2000/svg" xmlns:xlink="http://www.w3.org/1999/xlink">
 <metadata>
Author: Kody
License: CC BY-SA 4.0
https://creativecommons.org/licenses/by-sa/4.0/
</metadata>
<g id="graph0" class="graph" transform="scale(1 1) rotate(0) translate(4 550.5)">
<title>cluster_zone2</title>
<polygon fill="#1e1e1e" stroke="none" points="-4,4 -4,-550.5 547.25,-550.5 547.25,4 -4,4"/>
<!-- 2&#45;1 -->
<g id="node1" class="node">
<title>2&#45;1</title>
<polygon fill="none" stroke="white" points="61.75,-524 61.75,-546.5 90.25,-546.5 90.25,-524 61.75,-524"/>
<text xml:space="preserve" text-anchor="start" x="67" y="-530.75" font-family="Times New Roman,serif" font-size="14.00" fill="white">2&#45;1</text>
<polygon fill="none" stroke="white" points="61.75,-501.5 61.75,-524 76,-524 76,-501.5 61.75,-501.5"/>
<text xml:space="preserve" text-anchor="start" x="64.75" y="-508.25" font-family="Times New Roman,serif" font-size="14.00" fill="white">○</text>
<polygon fill="none" stroke="white" points="76,-501.5 76,-524 90.25,-524 90.25,-501.5 76,-501.5"/>
<text xml:space="preserve" text-anchor="start" x="79" y="-508.25" font-family="Times New Roman,serif" font-size="14.00" fill="white">○</text>
</g>
<!-- 2&#45;2 -->
<g id="node2" class="node">
<title>2&#45;2</title>
<polygon fill="none" stroke="white" points="133.75,-524 133.75,-546.5 162.25,-546.5 162.25,-524 133.75,-524"/>
<text xml:space="preserve" text-anchor="start" x="139" y="-530.75" font-family="Times New Roman,serif" font-size="14.00" fill="white">2&#45;2</text>
<polygon fill="none" stroke="white" points="133.75,-501.5 133.75,-524 148,-524 148,-501.5 133.75,-501.5"/>
<text xml:space="preserve" text-anchor="start" x="136.75" y="-508.25" font-family="Times New Roman,serif" font-size="14.00" fill="white">○</text>
<polygon fill="none" stroke="white" points="148,-501.5 148,-524 162.25,-524 162.25,-501.5 148,-501.5"/>
<text xml:space="preserve" text-anchor="start" x="151" y="-508.25" font-family="Times New Roman,serif" font-size="14.00" fill="white">○</text>
</g>
<!-- 2&#45;1&#45;&gt;2&#45;2 -->
<g id="edge18" class="edge">
<title>2&#45;1:e1&#45;&gt;2&#45;2</title>
<path fill="none" stroke="#aaaaaa" d="M68.88,-500.5C68.88,-479 90.25,-480 90.25,-480 90.25,-480 108.99,-487.43 124.94,-497.83"/>
<polygon fill="#aaaaaa" stroke="#aaaaaa" points="122.46,-500.36 132.61,-503.38 126.56,-494.69 122.46,-500.36"/>
</g>
<!-- 2&#45;3 -->
<g id="node3" class="node">
<title>2&#45;3</title>
<polygon fill="none" stroke="white" points="74,-391.5 74,-414 98,-414 98,-391.5 74,-391.5"/>
<text xml:space="preserve" text-anchor="start" x="77" y="-398.25" font-family="Times New Roman,serif" font-size="14.00" fill="white">2&#45;3</text>
<polygon fill="none" stroke="white" points="74,-369 74,-391.5 98,-391.5 98,-369 74,-369"/>
<text xml:space="preserve" text-anchor="start" x="81.88" y="-375.75" font-family="Times New Roman,serif" font-size="14.00" fill="white">○</text>
</g>
<!-- 2&#45;1&#45;&gt;2&#45;3 -->
<g id="edge19" class="edge">
<title>2&#45;1:e2&#45;&gt;2&#45;3</title>
<path fill="none" stroke="#aaaaaa" d="M83.12,-501.5C83.12,-501.5 84.3,-457.08 85.14,-424.95"/>
<polygon fill="#aaaaaa" stroke="#aaaaaa" points="88.63,-425.38 85.4,-415.29 81.64,-425.19 88.63,-425.38"/>
</g>
<!-- 2&#45;4 -->
<g id="node4" class="node">
<title>2&#45;4</title>
<polygon fill="none" stroke="white" points="2,-236.5 2,-259 26,-259 26,-236.5 2,-236.5"/>
<text xml:space="preserve" text-anchor="start" x="5" y="-243.25" font-family="Times New Roman,serif" font-size="14.00" fill="white">2&#45;4</text>
<polygon fill="none" stroke="white" points="2,-214 2,-236.5 26,-236.5 26,-214 2,-214"/>
<text xml:space="preserve" text-anchor="start" x="9.88" y="-220.75" font-family="Times New Roman,serif" font-size="14.00" fill="white">○</text>
</g>
<!-- 2&#45;2&#45;&gt;2&#45;4 -->
<g id="edge20" class="edge">
<title>2&#45;2:e1&#45;&gt;2&#45;4</title>
<path fill="none" stroke="#aaaaaa" d="M140.88,-501.5C140.88,-501.5 0,-436.5 0,-436.5 0,-436.5 0,-346.5 0,-346.5 0,-346.5 5.71,-302.08 9.83,-269.95"/>
<polygon fill="#aaaaaa" stroke="#aaaaaa" points="13.27,-270.64 11.07,-260.28 6.33,-269.75 13.27,-270.64"/>
</g>
<!-- 2&#45;7 -->
<g id="node7" class="node">
<title>2&#45;7</title>
<polygon fill="none" stroke="white" points="140.75,-391.5 140.75,-414 169.25,-414 169.25,-391.5 140.75,-391.5"/>
<text xml:space="preserve" text-anchor="start" x="146" y="-398.25" font-family="Times New Roman,serif" font-size="14.00" fill="white">2&#45;7</text>
<polygon fill="none" stroke="white" points="140.75,-369 140.75,-391.5 155,-391.5 155,-369 140.75,-369"/>
<text xml:space="preserve" text-anchor="start" x="143.75" y="-375.75" font-family="Times New Roman,serif" font-size="14.00" fill="white">○</text>
<polygon fill="none" stroke="white" points="155,-369 155,-391.5 169.25,-391.5 169.25,-369 155,-369"/>
<text xml:space="preserve" text-anchor="start" x="158" y="-375.75" font-family="Times New Roman,serif" font-size="14.00" fill="white">○</text>
</g>
<!-- 2&#45;2&#45;&gt;2&#45;7 -->
<g id="edge21" class="edge">
<title>2&#45;2:e2&#45;&gt;2&#45;7</title>
<path fill="none" stroke="#aaaaaa" d="M155.12,-501.5C155.12,-501.5 155.07,-457.08 155.04,-424.95"/>
<polygon fill="#aaaaaa" stroke="#aaaaaa" points="158.54,-425.28 155.03,-415.29 151.54,-425.29 158.54,-425.28"/>
</g>
<!-- 2&#45;3&#45;&gt;2&#45;7 -->
<!-- 2&#45;3&#45;&gt;2&#45;7 -->
<!-- 2&#45;3&#45;&gt;2&#45;7 -->
<g id="edge22" class="edge">
<title>2&#45;3:e1&#45;&gt;2&#45;7</title>
<path fill="none" stroke="#aaaaaa" d="M98,-380.25C98,-380.25 114.81,-383.63 130.01,-386.68"/>
<polygon fill="#aaaaaa" stroke="#aaaaaa" points="129.03,-390.05 139.53,-388.59 130.41,-383.19 129.03,-390.05"/>
</g>
<!-- 2&#45;8 -->
<g id="node8" class="node">
<title>2&#45;8</title>
<polygon fill="none" stroke="white" points="212.62,-259 212.62,-281.5 255.38,-281.5 255.38,-259 212.62,-259"/>
<text xml:space="preserve" text-anchor="start" x="225" y="-265.75" font-family="Times New Roman,serif" font-size="14.00" fill="white">2&#45;8</text>
<polygon fill="none" stroke="white" points="212.62,-236.5 212.62,-259 226.88,-259 226.88,-236.5 212.62,-236.5"/>
<polygon fill="none" stroke="white" points="226.88,-236.5 226.88,-259 241.12,-259 241.12,-236.5 226.88,-236.5"/>
<polygon fill="none" stroke="white" points="241.12,-236.5 241.12,-259 255.38,-259 255.38,-236.5 241.12,-236.5"/>
<text xml:space="preserve" text-anchor="start" x="244.12" y="-243.25" font-family="Times New Roman,serif" font-size="14.00" fill="white">○</text>
<polygon fill="none" stroke="white" points="212.62,-214 212.62,-236.5 226.88,-236.5 226.88,-214 212.62,-214"/>
<text xml:space="preserve" text-anchor="start" x="215.62" y="-220.75" font-family="Times New Roman,serif" font-size="14.00" fill="white">○</text>
<polygon fill="none" stroke="white" points="226.88,-214 226.88,-236.5 241.12,-236.5 241.12,-214 226.88,-214"/>
<polygon fill="none" stroke="white" points="241.12,-214 241.12,-236.5 255.38,-236.5 255.38,-214 241.12,-214"/>
<polygon fill="none" stroke="white" points="212.62,-191.5 212.62,-214 226.88,-214 226.88,-191.5 212.62,-191.5"/>
<polygon fill="none" stroke="white" points="226.88,-191.5 226.88,-214 241.12,-214 241.12,-191.5 226.88,-191.5"/>
<text xml:space="preserve" text-anchor="start" x="229.88" y="-198.25" font-family="Times New Roman,serif" font-size="14.00" fill="white">○</text>
<polygon fill="none" stroke="white" points="241.12,-191.5 241.12,-214 255.38,-214 255.38,-191.5 241.12,-191.5"/>
</g>
<!-- 2&#45;4&#45;&gt;2&#45;8 -->
<!-- boss_2_a -->
<g id="node16" class="node">
<title>boss_2_a</title>
<polygon fill="none" stroke="white" points="125.5,-104 125.5,-126.5 170.5,-126.5 170.5,-104 125.5,-104"/>
<text xml:space="preserve" text-anchor="start" x="128.5" y="-110.75" font-family="Times New Roman,serif" font-size="14.00" fill="white">Boss A</text>
<polygon fill="none" stroke="white" points="125.5,-81.5 125.5,-104 140.5,-104 140.5,-81.5 125.5,-81.5"/>
<text xml:space="preserve" text-anchor="start" x="128.88" y="-88.25" font-family="Times New Roman,serif" font-size="14.00" fill="white">○</text>
<polygon fill="none" stroke="white" points="140.5,-81.5 140.5,-104 155.5,-104 155.5,-81.5 140.5,-81.5"/>
<text xml:space="preserve" text-anchor="start" x="143.88" y="-88.25" font-family="Times New Roman,serif" font-size="14.00" fill="white">○</text>
<polygon fill="none" stroke="white" points="155.5,-81.5 155.5,-104 170.5,-104 170.5,-81.5 155.5,-81.5"/>
<text xml:space="preserve" text-anchor="start" x="158.88" y="-88.25" font-family="Times New Roman,serif" font-size="14.00" fill="white">○</text>
</g>
<!-- 2&#45;4&#45;&gt;boss_2_a -->
<g id="edge23" class="edge">
<title>2&#45;4:e1&#45;&gt;boss_2_a</title>
<path fill="none" stroke="#aaaaaa" d="M27,-225.25C27,-225.25 82.8,-169.79 118.62,-134.2"/>
<polygon fill="#aaaaaa" stroke="#aaaaaa" points="120.67,-137.1 125.29,-127.57 115.73,-132.13 120.67,-137.1"/>
</g>
<!-- 2&#45;5 -->
<g id="node5" class="node">
<title>2&#45;5</title>
<polygon fill="none" stroke="white" points="209.75,-524 209.75,-546.5 238.25,-546.5 238.25,-524 209.75,-524"/>
<text xml:space="preserve" text-anchor="start" x="215" y="-530.75" font-family="Times New Roman,serif" font-size="14.00" fill="white">2&#45;5</text>
<polygon fill="none" stroke="white" points="209.75,-501.5 209.75,-524 224,-524 224,-501.5 209.75,-501.5"/>
<text xml:space="preserve" text-anchor="start" x="212.75" y="-508.25" font-family="Times New Roman,serif" font-size="14.00" fill="white">○</text>
<polygon fill="none" stroke="white" points="224,-501.5 224,-524 238.25,-524 238.25,-501.5 224,-501.5"/>
<text xml:space="preserve" text-anchor="start" x="227" y="-508.25" font-family="Times New Roman,serif" font-size="14.00" fill="white">○</text>
</g>
<!-- 2&#45;5&#45;&gt;2&#45;3 -->
<g id="edge24" class="edge">
<title>2&#45;5:e1&#45;&gt;2&#45;3</title>
<path fill="none" stroke="#aaaaaa" d="M216.88,-501.5C216.88,-501.5 119,-436.5 119,-436.5 119,-436.5 112.18,-427.41 104.74,-417.49"/>
<polygon fill="#aaaaaa" stroke="#aaaaaa" points="107.62,-415.5 98.82,-409.6 102.02,-419.7 107.62,-415.5"/>
</g>
<!-- 2&#45;6 -->
<g id="node6" class="node">
<title>2&#45;6</title>
<polygon fill="none" stroke="white" points="212.62,-414 212.62,-436.5 255.38,-436.5 255.38,-414 212.62,-414"/>
<text xml:space="preserve" text-anchor="start" x="225" y="-420.75" font-family="Times New Roman,serif" font-size="14.00" fill="white">2&#45;6</text>
<polygon fill="none" stroke="white" points="212.62,-391.5 212.62,-414 226.88,-414 226.88,-391.5 212.62,-391.5"/>
<polygon fill="none" stroke="white" points="226.88,-391.5 226.88,-414 241.12,-414 241.12,-391.5 226.88,-391.5"/>
<polygon fill="none" stroke="white" points="241.12,-391.5 241.12,-414 255.38,-414 255.38,-391.5 241.12,-391.5"/>
<text xml:space="preserve" text-anchor="start" x="244.12" y="-398.25" font-family="Times New Roman,serif" font-size="14.00" fill="white">○</text>
<polygon fill="none" stroke="white" points="212.62,-369 212.62,-391.5 226.88,-391.5 226.88,-369 212.62,-369"/>
<polygon fill="none" stroke="white" points="226.88,-369 226.88,-391.5 241.12,-391.5 241.12,-369 226.88,-369"/>
<text xml:space="preserve" text-anchor="start" x="229.88" y="-375.75" font-family="Times New Roman,serif" font-size="14.00" fill="white">○</text>
<polygon fill="none" stroke="white" points="241.12,-369 241.12,-391.5 255.38,-391.5 255.38,-369 241.12,-369"/>
<polygon fill="none" stroke="white" points="212.62,-346.5 212.62,-369 226.88,-369 226.88,-346.5 212.62,-346.5"/>
<text xml:space="preserve" text-anchor="start" x="215.62" y="-353.25" font-family="Times New Roman,serif" font-size="14.00" fill="white">○</text>
<polygon fill="none" stroke="white" points="226.88,-346.5 226.88,-369 241.12,-369 241.12,-346.5 226.88,-346.5"/>
<polygon fill="none" stroke="white" points="241.12,-346.5 241.12,-369 255.38,-369 255.38,-346.5 241.12,-346.5"/>
</g>
<!-- 2&#45;5&#45;&gt;2&#45;6 -->
<g id="edge25" class="edge">
<title>2&#45;5:e2&#45;&gt;2&#45;6</title>
<path fill="none" stroke="#aaaaaa" d="M231.12,-501.5C231.12,-501.5 231.84,-474.49 232.55,-447.36"/>
<polygon fill="#aaaaaa" stroke="#aaaaaa" points="236.04,-447.81 232.81,-437.72 229.04,-447.62 236.04,-447.81"/>
</g>
<!-- 2&#45;6&#45;&gt;2&#45;7 -->
<g id="edge28" class="edge">
<title>2&#45;6:e3&#45;&gt;2&#45;7</title>
<path fill="none" stroke="#aaaaaa" d="M212.62,-357.75C212.62,-357.75 194.62,-368.48 178.91,-377.85"/>
<polygon fill="#aaaaaa" stroke="#aaaaaa" points="177.23,-374.77 170.43,-382.9 180.82,-380.78 177.23,-374.77"/>
</g>
<!-- 2&#45;6&#45;&gt;2&#45;8 -->
<g id="edge27" class="edge">
<title>2&#45;6:e2&#45;&gt;2&#45;8</title>
<path fill="none" stroke="#aaaaaa" d="M234,-369.06C234,-353.15 234,-321.32 234,-292.96"/>
<polygon fill="#aaaaaa" stroke="#aaaaaa" points="237.5,-292.99 234,-282.99 230.5,-292.99 237.5,-292.99"/>
</g>
<!-- 2&#45;10 -->
<g id="node10" class="node">
<title>2&#45;10</title>
<polygon fill="none" stroke="white" points="298.62,-414 298.62,-436.5 329.38,-436.5 329.38,-414 298.62,-414"/>
<text xml:space="preserve" text-anchor="start" x="301.62" y="-420.75" font-family="Times New Roman,serif" font-size="14.00" fill="white">2&#45;10</text>
<polygon fill="none" stroke="white" points="298.62,-391.5 298.62,-414 329.38,-414 329.38,-391.5 298.62,-391.5"/>
<text xml:space="preserve" text-anchor="start" x="309.88" y="-398.25" font-family="Times New Roman,serif" font-size="14.00" fill="white">○</text>
<polygon fill="none" stroke="white" points="298.62,-369 298.62,-391.5 329.38,-391.5 329.38,-369 298.62,-369"/>
<text xml:space="preserve" text-anchor="start" x="309.88" y="-375.75" font-family="Times New Roman,serif" font-size="14.00" fill="white">○</text>
<polygon fill="none" stroke="white" points="298.62,-346.5 298.62,-369 329.38,-369 329.38,-346.5 298.62,-346.5"/>
<text xml:space="preserve" text-anchor="start" x="309.88" y="-353.25" font-family="Times New Roman,serif" font-size="14.00" fill="white">○</text>
</g>
<!-- 2&#45;6&#45;&gt;2&#45;10 -->
<!-- 2&#45;6&#45;&gt;2&#45;10 -->
<g id="edge26" class="edge">
<title>2&#45;6:e1&#45;&gt;2&#45;10</title>
<path fill="none" stroke="#aaaaaa" d="M255.38,-402.75C255.38,-402.75 272.09,-399.49 287.51,-396.48"/>
<polygon fill="#aaaaaa" stroke="#aaaaaa" points="288.13,-399.92 297.27,-394.57 286.78,-393.05 288.13,-399.92"/>
</g>
<!-- 2&#45;13 -->
<g id="node13" class="node">
<title>2&#45;13</title>
<polygon fill="none" stroke="white" points="372.62,-391.5 372.62,-414 403.38,-414 403.38,-391.5 372.62,-391.5"/>
<text xml:space="preserve" text-anchor="start" x="375.62" y="-398.25" font-family="Times New Roman,serif" font-size="14.00" fill="white">2&#45;13</text>
<polygon fill="none" stroke="white" points="372.62,-369 372.62,-391.5 388,-391.5 388,-369 372.62,-369"/>
<text xml:space="preserve" text-anchor="start" x="376.19" y="-375.75" font-family="Times New Roman,serif" font-size="14.00" fill="white">○</text>
<polygon fill="none" stroke="white" points="388,-369 388,-391.5 403.38,-391.5 403.38,-369 388,-369"/>
<text xml:space="preserve" text-anchor="start" x="391.56" y="-375.75" font-family="Times New Roman,serif" font-size="14.00" fill="white">○</text>
</g>
<!-- 2&#45;6&#45;&gt;2&#45;13 -->
<!-- 2&#45;7&#45;&gt;2&#45;6 -->
<!-- 2&#45;7&#45;&gt;2&#45;6 -->
<!-- 2&#45;7&#45;&gt;2&#45;8 -->
<g id="edge30" class="edge">
<title>2&#45;7:e2&#45;&gt;2&#45;8</title>
<path fill="none" stroke="#aaaaaa" d="M162.12,-368C162.12,-368 186.83,-323.14 207.27,-286.03"/>
<polygon fill="#aaaaaa" stroke="#aaaaaa" points="210.14,-288.07 211.9,-277.63 204.01,-284.7 210.14,-288.07"/>
</g>
<!-- 2&#45;7&#45;&gt;boss_2_a -->
<g id="edge29" class="edge">
<title>2&#45;7:e1&#45;&gt;boss_2_a</title>
<path fill="none" stroke="#aaaaaa" d="M147.88,-368C147.88,-368 147.95,-207.58 147.98,-137.32"/>
<polygon fill="#aaaaaa" stroke="#aaaaaa" points="151.48,-137.59 147.99,-127.59 144.48,-137.59 151.48,-137.59"/>
</g>
<!-- 2&#45;8&#45;&gt;2&#45;7 -->
<g id="edge32" class="edge">
<title>2&#45;8:e2&#45;&gt;2&#45;7</title>
<path fill="none" stroke="#aaaaaa" d="M211.62,-225.25C211.62,-225.25 182.45,-310.4 165.98,-358.46"/>
<polygon fill="#aaaaaa" stroke="#aaaaaa" points="162.71,-357.21 162.78,-367.8 169.33,-359.48 162.71,-357.21"/>
</g>
<!-- 2&#45;11 -->
<g id="node11" class="node">
<title>2&#45;11</title>
<polygon fill="none" stroke="white" points="365.62,-236.5 365.62,-259 396.38,-259 396.38,-236.5 365.62,-236.5"/>
<text xml:space="preserve" text-anchor="start" x="368.62" y="-243.25" font-family="Times New Roman,serif" font-size="14.00" fill="white">2&#45;11</text>
<polygon fill="none" stroke="white" points="365.62,-214 365.62,-236.5 381,-236.5 381,-214 365.62,-214"/>
<text xml:space="preserve" text-anchor="start" x="369.19" y="-220.75" font-family="Times New Roman,serif" font-size="14.00" fill="white">○</text>
<polygon fill="none" stroke="white" points="381,-214 381,-236.5 396.38,-236.5 396.38,-214 381,-214"/>
<text xml:space="preserve" text-anchor="start" x="384.56" y="-220.75" font-family="Times New Roman,serif" font-size="14.00" fill="white">○</text>
</g>
<!-- 2&#45;8&#45;&gt;2&#45;11 -->
<!-- 2&#45;8&#45;&gt;boss_2_a -->
<g id="edge33" class="edge">
<title>2&#45;8:e3&#45;&gt;boss_2_a</title>
<path fill="none" stroke="#aaaaaa" d="M234,-191.5C234,-191.5 202.02,-159.34 177.07,-134.23"/>
<polygon fill="#aaaaaa" stroke="#aaaaaa" points="179.86,-132.08 170.33,-127.46 174.89,-137.01 179.86,-132.08"/>
</g>
<!-- boss_2_b -->
<g id="node17" class="node">
<title>boss_2_b</title>
<polygon fill="none" stroke="white" points="228.5,-104 228.5,-126.5 273.5,-126.5 273.5,-104 228.5,-104"/>
<text xml:space="preserve" text-anchor="start" x="231.5" y="-110.75" font-family="Times New Roman,serif" font-size="14.00" fill="white">Boss B</text>
<polygon fill="none" stroke="white" points="228.5,-81.5 228.5,-104 251,-104 251,-81.5 228.5,-81.5"/>
<text xml:space="preserve" text-anchor="start" x="235.62" y="-88.25" font-family="Times New Roman,serif" font-size="14.00" fill="white">○</text>
<polygon fill="none" stroke="white" points="251,-81.5 251,-104 273.5,-104 273.5,-81.5 251,-81.5"/>
<text xml:space="preserve" text-anchor="start" x="258.12" y="-88.25" font-family="Times New Roman,serif" font-size="14.00" fill="white">○</text>
</g>
<!-- 2&#45;8&#45;&gt;boss_2_b -->
<g id="edge31" class="edge">
<title>2&#45;8:e1&#45;&gt;boss_2_b</title>
<path fill="none" stroke="#aaaaaa" d="M256.38,-247.75C256.38,-247.75 255.38,-191.5 255.38,-191.5 255.38,-191.5 253.9,-162.33 252.66,-137.86"/>
<polygon fill="#aaaaaa" stroke="#aaaaaa" points="256.16,-137.7 252.16,-127.89 249.17,-138.06 256.16,-137.7"/>
</g>
<!-- 2&#45;9 -->
<g id="node9" class="node">
<title>2&#45;9</title>
<polygon fill="none" stroke="white" points="287.75,-524 287.75,-546.5 316.25,-546.5 316.25,-524 287.75,-524"/>
<text xml:space="preserve" text-anchor="start" x="293" y="-530.75" font-family="Times New Roman,serif" font-size="14.00" fill="white">2&#45;9</text>
<polygon fill="none" stroke="white" points="287.75,-501.5 287.75,-524 302,-524 302,-501.5 287.75,-501.5"/>
<text xml:space="preserve" text-anchor="start" x="290.75" y="-508.25" font-family="Times New Roman,serif" font-size="14.00" fill="white">○</text>
<polygon fill="none" stroke="white" points="302,-501.5 302,-524 316.25,-524 316.25,-501.5 302,-501.5"/>
<text xml:space="preserve" text-anchor="start" x="305" y="-508.25" font-family="Times New Roman,serif" font-size="14.00" fill="white">○</text>
</g>
<!-- 2&#45;9&#45;&gt;2&#45;6 -->
<g id="edge34" class="edge">
<title>2&#45;9:e1&#45;&gt;2&#45;6</title>
<path fill="none" stroke="#aaaaaa" d="M294.88,-501.5C294.88,-501.5 277.09,-469.66 260.75,-440.4"/>
<polygon fill="#aaaaaa" stroke="#aaaaaa" points="263.96,-438.97 256.03,-431.94 257.85,-442.38 263.96,-438.97"/>
</g>
<!-- 2&#45;9&#45;&gt;2&#45;10 -->
<g id="edge35" class="edge">
<title>2&#45;9:e2&#45;&gt;2&#45;10</title>
<path fill="none" stroke="#aaaaaa" d="M309.12,-501.5C309.12,-501.5 310.33,-474.49 311.55,-447.36"/>
<polygon fill="#aaaaaa" stroke="#aaaaaa" points="315.03,-447.86 311.98,-437.72 308.03,-447.55 315.03,-447.86"/>
</g>
<!-- 2&#45;10&#45;&gt;2&#45;6 -->
<g id="edge36" class="edge">
<title>2&#45;10:e1&#45;&gt;2&#45;6</title>
<path fill="none" stroke="#aaaaaa" d="M298.62,-402.75C298.62,-402.75 282.22,-399.85 266.07,-396.99"/>
<polygon fill="#aaaaaa" stroke="#aaaaaa" points="267.08,-393.62 256.62,-395.32 265.86,-400.51 267.08,-393.62"/>
</g>
<!-- 2&#45;10&#45;&gt;2&#45;8 -->
<g id="edge37" class="edge">
<title>2&#45;10:e2&#45;&gt;2&#45;8</title>
<path fill="none" stroke="#aaaaaa" d="M297.62,-380.25C297.62,-380.25 276.2,-332.17 258.21,-291.82"/>
<polygon fill="#aaaaaa" stroke="#aaaaaa" points="261.49,-290.59 254.22,-282.88 255.1,-293.44 261.49,-290.59"/>
</g>
<!-- 2&#45;10&#45;&gt;2&#45;11 -->
<g id="edge38" class="edge">
<title>2&#45;10:e3&#45;&gt;2&#45;11</title>
<path fill="none" stroke="#aaaaaa" d="M314,-346.5C314,-346.5 342.27,-300.5 362.09,-268.27"/>
<polygon fill="#aaaaaa" stroke="#aaaaaa" points="364.88,-270.42 367.13,-260.06 358.91,-266.75 364.88,-270.42"/>
</g>
<!-- 2&#45;10&#45;&gt;2&#45;13 -->
<!-- 2&#45;15 -->
<g id="node15" class="node">
<title>2&#45;15</title>
<polygon fill="none" stroke="white" points="451.62,-236.5 451.62,-259 482.38,-259 482.38,-236.5 451.62,-236.5"/>
<text xml:space="preserve" text-anchor="start" x="454.62" y="-243.25" font-family="Times New Roman,serif" font-size="14.00" fill="white">2&#45;15</text>
<polygon fill="none" stroke="white" points="451.62,-214 451.62,-236.5 467,-236.5 467,-214 451.62,-214"/>
<text xml:space="preserve" text-anchor="start" x="455.19" y="-220.75" font-family="Times New Roman,serif" font-size="14.00" fill="white">○</text>
<polygon fill="none" stroke="white" points="467,-214 467,-236.5 482.38,-236.5 482.38,-214 467,-214"/>
<text xml:space="preserve" text-anchor="start" x="470.56" y="-220.75" font-family="Times New Roman,serif" font-size="14.00" fill="white">○</text>
</g>
<!-- 2&#45;11&#45;&gt;2&#45;15 -->
<!-- 2&#45;11&#45;&gt;2&#45;15 -->
<!-- 2&#45;11&#45;&gt;boss_2_b -->
<g id="edge40" class="edge">
<title>2&#45;11:e2&#45;&gt;boss_2_b</title>
<path fill="none" stroke="#aaaaaa" d="M388.69,-213C388.69,-213 323.07,-161.53 282.43,-129.65"/>
<polygon fill="#aaaaaa" stroke="#aaaaaa" points="284.65,-126.94 274.62,-123.53 280.33,-132.45 284.65,-126.94"/>
</g>
<!-- boss_2_honey -->
<g id="node19" class="node">
<title>boss_2_honey</title>
<polygon fill="none" stroke="white" points="324,-104 324,-126.5 396,-126.5 396,-104 324,-104"/>
<text xml:space="preserve" text-anchor="start" x="327" y="-110.75" font-family="Times New Roman,serif" font-size="14.00" fill="white">Boss Honey</text>
<polygon fill="none" stroke="white" points="324,-81.5 324,-104 396,-104 396,-81.5 324,-81.5"/>
<text xml:space="preserve" text-anchor="start" x="355.88" y="-88.25" font-family="Times New Roman,serif" font-size="14.00" fill="white">○</text>
</g>
<!-- 2&#45;11&#45;&gt;boss_2_honey -->
<g id="edge39" class="edge">
<title>2&#45;11:e1&#45;&gt;boss_2_honey</title>
<path fill="none" stroke="#aaaaaa" d="M373.31,-213C373.31,-213 367.92,-169.22 364,-137.41"/>
<polygon fill="#aaaaaa" stroke="#aaaaaa" points="367.51,-137.34 362.82,-127.84 360.57,-138.19 367.51,-137.34"/>
</g>
<!-- 2&#45;12 -->
<g id="node12" class="node">
<title>2&#45;12</title>
<polygon fill="none" stroke="white" points="366.62,-524 366.62,-546.5 409.38,-546.5 409.38,-524 366.62,-524"/>
<text xml:space="preserve" text-anchor="start" x="375.62" y="-530.75" font-family="Times New Roman,serif" font-size="14.00" fill="white">2&#45;12</text>
<polygon fill="none" stroke="white" points="366.62,-501.5 366.62,-524 380.88,-524 380.88,-501.5 366.62,-501.5"/>
<text xml:space="preserve" text-anchor="start" x="369.62" y="-508.25" font-family="Times New Roman,serif" font-size="14.00" fill="white">○</text>
<polygon fill="none" stroke="white" points="380.88,-501.5 380.88,-524 395.12,-524 395.12,-501.5 380.88,-501.5"/>
<text xml:space="preserve" text-anchor="start" x="383.88" y="-508.25" font-family="Times New Roman,serif" font-size="14.00" fill="white">○</text>
<polygon fill="none" stroke="white" points="395.12,-501.5 395.12,-524 409.38,-524 409.38,-501.5 395.12,-501.5"/>
<text xml:space="preserve" text-anchor="start" x="398.12" y="-508.25" font-family="Times New Roman,serif" font-size="14.00" fill="white">○</text>
</g>
<!-- 2&#45;12&#45;&gt;2&#45;10 -->
<g id="edge41" class="edge">
<title>2&#45;12:e1&#45;&gt;2&#45;10</title>
<path fill="none" stroke="#aaaaaa" d="M373.75,-501.5C373.75,-501.5 351.92,-461.67 334.65,-430.16"/>
<polygon fill="#aaaaaa" stroke="#aaaaaa" points="337.84,-428.7 329.96,-421.61 331.7,-432.07 337.84,-428.7"/>
</g>
<!-- 2&#45;12&#45;&gt;2&#45;13 -->
<g id="edge42" class="edge">
<title>2&#45;12:e2&#45;&gt;2&#45;13</title>
<path fill="none" stroke="#aaaaaa" d="M388,-501.5C388,-501.5 388,-457.08 388,-424.95"/>
<polygon fill="#aaaaaa" stroke="#aaaaaa" points="391.5,-425.29 388,-415.29 384.5,-425.29 391.5,-425.29"/>
</g>
<!-- 2&#45;14 -->
<g id="node14" class="node">
<title>2&#45;14</title>
<polygon fill="none" stroke="white" points="446.62,-391.5 446.62,-414 489.38,-414 489.38,-391.5 446.62,-391.5"/>
<text xml:space="preserve" text-anchor="start" x="455.62" y="-398.25" font-family="Times New Roman,serif" font-size="14.00" fill="white">2&#45;14</text>
<polygon fill="none" stroke="white" points="446.62,-369 446.62,-391.5 460.88,-391.5 460.88,-369 446.62,-369"/>
<text xml:space="preserve" text-anchor="start" x="449.62" y="-375.75" font-family="Times New Roman,serif" font-size="14.00" fill="white">○</text>
<polygon fill="none" stroke="white" points="460.88,-369 460.88,-391.5 475.12,-391.5 475.12,-369 460.88,-369"/>
<text xml:space="preserve" text-anchor="start" x="463.88" y="-375.75" font-family="Times New Roman,serif" font-size="14.00" fill="white">○</text>
<polygon fill="none" stroke="white" points="475.12,-369 475.12,-391.5 489.38,-391.5 489.38,-369 475.12,-369"/>
<text xml:space="preserve" text-anchor="start" x="478.12" y="-375.75" font-family="Times New Roman,serif" font-size="14.00" fill="white">○</text>
</g>
<!-- 2&#45;12&#45;&gt;2&#45;14 -->
<g id="edge43" class="edge">
<title>2&#45;12:e3&#45;&gt;2&#45;14</title>
<path fill="none" stroke="#aaaaaa" d="M402.25,-501.5C402.25,-501.5 429.99,-455.5 449.44,-423.27"/>
<polygon fill="#aaaaaa" stroke="#aaaaaa" points="452.22,-425.44 454.38,-415.07 446.22,-421.83 452.22,-425.44"/>
</g>
<!-- 2&#45;13&#45;&gt;2&#45;11 -->
<g id="edge44" class="edge">
<title>2&#45;13:e1&#45;&gt;2&#45;11</title>
<path fill="none" stroke="#aaaaaa" d="M380.31,-368C380.31,-368 380.62,-308.91 380.83,-270.25"/>
<polygon fill="#aaaaaa" stroke="#aaaaaa" points="384.33,-270.29 380.88,-260.27 377.33,-270.25 384.33,-270.29"/>
</g>
<!-- 2&#45;13&#45;&gt;2&#45;14 -->
<!-- 2&#45;13&#45;&gt;2&#45;14 -->
<!-- 2&#45;13&#45;&gt;2&#45;14 -->
<g id="edge45" class="edge">
<title>2&#45;13:e2&#45;&gt;2&#45;14</title>
<path fill="none" stroke="#aaaaaa" d="M403.38,-380.25C403.38,-380.25 419.78,-383.15 435.93,-386.01"/>
<polygon fill="#aaaaaa" stroke="#aaaaaa" points="434.92,-389.38 445.38,-387.68 436.14,-382.49 434.92,-389.38"/>
</g>
<!-- 2&#45;14&#45;&gt;2&#45;11 -->
<g id="edge47" class="edge">
<title>2&#45;14:e2&#45;&gt;2&#45;11</title>
<path fill="none" stroke="#aaaaaa" d="M468,-368C468,-368 427.06,-306.59 401.35,-268.02"/>
<polygon fill="#aaaaaa" stroke="#aaaaaa" points="404.47,-266.4 396.01,-260.02 398.65,-270.28 404.47,-266.4"/>
</g>
<!-- 2&#45;14&#45;&gt;2&#45;13 -->
<g id="edge46" class="edge">
<title>2&#45;14:e1&#45;&gt;2&#45;13</title>
<path fill="none" stroke="#aaaaaa" d="M446.62,-380.25C446.62,-380.25 429.91,-383.51 414.49,-386.52"/>
<polygon fill="#aaaaaa" stroke="#aaaaaa" points="413.87,-383.08 404.73,-388.43 415.22,-389.95 413.87,-383.08"/>
</g>
<!-- 2&#45;14&#45;&gt;2&#45;15 -->
<g id="edge48" class="edge">
<title>2&#45;14:e3&#45;&gt;2&#45;15</title>
<path fill="none" stroke="#aaaaaa" d="M482.25,-368C482.25,-368 475.31,-308.65 470.8,-270"/>
<polygon fill="#aaaaaa" stroke="#aaaaaa" points="474.3,-269.79 469.66,-260.26 467.34,-270.6 474.3,-269.79"/>
</g>
<!-- ra -->
<!-- 2&#45;14&#45;&gt;ra -->
<!-- 2&#45;15&#45;&gt;2&#45;11 -->
<g id="edge50" class="edge">
<title>2&#45;15:e2&#45;&gt;2&#45;11</title>
<path fill="none" stroke="#aaaaaa" d="M474.69,-213C474.69,-213 451.62,-214 451.62,-214 451.62,-214 426.8,-222.02 406.8,-228.49"/>
<polygon fill="#aaaaaa" stroke="#aaaaaa" points="405.97,-225.08 397.53,-231.48 408.12,-231.74 405.97,-225.08"/>
</g>
<!-- boss_2_gary -->
<g id="node18" class="node">
<title>boss_2_gary</title>
<polygon fill="none" stroke="white" points="439.5,-104 439.5,-126.5 502.5,-126.5 502.5,-104 439.5,-104"/>
<text xml:space="preserve" text-anchor="start" x="442.5" y="-110.75" font-family="Times New Roman,serif" font-size="14.00" fill="white">Boss Gary</text>
<polygon fill="none" stroke="white" points="439.5,-81.5 439.5,-104 502.5,-104 502.5,-81.5 439.5,-81.5"/>
<text xml:space="preserve" text-anchor="start" x="466.88" y="-88.25" font-family="Times New Roman,serif" font-size="14.00" fill="white">○</text>
</g>
<!-- 2&#45;15&#45;&gt;boss_2_gary -->
<g id="edge49" class="edge">
<title>2&#45;15:e1&#45;&gt;boss_2_gary</title>
<path fill="none" stroke="#aaaaaa" d="M459.31,-213C459.31,-213 464.05,-169.22 467.49,-137.41"/>
<polygon fill="#aaaaaa" stroke="#aaaaaa" points="470.93,-138.16 468.53,-127.84 463.97,-137.41 470.93,-138.16"/>
</g>
<!-- ra2 -->
<!-- 2&#45;15&#45;&gt;ra2 -->
<!-- 3&#45;2 -->
<g id="node24" class="node">
<title>3&#45;2</title>
<text xml:space="preserve" text-anchor="middle" x="87" y="-3.2" font-family="Times New Roman,serif" font-size="14.00" fill="white">3&#45;2</text>
</g>
<!-- boss_2_a&#45;&gt;3&#45;2 -->
<g id="edge51" class="edge">
<title>boss_2_a:e1&#45;&gt;3&#45;2</title>
<path fill="none" stroke="#aaaaaa" d="M133,-81.5C133,-81.5 111.2,-47.26 97.62,-25.92"/>
<polygon fill="#aaaaaa" stroke="#aaaaaa" points="100.71,-24.27 92.39,-17.72 94.81,-28.03 100.71,-24.27"/>
</g>
<!-- 3&#45;3 -->
<g id="node25" class="node">
<title>3&#45;3</title>
<text xml:space="preserve" text-anchor="middle" x="148" y="-3.2" font-family="Times New Roman,serif" font-size="14.00" fill="white">3&#45;3</text>
</g>
<!-- boss_2_a&#45;&gt;3&#45;3 -->
<g id="edge52" class="edge">
<title>boss_2_a:e2&#45;&gt;3&#45;3</title>
<path fill="none" stroke="#aaaaaa" d="M148,-81.5C148,-81.5 148,-49.11 148,-27.71"/>
<polygon fill="#aaaaaa" stroke="#aaaaaa" points="151.5,-27.96 148,-17.96 144.5,-27.96 151.5,-27.96"/>
</g>
<!-- 3&#45;4 -->
<g id="node26" class="node">
<title>3&#45;4</title>
<text xml:space="preserve" text-anchor="middle" x="209" y="-3.2" font-family="Times New Roman,serif" font-size="14.00" fill="white">3&#45;4</text>
</g>
<!-- boss_2_a&#45;&gt;3&#45;4 -->
<g id="edge53" class="edge">
<title>boss_2_a:e3&#45;&gt;3&#45;4</title>
<path fill="none" stroke="#aaaaaa" d="M163,-81.5C163,-81.5 184.8,-47.26 198.38,-25.92"/>
<polygon fill="#aaaaaa" stroke="#aaaaaa" points="201.19,-28.03 203.61,-17.72 195.29,-24.27 201.19,-28.03"/>
</g>
<!-- boss_2_b&#45;&gt;3&#45;4 -->
<g id="edge54" class="edge">
<title>boss_2_b:e1&#45;&gt;3&#45;4</title>
<path fill="none" stroke="#aaaaaa" d="M239.75,-81.5C239.75,-81.5 225.57,-48.19 216.47,-26.81"/>
<polygon fill="#aaaaaa" stroke="#aaaaaa" points="219.79,-25.67 212.65,-17.83 213.35,-28.41 219.79,-25.67"/>
</g>
<!-- 3&#45;5 -->
<g id="node27" class="node">
<title>3&#45;5</title>
<text xml:space="preserve" text-anchor="middle" x="270" y="-3.2" font-family="Times New Roman,serif" font-size="14.00" fill="white">3&#45;5</text>
</g>
<!-- boss_2_b&#45;&gt;3&#45;5 -->
<g id="edge55" class="edge">
<title>boss_2_b:e2&#45;&gt;3&#45;5</title>
<path fill="none" stroke="#aaaaaa" d="M262.25,-81.5C262.25,-81.5 265.72,-49.11 268.02,-27.71"/>
<polygon fill="#aaaaaa" stroke="#aaaaaa" points="271.48,-28.26 269.07,-17.95 264.52,-27.52 271.48,-28.26"/>
</g>
<!-- 3&#45;1 -->
<g id="node28" class="node">
<title>3&#45;1</title>
<text xml:space="preserve" text-anchor="middle" x="471" y="-3.2" font-family="Times New Roman,serif" font-size="14.00" fill="white">3&#45;1</text>
</g>
<!-- boss_2_gary&#45;&gt;3&#45;1 -->
<g id="edge56" class="edge">
<title>boss_2_gary:e1&#45;&gt;3&#45;1</title>
<path fill="none" stroke="#aaaaaa" d="M471,-81.5C471,-81.5 471,-49.11 471,-27.71"/>
<polygon fill="#aaaaaa" stroke="#aaaaaa" points="474.5,-27.96 471,-17.96 467.5,-27.96 474.5,-27.96"/>
</g>
<!-- 3&#45;13 -->
<g id="node29" class="node">
<title>3&#45;13</title>
<text xml:space="preserve" text-anchor="middle" x="360" y="-3.2" font-family="Times New Roman,serif" font-size="14.00" fill="white">3&#45;13</text>
</g>
<!-- boss_2_honey&#45;&gt;3&#45;13 -->
<g id="edge57" class="edge">
<title>boss_2_honey:e1&#45;&gt;3&#45;13</title>
<path fill="none" stroke="#aaaaaa" d="M360,-81.5C360,-81.5 360,-49.11 360,-27.71"/>
<polygon fill="#aaaaaa" stroke="#aaaaaa" points="363.5,-27.96 360,-17.96 356.5,-27.96 363.5,-27.96"/>
</g>
<!-- la -->
<!-- la&#45;&gt;2&#45;3 -->
<!-- la2 -->
<!-- la2&#45;&gt;2&#45;11 -->
</g>
<text x="99%" y="99%" text-anchor="end"
      font-family="Arial, sans-serif"
      font-size="9"
      fill="#777">
Kody • CC BY-SA 4.0
</text>
</svg>
