<?xml version="1.0" encoding="UTF-8" standalone="no"?>
<!DOCTYPE svg PUBLIC "-//W3C//DTD SVG 1.1//EN"
 "http://www.w3.org/Graphics/SVG/1.1/DTD/svg11.dtd">
<!-- Generated by graphviz version 14.1.3 (20260303.0454)
 -->
<!-- Title: cluster_zone1 Pages: 1 -->
<svg width="608pt" height="687pt"
 viewBox="0.00 0.00 608.00 687.00" xmlns="http://www.w3.org/2000/svg" xmlns:xlink="http://www.w3.org/1999/xlink">
 <metadata>
Author: Kody
License: CC BY-SA 4.0
https://creativecommons.org/licenses/by-sa/4.0/
</metadata>

<g id="graph0" class="graph" transform="scale(1 1) rotate(0) translate(4 683)">
<title>cluster_zone1</title>
<polygon fill="#1e1e1e" stroke="none" points="-4,4 -4,-683 604.25,-683 604.25,4 -4,4"/>
<!-- 1&#45;1 -->
<g id="node1" class="node">
<title>1&#45;1</title>
<polygon fill="none" stroke="white" points="163.38,-656.5 163.38,-679 206.12,-679 206.12,-656.5 163.38,-656.5"/>
<text xml:space="preserve" text-anchor="start" x="175.75" y="-663.25" font-family="Times New Roman,serif" font-size="14.00" fill="white">1&#45;1</text>
<polygon fill="none" stroke="white" points="163.38,-634 163.38,-656.5 177.62,-656.5 177.62,-634 163.38,-634"/>
<polygon fill="none" stroke="white" points="177.62,-634 177.62,-656.5 191.88,-656.5 191.88,-634 177.62,-634"/>
<text xml:space="preserve" text-anchor="start" x="180.62" y="-640.75" font-family="Times New Roman,serif" font-size="14.00" fill="white">○</text>
<polygon fill="none" stroke="white" points="191.88,-634 191.88,-656.5 206.12,-656.5 206.12,-634 191.88,-634"/>
<polygon fill="none" stroke="white" points="163.38,-611.5 163.38,-634 177.62,-634 177.62,-611.5 163.38,-611.5"/>
<text xml:space="preserve" text-anchor="start" x="166.38" y="-618.25" font-family="Times New Roman,serif" font-size="14.00" fill="white">○</text>
<polygon fill="none" stroke="white" points="177.62,-611.5 177.62,-634 191.88,-634 191.88,-611.5 177.62,-611.5"/>
<polygon fill="none" stroke="white" points="191.88,-611.5 191.88,-634 206.12,-634 206.12,-611.5 191.88,-611.5"/>
<text xml:space="preserve" text-anchor="start" x="194.88" y="-618.25" font-family="Times New Roman,serif" font-size="14.00" fill="white">○</text>
</g>
<!-- 1&#45;2 -->
<g id="node2" class="node">
<title>1&#45;2</title>
<polygon fill="none" stroke="white" points="92.5,-524 92.5,-546.5 121,-546.5 121,-524 92.5,-524"/>
<text xml:space="preserve" text-anchor="start" x="97.75" y="-530.75" font-family="Times New Roman,serif" font-size="14.00" fill="white">1&#45;2</text>
<polygon fill="none" stroke="white" points="92.5,-501.5 92.5,-524 106.75,-524 106.75,-501.5 92.5,-501.5"/>
<text xml:space="preserve" text-anchor="start" x="95.5" y="-508.25" font-family="Times New Roman,serif" font-size="14.00" fill="white">○</text>
<polygon fill="none" stroke="white" points="106.75,-501.5 106.75,-524 121,-524 121,-501.5 106.75,-501.5"/>
<text xml:space="preserve" text-anchor="start" x="109.75" y="-508.25" font-family="Times New Roman,serif" font-size="14.00" fill="white">○</text>
</g>
<!-- 1&#45;1&#45;&gt;1&#45;2 -->
<g id="edge2" class="edge">
<title>1&#45;1:e2&#45;&gt;1&#45;2</title>
<path fill="none" stroke="#aaaaaa" d="M170.5,-611.5C170.5,-611.5 146.27,-578.62 127.68,-553.4"/>
<polygon fill="#aaaaaa" stroke="#aaaaaa" points="130.55,-551.39 121.8,-545.42 124.91,-555.54 130.55,-551.39"/>
</g>
<!-- 1&#45;5 -->
<g id="node5" class="node">
<title>1&#45;5</title>
<polygon fill="none" stroke="white" points="283.38,-645.25 283.38,-667.75 326.12,-667.75 326.12,-645.25 283.38,-645.25"/>
<text xml:space="preserve" text-anchor="start" x="295.75" y="-652" font-family="Times New Roman,serif" font-size="14.00" fill="white">1&#45;5</text>
<polygon fill="none" stroke="white" points="283.38,-622.75 283.38,-645.25 297.62,-645.25 297.62,-622.75 283.38,-622.75"/>
<text xml:space="preserve" text-anchor="start" x="286.38" y="-629.5" font-family="Times New Roman,serif" font-size="14.00" fill="white">○</text>
<polygon fill="none" stroke="white" points="297.62,-622.75 297.62,-645.25 311.88,-645.25 311.88,-622.75 297.62,-622.75"/>
<text xml:space="preserve" text-anchor="start" x="300.62" y="-629.5" font-family="Times New Roman,serif" font-size="14.00" fill="white">○</text>
<polygon fill="none" stroke="white" points="311.88,-622.75 311.88,-645.25 326.12,-645.25 326.12,-622.75 311.88,-622.75"/>
<text xml:space="preserve" text-anchor="start" x="314.88" y="-629.5" font-family="Times New Roman,serif" font-size="14.00" fill="white">○</text>
</g>
<!-- 1&#45;1&#45;&gt;1&#45;5 -->
<g id="edge1" class="edge">
<title>1&#45;1:e1&#45;&gt;1&#45;5</title>
<path fill="none" stroke="#aaaaaa" d="M191.76,-637.64C206.39,-629.43 244.67,-627.16 272.41,-630.82"/>
<polygon fill="#aaaaaa" stroke="#aaaaaa" points="271.61,-634.23 282.06,-632.49 272.81,-627.33 271.61,-634.23"/>
</g>
<!-- 1&#45;7 -->
<g id="node7" class="node">
<title>1&#45;7</title>
<polygon fill="none" stroke="white" points="250.75,-524 250.75,-546.5 274.75,-546.5 274.75,-524 250.75,-524"/>
<text xml:space="preserve" text-anchor="start" x="253.75" y="-530.75" font-family="Times New Roman,serif" font-size="14.00" fill="white">1&#45;7</text>
<polygon fill="none" stroke="white" points="250.75,-501.5 250.75,-524 274.75,-524 274.75,-501.5 250.75,-501.5"/>
<text xml:space="preserve" text-anchor="start" x="258.62" y="-508.25" font-family="Times New Roman,serif" font-size="14.00" fill="white">○</text>
</g>
<!-- 1&#45;1&#45;&gt;1&#45;7 -->
<g id="edge3" class="edge">
<title>1&#45;1:e3&#45;&gt;1&#45;7</title>
<path fill="none" stroke="#aaaaaa" d="M199,-611.5C199,-611.5 225.18,-575.98 243.98,-550.46"/>
<polygon fill="#aaaaaa" stroke="#aaaaaa" points="246.75,-552.61 249.86,-542.49 241.11,-548.46 246.75,-552.61"/>
</g>
<!-- 1&#45;2&#45;&gt;1&#45;1 -->
<g id="edge5" class="edge">
<title>1&#45;2:e2&#45;&gt;1&#45;1</title>
<path fill="none" stroke="#aaaaaa" d="M122,-512.75C122,-512.75 146.15,-563.36 164.48,-601.78"/>
<polygon fill="#aaaaaa" stroke="#aaaaaa" points="161.12,-602.86 168.59,-610.38 167.44,-599.85 161.12,-602.86"/>
</g>
<!-- 1&#45;3 -->
<g id="node3" class="node">
<title>1&#45;3</title>
<polygon fill="none" stroke="white" points="104.75,-391.5 104.75,-414 128.75,-414 128.75,-391.5 104.75,-391.5"/>
<text xml:space="preserve" text-anchor="start" x="107.75" y="-398.25" font-family="Times New Roman,serif" font-size="14.00" fill="white">1&#45;3</text>
<polygon fill="none" stroke="white" points="104.75,-369 104.75,-391.5 128.75,-391.5 128.75,-369 104.75,-369"/>
<text xml:space="preserve" text-anchor="start" x="112.62" y="-375.75" font-family="Times New Roman,serif" font-size="14.00" fill="white">○</text>
</g>
<!-- 1&#45;2&#45;&gt;1&#45;3 -->
<g id="edge4" class="edge">
<title>1&#45;2:e1&#45;&gt;1&#45;3</title>
<path fill="none" stroke="#aaaaaa" d="M99.62,-501.5C99.62,-501.5 106.6,-457.08 111.65,-424.95"/>
<polygon fill="#aaaaaa" stroke="#aaaaaa" points="115.08,-425.69 113.17,-415.27 108.16,-424.61 115.08,-425.69"/>
</g>
<!-- 1&#45;4 -->
<g id="node4" class="node">
<title>1&#45;4</title>
<polygon fill="none" stroke="white" points="171.5,-402.75 171.5,-425.25 200,-425.25 200,-402.75 171.5,-402.75"/>
<text xml:space="preserve" text-anchor="start" x="176.75" y="-409.5" font-family="Times New Roman,serif" font-size="14.00" fill="white">1&#45;4</text>
<polygon fill="none" stroke="white" points="171.5,-380.25 171.5,-402.75 185.75,-402.75 185.75,-380.25 171.5,-380.25"/>
<text xml:space="preserve" text-anchor="start" x="174.5" y="-387" font-family="Times New Roman,serif" font-size="14.00" fill="white">○</text>
<polygon fill="none" stroke="white" points="185.75,-380.25 185.75,-402.75 200,-402.75 200,-380.25 185.75,-380.25"/>
<polygon fill="none" stroke="white" points="171.5,-357.75 171.5,-380.25 185.75,-380.25 185.75,-357.75 171.5,-357.75"/>
<polygon fill="none" stroke="white" points="185.75,-357.75 185.75,-380.25 200,-380.25 200,-357.75 185.75,-357.75"/>
<text xml:space="preserve" text-anchor="start" x="188.75" y="-364.5" font-family="Times New Roman,serif" font-size="14.00" fill="white">○</text>
</g>
<!-- 1&#45;3&#45;&gt;1&#45;4 -->
<g id="edge6" class="edge">
<title>1&#45;3:e1&#45;&gt;1&#45;4</title>
<path fill="none" stroke="#aaaaaa" d="M128.75,-380.25C128.75,-368.36 145.89,-366.48 161.2,-370.83"/>
<polygon fill="#aaaaaa" stroke="#aaaaaa" points="159.77,-374.02 170.36,-374.47 162.36,-367.52 159.77,-374.02"/>
</g>
<!-- 1&#45;3&#45;&gt;1&#45;4 -->
<!-- 1&#45;14 -->
<g id="node14" class="node">
<title>1&#45;14</title>
<polygon fill="none" stroke="white" points="457.38,-391.5 457.38,-414 488.12,-414 488.12,-391.5 457.38,-391.5"/>
<text xml:space="preserve" text-anchor="start" x="460.38" y="-398.25" font-family="Times New Roman,serif" font-size="14.00" fill="white">1&#45;14</text>
<polygon fill="none" stroke="white" points="457.38,-369 457.38,-391.5 472.75,-391.5 472.75,-369 457.38,-369"/>
<text xml:space="preserve" text-anchor="start" x="460.94" y="-375.75" font-family="Times New Roman,serif" font-size="14.00" fill="white">○</text>
<polygon fill="none" stroke="white" points="472.75,-369 472.75,-391.5 488.12,-391.5 488.12,-369 472.75,-369"/>
<text xml:space="preserve" text-anchor="start" x="476.31" y="-375.75" font-family="Times New Roman,serif" font-size="14.00" fill="white">○</text>
</g>
<!-- 1&#45;3&#45;&gt;1&#45;14 -->
<!-- 1&#45;6 -->
<g id="node6" class="node">
<title>1&#45;6</title>
<polygon fill="none" stroke="white" points="243.25,-402.75 243.25,-425.25 300.25,-425.25 300.25,-402.75 243.25,-402.75"/>
<text xml:space="preserve" text-anchor="start" x="262.75" y="-409.5" font-family="Times New Roman,serif" font-size="14.00" fill="white">1&#45;6</text>
<polygon fill="none" stroke="white" points="243.25,-380.25 243.25,-402.75 257.5,-402.75 257.5,-380.25 243.25,-380.25"/>
<text xml:space="preserve" text-anchor="start" x="246.25" y="-387" font-family="Times New Roman,serif" font-size="14.00" fill="white">○</text>
<polygon fill="none" stroke="white" points="257.5,-380.25 257.5,-402.75 271.75,-402.75 271.75,-380.25 257.5,-380.25"/>
<polygon fill="none" stroke="white" points="271.75,-380.25 271.75,-402.75 286,-402.75 286,-380.25 271.75,-380.25"/>
<text xml:space="preserve" text-anchor="start" x="274.75" y="-387" font-family="Times New Roman,serif" font-size="14.00" fill="white">○</text>
<polygon fill="none" stroke="white" points="286,-380.25 286,-402.75 300.25,-402.75 300.25,-380.25 286,-380.25"/>
<polygon fill="none" stroke="white" points="243.25,-357.75 243.25,-380.25 257.5,-380.25 257.5,-357.75 243.25,-357.75"/>
<polygon fill="none" stroke="white" points="257.5,-357.75 257.5,-380.25 271.75,-380.25 271.75,-357.75 257.5,-357.75"/>
<text xml:space="preserve" text-anchor="start" x="260.5" y="-364.5" font-family="Times New Roman,serif" font-size="14.00" fill="white">○</text>
<polygon fill="none" stroke="white" points="271.75,-357.75 271.75,-380.25 286,-380.25 286,-357.75 271.75,-357.75"/>
<polygon fill="none" stroke="white" points="286,-357.75 286,-380.25 300.25,-380.25 300.25,-357.75 286,-357.75"/>
<text xml:space="preserve" text-anchor="start" x="289" y="-364.5" font-family="Times New Roman,serif" font-size="14.00" fill="white">○</text>
</g>
<!-- 1&#45;4&#45;&gt;1&#45;6 -->
<g id="edge7" class="edge">
<title>1&#45;4:e1&#45;&gt;1&#45;6</title>
<path fill="none" stroke="#aaaaaa" d="M170.5,-391.5C170.5,-370 171.5,-403.75 171.5,-403.75 171.5,-403.75 200,-403.75 200,-403.75 200,-403.75 215.91,-396.16 232.64,-390.47"/>
<polygon fill="#aaaaaa" stroke="#aaaaaa" points="233.62,-393.83 242.15,-387.55 231.56,-387.14 233.62,-393.83"/>
</g>
<!-- 1&#45;4&#45;&gt;1&#45;6 -->
<!-- 1&#45;9 -->
<g id="node9" class="node">
<title>1&#45;9</title>
<polygon fill="none" stroke="white" points="156.38,-236.5 156.38,-259 199.12,-259 199.12,-236.5 156.38,-236.5"/>
<text xml:space="preserve" text-anchor="start" x="168.75" y="-243.25" font-family="Times New Roman,serif" font-size="14.00" fill="white">1&#45;9</text>
<polygon fill="none" stroke="white" points="156.38,-214 156.38,-236.5 170.62,-236.5 170.62,-214 156.38,-214"/>
<text xml:space="preserve" text-anchor="start" x="159.38" y="-220.75" font-family="Times New Roman,serif" font-size="14.00" fill="white">○</text>
<polygon fill="none" stroke="white" points="170.62,-214 170.62,-236.5 184.88,-236.5 184.88,-214 170.62,-214"/>
<text xml:space="preserve" text-anchor="start" x="173.62" y="-220.75" font-family="Times New Roman,serif" font-size="14.00" fill="white">○</text>
<polygon fill="none" stroke="white" points="184.88,-214 184.88,-236.5 199.12,-236.5 199.12,-214 184.88,-214"/>
<text xml:space="preserve" text-anchor="start" x="187.88" y="-220.75" font-family="Times New Roman,serif" font-size="14.00" fill="white">○</text>
</g>
<!-- 1&#45;4&#45;&gt;1&#45;9 -->
<g id="edge8" class="edge">
<title>1&#45;4:e2&#45;&gt;1&#45;9</title>
<path fill="none" stroke="#aaaaaa" d="M192.88,-356.75C192.88,-356.75 186.36,-305.39 181.88,-270.08"/>
<polygon fill="#aaaaaa" stroke="#aaaaaa" points="185.38,-269.8 180.64,-260.32 178.43,-270.68 185.38,-269.8"/>
</g>
<!-- 1&#45;5&#45;&gt;1&#45;4 -->
<g id="edge9" class="edge">
<title>1&#45;5:e1&#45;&gt;1&#45;4</title>
<path fill="none" stroke="#aaaaaa" d="M290.5,-621.75C290.5,-621.75 229.75,-546.5 229.75,-546.5 229.75,-546.5 211.18,-481.52 198.17,-435.98"/>
<polygon fill="#aaaaaa" stroke="#aaaaaa" points="201.61,-435.27 195.5,-426.61 194.88,-437.19 201.61,-435.27"/>
</g>
<!-- 1&#45;5&#45;&gt;1&#45;6 -->
<g id="edge10" class="edge">
<title>1&#45;5:e2&#45;&gt;1&#45;6</title>
<path fill="none" stroke="#aaaaaa" d="M304.75,-621.75C304.75,-621.75 296.75,-501.5 296.75,-501.5 296.75,-501.5 288.71,-466.45 281.75,-436.1"/>
<polygon fill="#aaaaaa" stroke="#aaaaaa" points="285.24,-435.64 279.59,-426.68 278.41,-437.21 285.24,-435.64"/>
</g>
<!-- 1&#45;8 -->
<g id="node8" class="node">
<title>1&#45;8</title>
<polygon fill="none" stroke="white" points="343.12,-414 343.12,-436.5 414.38,-436.5 414.38,-414 343.12,-414"/>
<text xml:space="preserve" text-anchor="start" x="369.75" y="-420.75" font-family="Times New Roman,serif" font-size="14.00" fill="white">1&#45;8</text>
<polygon fill="none" stroke="white" points="343.12,-391.5 343.12,-414 357.38,-414 357.38,-391.5 343.12,-391.5"/>
<text xml:space="preserve" text-anchor="start" x="346.12" y="-398.25" font-family="Times New Roman,serif" font-size="14.00" fill="white">○</text>
<polygon fill="none" stroke="white" points="357.38,-391.5 357.38,-414 371.62,-414 371.62,-391.5 357.38,-391.5"/>
<polygon fill="none" stroke="white" points="371.62,-391.5 371.62,-414 385.88,-414 385.88,-391.5 371.62,-391.5"/>
<polygon fill="none" stroke="white" points="385.88,-391.5 385.88,-414 400.12,-414 400.12,-391.5 385.88,-391.5"/>
<polygon fill="none" stroke="white" points="400.12,-391.5 400.12,-414 414.38,-414 414.38,-391.5 400.12,-391.5"/>
<text xml:space="preserve" text-anchor="start" x="403.12" y="-398.25" font-family="Times New Roman,serif" font-size="14.00" fill="white">○</text>
<polygon fill="none" stroke="white" points="343.12,-369 343.12,-391.5 357.38,-391.5 357.38,-369 343.12,-369"/>
<polygon fill="none" stroke="white" points="357.38,-369 357.38,-391.5 371.62,-391.5 371.62,-369 357.38,-369"/>
<polygon fill="none" stroke="white" points="371.62,-369 371.62,-391.5 385.88,-391.5 385.88,-369 371.62,-369"/>
<text xml:space="preserve" text-anchor="start" x="374.62" y="-375.75" font-family="Times New Roman,serif" font-size="14.00" fill="white">○</text>
<polygon fill="none" stroke="white" points="385.88,-369 385.88,-391.5 400.12,-391.5 400.12,-369 385.88,-369"/>
<polygon fill="none" stroke="white" points="400.12,-369 400.12,-391.5 414.38,-391.5 414.38,-369 400.12,-369"/>
<polygon fill="none" stroke="white" points="343.12,-346.5 343.12,-369 357.38,-369 357.38,-346.5 343.12,-346.5"/>
<polygon fill="none" stroke="white" points="357.38,-346.5 357.38,-369 371.62,-369 371.62,-346.5 357.38,-346.5"/>
<text xml:space="preserve" text-anchor="start" x="360.38" y="-353.25" font-family="Times New Roman,serif" font-size="14.00" fill="white">○</text>
<polygon fill="none" stroke="white" points="371.62,-346.5 371.62,-369 385.88,-369 385.88,-346.5 371.62,-346.5"/>
<polygon fill="none" stroke="white" points="385.88,-346.5 385.88,-369 400.12,-369 400.12,-346.5 385.88,-346.5"/>
<text xml:space="preserve" text-anchor="start" x="388.88" y="-353.25" font-family="Times New Roman,serif" font-size="14.00" fill="white">○</text>
<polygon fill="none" stroke="white" points="400.12,-346.5 400.12,-369 414.38,-369 414.38,-346.5 400.12,-346.5"/>
</g>
<!-- 1&#45;5&#45;&gt;1&#45;8 -->
<g id="edge11" class="edge">
<title>1&#45;5:e3&#45;&gt;1&#45;8</title>
<path fill="none" stroke="#aaaaaa" d="M319,-621.75C319,-621.75 346.77,-515.19 364.45,-447.37"/>
<polygon fill="#aaaaaa" stroke="#aaaaaa" points="367.78,-448.45 366.92,-437.9 361.01,-446.69 367.78,-448.45"/>
</g>
<!-- 1&#45;6&#45;&gt;1&#45;4 -->
<g id="edge12" class="edge">
<title>1&#45;6:e1&#45;&gt;1&#45;4</title>
<path fill="none" stroke="#aaaaaa" d="M243.25,-391.5C243.25,-391.5 226.29,-391.5 210.96,-391.5"/>
<polygon fill="#aaaaaa" stroke="#aaaaaa" points="211.37,-388 201.37,-391.5 211.37,-395 211.37,-388"/>
</g>
<!-- 1&#45;6&#45;&gt;1&#45;8 -->
<g id="edge13" class="edge">
<title>1&#45;6:e2&#45;&gt;1&#45;8</title>
<path fill="none" stroke="#aaaaaa" d="M286,-383.17C295.31,-377.66 313.86,-375.07 331.86,-375.4"/>
<polygon fill="#aaaaaa" stroke="#aaaaaa" points="331.52,-378.89 341.69,-375.93 331.9,-371.9 331.52,-378.89"/>
</g>
<!-- 1&#45;6&#45;&gt;1&#45;8 -->
<!-- 1&#45;10 -->
<g id="node10" class="node">
<title>1&#45;10</title>
<polygon fill="none" stroke="white" points="242.38,-236.5 242.38,-259 273.12,-259 273.12,-236.5 242.38,-236.5"/>
<text xml:space="preserve" text-anchor="start" x="245.38" y="-243.25" font-family="Times New Roman,serif" font-size="14.00" fill="white">1&#45;10</text>
<polygon fill="none" stroke="white" points="242.38,-214 242.38,-236.5 257.75,-236.5 257.75,-214 242.38,-214"/>
<text xml:space="preserve" text-anchor="start" x="245.94" y="-220.75" font-family="Times New Roman,serif" font-size="14.00" fill="white">○</text>
<polygon fill="none" stroke="white" points="257.75,-214 257.75,-236.5 273.12,-236.5 273.12,-214 257.75,-214"/>
<text xml:space="preserve" text-anchor="start" x="261.31" y="-220.75" font-family="Times New Roman,serif" font-size="14.00" fill="white">○</text>
</g>
<!-- 1&#45;6&#45;&gt;1&#45;10 -->
<g id="edge14" class="edge">
<title>1&#45;6:e3&#45;&gt;1&#45;10</title>
<path fill="none" stroke="#aaaaaa" d="M264.62,-356.75C264.62,-356.75 261.66,-305.39 259.63,-270.08"/>
<polygon fill="#aaaaaa" stroke="#aaaaaa" points="263.14,-270.11 259.07,-260.33 256.15,-270.52 263.14,-270.11"/>
</g>
<!-- 1&#45;12 -->
<g id="node12" class="node">
<title>1&#45;12</title>
<polygon fill="none" stroke="white" points="316.38,-236.5 316.38,-259 347.12,-259 347.12,-236.5 316.38,-236.5"/>
<text xml:space="preserve" text-anchor="start" x="319.38" y="-243.25" font-family="Times New Roman,serif" font-size="14.00" fill="white">1&#45;12</text>
<polygon fill="none" stroke="white" points="316.38,-214 316.38,-236.5 331.75,-236.5 331.75,-214 316.38,-214"/>
<text xml:space="preserve" text-anchor="start" x="319.94" y="-220.75" font-family="Times New Roman,serif" font-size="14.00" fill="white">○</text>
<polygon fill="none" stroke="white" points="331.75,-214 331.75,-236.5 347.12,-236.5 347.12,-214 331.75,-214"/>
<text xml:space="preserve" text-anchor="start" x="335.31" y="-220.75" font-family="Times New Roman,serif" font-size="14.00" fill="white">○</text>
</g>
<!-- 1&#45;6&#45;&gt;1&#45;12 -->
<g id="edge15" class="edge">
<title>1&#45;6:e4&#45;&gt;1&#45;12</title>
<path fill="none" stroke="#aaaaaa" d="M293.12,-356.75C293.12,-356.75 309.91,-304.94 321.35,-269.62"/>
<polygon fill="#aaaaaa" stroke="#aaaaaa" points="324.63,-270.85 324.38,-260.26 317.97,-268.69 324.63,-270.85"/>
</g>
<!-- 1&#45;7&#45;&gt;1&#45;8 -->
<g id="edge16" class="edge">
<title>1&#45;7:e1&#45;&gt;1&#45;8</title>
<path fill="none" stroke="#aaaaaa" d="M275.75,-512.75C275.75,-512.75 307.57,-475.6 335.84,-442.6"/>
<polygon fill="#aaaaaa" stroke="#aaaaaa" points="338.47,-444.9 342.32,-435.03 333.16,-440.35 338.47,-444.9"/>
</g>
<!-- 1&#45;8&#45;&gt;1&#45;6 -->
<g id="edge17" class="edge">
<title>1&#45;8:e1&#45;&gt;1&#45;6</title>
<path fill="none" stroke="#aaaaaa" d="M343.12,-402.75C343.12,-402.75 327.81,-400.3 311.46,-397.69"/>
<polygon fill="#aaaaaa" stroke="#aaaaaa" points="312.08,-394.24 301.65,-396.12 310.98,-401.16 312.08,-394.24"/>
</g>
<!-- 1&#45;8&#45;&gt;1&#45;12 -->
<g id="edge20" class="edge">
<title>1&#45;8:e4&#45;&gt;1&#45;12</title>
<path fill="none" stroke="#aaaaaa" d="M364.5,-346.5C364.5,-346.5 351.04,-301.69 341.37,-269.53"/>
<polygon fill="#aaaaaa" stroke="#aaaaaa" points="344.81,-268.79 338.58,-260.22 338.1,-270.81 344.81,-268.79"/>
</g>
<!-- 1&#45;13 -->
<g id="node13" class="node">
<title>1&#45;13</title>
<polygon fill="none" stroke="white" points="390.38,-247.75 390.38,-270.25 421.12,-270.25 421.12,-247.75 390.38,-247.75"/>
<text xml:space="preserve" text-anchor="start" x="393.38" y="-254.5" font-family="Times New Roman,serif" font-size="14.00" fill="white">1&#45;13</text>
<polygon fill="none" stroke="white" points="390.38,-225.25 390.38,-247.75 405.75,-247.75 405.75,-225.25 390.38,-225.25"/>
<text xml:space="preserve" text-anchor="start" x="393.94" y="-232" font-family="Times New Roman,serif" font-size="14.00" fill="white">○</text>
<polygon fill="none" stroke="white" points="405.75,-225.25 405.75,-247.75 421.12,-247.75 421.12,-225.25 405.75,-225.25"/>
<polygon fill="none" stroke="white" points="390.38,-202.75 390.38,-225.25 405.75,-225.25 405.75,-202.75 390.38,-202.75"/>
<polygon fill="none" stroke="white" points="405.75,-202.75 405.75,-225.25 421.12,-225.25 421.12,-202.75 405.75,-202.75"/>
<text xml:space="preserve" text-anchor="start" x="409.31" y="-209.5" font-family="Times New Roman,serif" font-size="14.00" fill="white">○</text>
</g>
<!-- 1&#45;8&#45;&gt;1&#45;13 -->
<g id="edge19" class="edge">
<title>1&#45;8:e3&#45;&gt;1&#45;13</title>
<path fill="none" stroke="#aaaaaa" d="M380.69,-369.06C384.16,-350.85 391.6,-311.77 397.48,-280.9"/>
<polygon fill="#aaaaaa" stroke="#aaaaaa" points="400.85,-281.92 399.28,-271.45 393.97,-280.61 400.85,-281.92"/>
</g>
<!-- 1&#45;8&#45;&gt;1&#45;14 -->
<g id="edge18" class="edge">
<title>1&#45;8:e2&#45;&gt;1&#45;14</title>
<path fill="none" stroke="#aaaaaa" d="M414.38,-402.75C414.38,-391.17 431.01,-382.57 446.37,-380.45"/>
<polygon fill="#aaaaaa" stroke="#aaaaaa" points="446.15,-383.95 456.05,-380.19 445.96,-376.96 446.15,-383.95"/>
</g>
<!-- 1&#45;8&#45;&gt;1&#45;14 -->
<!-- 1&#45;15 -->
<g id="node15" class="node">
<title>1&#45;15</title>
<polygon fill="none" stroke="white" points="464.38,-236.5 464.38,-259 495.12,-259 495.12,-236.5 464.38,-236.5"/>
<text xml:space="preserve" text-anchor="start" x="467.38" y="-243.25" font-family="Times New Roman,serif" font-size="14.00" fill="white">1&#45;15</text>
<polygon fill="none" stroke="white" points="464.38,-214 464.38,-236.5 495.12,-236.5 495.12,-214 464.38,-214"/>
<text xml:space="preserve" text-anchor="start" x="475.62" y="-220.75" font-family="Times New Roman,serif" font-size="14.00" fill="white">○</text>
</g>
<!-- 1&#45;8&#45;&gt;1&#45;15 -->
<g id="edge21" class="edge">
<title>1&#45;8:e5&#45;&gt;1&#45;15</title>
<path fill="none" stroke="#aaaaaa" d="M393,-346.5C393,-346.5 431.88,-297.65 457.58,-265.35"/>
<polygon fill="#aaaaaa" stroke="#aaaaaa" points="460.01,-267.92 463.5,-257.92 454.53,-263.57 460.01,-267.92"/>
</g>
<!-- 1&#45;9&#45;&gt;1&#45;10 -->
<g id="edge24" class="edge">
<title>1&#45;9:e3&#45;&gt;1&#45;10</title>
<path fill="none" stroke="#aaaaaa" d="M199.12,-225.25C199.12,-213.56 216.17,-211.55 231.71,-215.61"/>
<polygon fill="#aaaaaa" stroke="#aaaaaa" points="230.49,-218.89 241.09,-219.06 232.91,-212.32 230.49,-218.89"/>
</g>
<!-- 1&#45;9&#45;&gt;1&#45;10 -->
<!-- 1&#45;11 -->
<g id="node11" class="node">
<title>1&#45;11</title>
<polygon fill="none" stroke="white" points="82.38,-259 82.38,-281.5 113.12,-281.5 113.12,-259 82.38,-259"/>
<text xml:space="preserve" text-anchor="start" x="85.38" y="-265.75" font-family="Times New Roman,serif" font-size="14.00" fill="white">1&#45;11</text>
<polygon fill="none" stroke="white" points="82.38,-236.5 82.38,-259 113.12,-259 113.12,-236.5 82.38,-236.5"/>
<text xml:space="preserve" text-anchor="start" x="93.62" y="-243.25" font-family="Times New Roman,serif" font-size="14.00" fill="white">○</text>
<polygon fill="none" stroke="white" points="82.38,-214 82.38,-236.5 113.12,-236.5 113.12,-214 82.38,-214"/>
<text xml:space="preserve" text-anchor="start" x="93.62" y="-220.75" font-family="Times New Roman,serif" font-size="14.00" fill="white">○</text>
<polygon fill="none" stroke="white" points="82.38,-191.5 82.38,-214 113.12,-214 113.12,-191.5 82.38,-191.5"/>
<text xml:space="preserve" text-anchor="start" x="93.62" y="-198.25" font-family="Times New Roman,serif" font-size="14.00" fill="white">○</text>
</g>
<!-- 1&#45;9&#45;&gt;1&#45;11 -->
<g id="edge22" class="edge">
<title>1&#45;9:e1&#45;&gt;1&#45;11</title>
<path fill="none" stroke="#aaaaaa" d="M156.38,-225.25C156.38,-225.25 139.66,-228.51 124.24,-231.52"/>
<polygon fill="#aaaaaa" stroke="#aaaaaa" points="123.62,-228.08 114.48,-233.43 124.97,-234.95 123.62,-228.08"/>
</g>
<!-- 1&#45;9&#45;&gt;1&#45;15 -->
<!-- boss_1_a -->
<g id="node16" class="node">
<title>boss_1_a</title>
<polygon fill="none" stroke="white" points="155.25,-104 155.25,-126.5 200.25,-126.5 200.25,-104 155.25,-104"/>
<text xml:space="preserve" text-anchor="start" x="158.25" y="-110.75" font-family="Times New Roman,serif" font-size="14.00" fill="white">Boss A</text>
<polygon fill="none" stroke="white" points="155.25,-81.5 155.25,-104 177.75,-104 177.75,-81.5 155.25,-81.5"/>
<text xml:space="preserve" text-anchor="start" x="162.38" y="-88.25" font-family="Times New Roman,serif" font-size="14.00" fill="white">○</text>
<polygon fill="none" stroke="white" points="177.75,-81.5 177.75,-104 200.25,-104 200.25,-81.5 177.75,-81.5"/>
<text xml:space="preserve" text-anchor="start" x="184.88" y="-88.25" font-family="Times New Roman,serif" font-size="14.00" fill="white">○</text>
</g>
<!-- 1&#45;9&#45;&gt;boss_1_a -->
<g id="edge23" class="edge">
<title>1&#45;9:e2&#45;&gt;boss_1_a</title>
<path fill="none" stroke="#aaaaaa" d="M177.75,-213C177.75,-213 177.75,-169.61 177.75,-137.83"/>
<polygon fill="#aaaaaa" stroke="#aaaaaa" points="181.25,-137.85 177.75,-127.85 174.25,-137.85 181.25,-137.85"/>
</g>
<!-- 1&#45;10&#45;&gt;1&#45;9 -->
<g id="edge25" class="edge">
<title>1&#45;10:e1&#45;&gt;1&#45;9</title>
<path fill="none" stroke="#aaaaaa" d="M242.38,-225.25C242.38,-225.25 225.97,-228.15 209.82,-231.01"/>
<polygon fill="#aaaaaa" stroke="#aaaaaa" points="209.61,-227.49 200.37,-232.68 210.83,-234.38 209.61,-227.49"/>
</g>
<!-- 1&#45;10&#45;&gt;1&#45;12 -->
<!-- boss_1_b -->
<g id="node17" class="node">
<title>boss_1_b</title>
<polygon fill="none" stroke="white" points="302.25,-104 302.25,-126.5 347.25,-126.5 347.25,-104 302.25,-104"/>
<text xml:space="preserve" text-anchor="start" x="305.25" y="-110.75" font-family="Times New Roman,serif" font-size="14.00" fill="white">Boss B</text>
<polygon fill="none" stroke="white" points="302.25,-81.5 302.25,-104 324.75,-104 324.75,-81.5 302.25,-81.5"/>
<text xml:space="preserve" text-anchor="start" x="309.38" y="-88.25" font-family="Times New Roman,serif" font-size="14.00" fill="white">○</text>
<polygon fill="none" stroke="white" points="324.75,-81.5 324.75,-104 347.25,-104 347.25,-81.5 324.75,-81.5"/>
<text xml:space="preserve" text-anchor="start" x="331.88" y="-88.25" font-family="Times New Roman,serif" font-size="14.00" fill="white">○</text>
</g>
<!-- 1&#45;10&#45;&gt;boss_1_b -->
<g id="edge26" class="edge">
<title>1&#45;10:e2&#45;&gt;boss_1_b</title>
<path fill="none" stroke="#aaaaaa" d="M265.44,-213C265.44,-213 290.12,-168.06 307.64,-136.16"/>
<polygon fill="#aaaaaa" stroke="#aaaaaa" points="310.56,-138.11 312.3,-127.66 304.42,-134.74 310.56,-138.11"/>
</g>
<!-- 1&#45;11&#45;&gt;1&#45;9 -->
<g id="edge27" class="edge">
<title>1&#45;11:e1&#45;&gt;1&#45;9</title>
<path fill="none" stroke="#aaaaaa" d="M113.12,-247.75C113.12,-221.04 137.67,-206.58 156.27,-209.76"/>
<polygon fill="#aaaaaa" stroke="#aaaaaa" points="154.83,-212.95 165.41,-213.5 157.47,-206.47 154.83,-212.95"/>
</g>
<!-- 1&#45;11&#45;&gt;1&#45;9 -->
<!-- 1&#45;11&#45;&gt;1&#45;9 -->
<!-- 1&#45;11&#45;&gt;boss_1_a -->
<g id="edge28" class="edge">
<title>1&#45;11:e2&#45;&gt;boss_1_a</title>
<path fill="none" stroke="#aaaaaa" d="M114.12,-225.25C114.12,-225.25 142.25,-172.1 161.1,-136.47"/>
<polygon fill="#aaaaaa" stroke="#aaaaaa" points="164.08,-138.31 165.67,-127.84 157.9,-135.04 164.08,-138.31"/>
</g>
<!-- boss_1_honey -->
<g id="node19" class="node">
<title>boss_1_honey</title>
<polygon fill="none" stroke="white" points="39.75,-104 39.75,-126.5 111.75,-126.5 111.75,-104 39.75,-104"/>
<text xml:space="preserve" text-anchor="start" x="42.75" y="-110.75" font-family="Times New Roman,serif" font-size="14.00" fill="white">Boss Honey</text>
<polygon fill="none" stroke="white" points="39.75,-81.5 39.75,-104 111.75,-104 111.75,-81.5 39.75,-81.5"/>
<text xml:space="preserve" text-anchor="start" x="71.62" y="-88.25" font-family="Times New Roman,serif" font-size="14.00" fill="white">○</text>
</g>
<!-- 1&#45;11&#45;&gt;boss_1_honey -->
<g id="edge29" class="edge">
<title>1&#45;11:e3&#45;&gt;boss_1_honey</title>
<path fill="none" stroke="#aaaaaa" d="M97.75,-191.5C97.75,-191.5 90.26,-162.06 84.02,-137.53"/>
<polygon fill="#aaaaaa" stroke="#aaaaaa" points="87.42,-136.68 81.56,-127.85 80.63,-138.4 87.42,-136.68"/>
</g>
<!-- 1&#45;12&#45;&gt;1&#45;13 -->
<g id="edge31" class="edge">
<title>1&#45;12:e2&#45;&gt;1&#45;13</title>
<path fill="none" stroke="#aaaaaa" d="M347.12,-225.25C347.12,-213.56 364.17,-211.55 379.71,-215.61"/>
<polygon fill="#aaaaaa" stroke="#aaaaaa" points="378.49,-218.89 389.09,-219.06 380.91,-212.32 378.49,-218.89"/>
</g>
<!-- 1&#45;12&#45;&gt;1&#45;13 -->
<!-- 1&#45;12&#45;&gt;boss_1_b -->
<g id="edge30" class="edge">
<title>1&#45;12:e1&#45;&gt;boss_1_b</title>
<path fill="none" stroke="#aaaaaa" d="M324.06,-213C324.06,-213 324.34,-169.61 324.54,-137.83"/>
<polygon fill="#aaaaaa" stroke="#aaaaaa" points="328.04,-137.87 324.6,-127.85 321.04,-137.83 328.04,-137.87"/>
</g>
<!-- 1&#45;13&#45;&gt;1&#45;12 -->
<g id="edge32" class="edge">
<title>1&#45;13:e1&#45;&gt;1&#45;12</title>
<path fill="none" stroke="#aaaaaa" d="M390.38,-236.5C390.38,-236.5 373.66,-236.5 358.24,-236.5"/>
<polygon fill="#aaaaaa" stroke="#aaaaaa" points="358.51,-233 348.51,-236.5 358.51,-240 358.51,-233"/>
</g>
<!-- 1&#45;13&#45;&gt;1&#45;15 -->
<!-- boss_1_c -->
<g id="node18" class="node">
<title>boss_1_c</title>
<polygon fill="none" stroke="white" points="390.25,-104 390.25,-126.5 435.25,-126.5 435.25,-104 390.25,-104"/>
<text xml:space="preserve" text-anchor="start" x="393.25" y="-110.75" font-family="Times New Roman,serif" font-size="14.00" fill="white">Boss C</text>
<polygon fill="none" stroke="white" points="390.25,-81.5 390.25,-104 435.25,-104 435.25,-81.5 390.25,-81.5"/>
<text xml:space="preserve" text-anchor="start" x="408.62" y="-88.25" font-family="Times New Roman,serif" font-size="14.00" fill="white">○</text>
</g>
<!-- 1&#45;13&#45;&gt;boss_1_c -->
<g id="edge33" class="edge">
<title>1&#45;13:e2&#45;&gt;boss_1_c</title>
<path fill="none" stroke="#aaaaaa" d="M413.44,-201.75C413.44,-201.75 413.18,-165.94 412.98,-137.89"/>
<polygon fill="#aaaaaa" stroke="#aaaaaa" points="416.48,-137.96 412.91,-127.99 409.48,-138.01 416.48,-137.96"/>
</g>
<!-- 1&#45;14&#45;&gt;1&#45;8 -->
<g id="edge34" class="edge">
<title>1&#45;14:e1&#45;&gt;1&#45;8</title>
<path fill="none" stroke="#aaaaaa" d="M457.38,-380.25C457.38,-380.25 442.2,-382.45 425.26,-384.9"/>
<polygon fill="#aaaaaa" stroke="#aaaaaa" points="424.92,-381.42 415.52,-386.32 425.92,-388.35 424.92,-381.42"/>
</g>
<!-- 1&#45;14&#45;&gt;1&#45;15 -->
<g id="edge35" class="edge">
<title>1&#45;14:e2&#45;&gt;1&#45;15</title>
<path fill="none" stroke="#aaaaaa" d="M480.44,-368C480.44,-368 480.13,-308.91 479.92,-270.25"/>
<polygon fill="#aaaaaa" stroke="#aaaaaa" points="483.42,-270.25 479.87,-260.27 476.42,-270.29 483.42,-270.25"/>
</g>
<!-- right_anchor -->
<!-- 1&#45;14&#45;&gt;right_anchor -->
<!-- 1&#45;15&#45;&gt;boss_1_c -->
<g id="edge36" class="edge">
<title>1&#45;15:e1&#45;&gt;boss_1_c</title>
<path fill="none" stroke="#aaaaaa" d="M479.75,-213C479.75,-213 451.63,-167.67 431.83,-135.75"/>
<polygon fill="#aaaaaa" stroke="#aaaaaa" points="435.03,-134.28 426.78,-127.62 429.08,-137.97 435.03,-134.28"/>
</g>
<!-- ra_2 -->
<!-- 1&#45;15&#45;&gt;ra_2 -->
<!-- 2&#45;1 -->
<g id="node20" class="node">
<title>2&#45;1</title>
<text xml:space="preserve" text-anchor="middle" x="66.75" y="-3.2" font-family="Times New Roman,serif" font-size="14.00" fill="white">2&#45;1</text>
</g>
<!-- boss_1_a&#45;&gt;2&#45;1 -->
<g id="edge37" class="edge">
<title>boss_1_a:e1&#45;&gt;2&#45;1</title>
<path fill="none" stroke="#aaaaaa" d="M154.25,-92.75C154.25,-92.75 107.55,-48.18 82.38,-24.17"/>
<polygon fill="#aaaaaa" stroke="#aaaaaa" points="84.96,-21.79 75.31,-17.41 80.12,-26.85 84.96,-21.79"/>
</g>
<!-- 2&#45;5 -->
<g id="node21" class="node">
<title>2&#45;5</title>
<text xml:space="preserve" text-anchor="middle" x="188.75" y="-3.2" font-family="Times New Roman,serif" font-size="14.00" fill="white">2&#45;5</text>
</g>
<!-- boss_1_a&#45;&gt;2&#45;5 -->
<g id="edge38" class="edge">
<title>boss_1_a:e2&#45;&gt;2&#45;5</title>
<path fill="none" stroke="#aaaaaa" d="M189,-81.5C189,-81.5 188.89,-49.11 188.81,-27.71"/>
<polygon fill="#aaaaaa" stroke="#aaaaaa" points="192.31,-27.94 188.78,-17.96 185.31,-27.97 192.31,-27.94"/>
</g>
<!-- 2&#45;9 -->
<g id="node22" class="node">
<title>2&#45;9</title>
<text xml:space="preserve" text-anchor="middle" x="313.75" y="-3.2" font-family="Times New Roman,serif" font-size="14.00" fill="white">2&#45;9</text>
</g>
<!-- boss_1_b&#45;&gt;2&#45;9 -->
<g id="edge39" class="edge">
<title>boss_1_b:e1&#45;&gt;2&#45;9</title>
<path fill="none" stroke="#aaaaaa" d="M313.5,-81.5C313.5,-81.5 313.61,-49.11 313.69,-27.71"/>
<polygon fill="#aaaaaa" stroke="#aaaaaa" points="317.19,-27.97 313.72,-17.96 310.19,-27.94 317.19,-27.97"/>
</g>
<!-- 2&#45;12 -->
<g id="node23" class="node">
<title>2&#45;12</title>
<text xml:space="preserve" text-anchor="middle" x="394.75" y="-3.2" font-family="Times New Roman,serif" font-size="14.00" fill="white">2&#45;12</text>
</g>
<!-- boss_1_b&#45;&gt;2&#45;12 -->
<g id="edge40" class="edge">
<title>boss_1_b:e2&#45;&gt;2&#45;12</title>
<path fill="none" stroke="#aaaaaa" d="M336,-81.5C336,-81.5 364.35,-46.63 381.66,-25.34"/>
<polygon fill="#aaaaaa" stroke="#aaaaaa" points="384.35,-27.58 387.95,-17.62 378.92,-23.17 384.35,-27.58"/>
</g>
<!-- boss_1_c&#45;&gt;2&#45;12 -->
<g id="edge41" class="edge">
<title>boss_1_c:e1&#45;&gt;2&#45;12</title>
<path fill="none" stroke="#aaaaaa" d="M412.75,-81.5C412.75,-81.5 404.61,-48.81 399.27,-27.41"/>
<polygon fill="#aaaaaa" stroke="#aaaaaa" points="402.72,-26.77 396.91,-17.91 395.93,-28.46 402.72,-26.77"/>
</g>
<!-- 2&#45;2 -->
<g id="node24" class="node">
<title>2&#45;2</title>
<text xml:space="preserve" text-anchor="middle" x="127.75" y="-3.2" font-family="Times New Roman,serif" font-size="14.00" fill="white">2&#45;2</text>
</g>
<!-- boss_1_honey&#45;&gt;2&#45;2 -->
<g id="edge42" class="edge">
<title>boss_1_honey:e1&#45;&gt;2&#45;2</title>
<path fill="none" stroke="#aaaaaa" d="M112.75,-92.75C112.75,-92.75 120.07,-52 124.48,-27.44"/>
<polygon fill="#aaaaaa" stroke="#aaaaaa" points="127.88,-28.32 126.2,-17.86 120.99,-27.08 127.88,-28.32"/>
</g>
<!-- 2&#45;1&#45;&gt;2&#45;2 -->
<!-- 2&#45;2&#45;&gt;2&#45;5 -->
<!-- left_anchor -->
<!-- left_anchor&#45;&gt;1&#45;3 -->
<!-- la_2 -->
<!-- la_2&#45;&gt;1&#45;11 -->
</g>
<text x="99%" y="99%" text-anchor="end"
      font-family="Arial, sans-serif"
      font-size="9"
      fill="#777">
Kody • CC BY-SA 4.0
</text>
</svg>
