<?xml version="1.0" encoding="UTF-8" standalone="no"?>
<!DOCTYPE svg PUBLIC "-//W3C//DTD SVG 1.1//EN"
 "http://www.w3.org/Graphics/SVG/1.1/DTD/svg11.dtd">
<!-- Generated by graphviz version 14.1.3 (20260303.0454)
 -->
<!-- Title: cluster_zone4 Pages: 1 -->
<svg width="684pt" height="532pt"
 viewBox="0.00 0.00 684.00 532.00" xmlns="http://www.w3.org/2000/svg" xmlns:xlink="http://www.w3.org/1999/xlink">
 <metadata>
Author: Kody
License: CC BY-SA 4.0
https://creativecommons.org/licenses/by-sa/4.0/
</metadata>
<g id="graph0" class="graph" transform="scale(1 1) rotate(0) translate(4 528)">
<title>cluster_zone4</title>
<polygon fill="#1e1e1e" stroke="none" points="-4,4 -4,-528 680,-528 680,4 -4,4"/>
<!-- 4&#45;1 -->
<g id="node1" class="node">
<title>4&#45;1</title>
<polygon fill="none" stroke="white" points="4.75,-357.75 4.75,-380.25 33.25,-380.25 33.25,-357.75 4.75,-357.75"/>
<text xml:space="preserve" text-anchor="start" x="10" y="-364.5" font-family="Times New Roman,serif" font-size="14.00" fill="white">4&#45;1</text>
<polygon fill="none" stroke="white" points="4.75,-335.25 4.75,-357.75 19,-357.75 19,-335.25 4.75,-335.25"/>
<text xml:space="preserve" text-anchor="start" x="7.75" y="-342" font-family="Times New Roman,serif" font-size="14.00" fill="white">○</text>
<polygon fill="none" stroke="white" points="19,-335.25 19,-357.75 33.25,-357.75 33.25,-335.25 19,-335.25"/>
<text xml:space="preserve" text-anchor="start" x="22" y="-342" font-family="Times New Roman,serif" font-size="14.00" fill="white">○</text>
</g>
<!-- 4&#45;2 -->
<g id="node2" class="node">
<title>4&#45;2</title>
<polygon fill="none" stroke="white" points="11.75,-490.25 11.75,-512.75 40.25,-512.75 40.25,-490.25 11.75,-490.25"/>
<text xml:space="preserve" text-anchor="start" x="17" y="-497" font-family="Times New Roman,serif" font-size="14.00" fill="white">4&#45;2</text>
<polygon fill="none" stroke="white" points="11.75,-467.75 11.75,-490.25 26,-490.25 26,-467.75 11.75,-467.75"/>
<text xml:space="preserve" text-anchor="start" x="14.75" y="-474.5" font-family="Times New Roman,serif" font-size="14.00" fill="white">○</text>
<polygon fill="none" stroke="white" points="26,-467.75 26,-490.25 40.25,-490.25 40.25,-467.75 26,-467.75"/>
<text xml:space="preserve" text-anchor="start" x="29" y="-474.5" font-family="Times New Roman,serif" font-size="14.00" fill="white">○</text>
</g>
<!-- 4&#45;1&#45;&gt;4&#45;2 -->
<g id="edge3" class="edge">
<title>4&#45;1:e2&#45;&gt;4&#45;2</title>
<path fill="none" stroke="#aaaaaa" d="M34.25,-346.5C34.25,-346.5 33.25,-380.25 33.25,-380.25 33.25,-380.25 30.3,-424.67 28.16,-456.8"/>
<polygon fill="#aaaaaa" stroke="#aaaaaa" points="24.69,-456.25 27.52,-466.46 31.67,-456.72 24.69,-456.25"/>
</g>
<!-- 4&#45;8 -->
<g id="node8" class="node">
<title>4&#45;8</title>
<polygon fill="none" stroke="white" points="0,-225.25 0,-247.75 24,-247.75 24,-225.25 0,-225.25"/>
<text xml:space="preserve" text-anchor="start" x="3" y="-232" font-family="Times New Roman,serif" font-size="14.00" fill="white">4&#45;8</text>
<polygon fill="none" stroke="white" points="0,-202.75 0,-225.25 24,-225.25 24,-202.75 0,-202.75"/>
<text xml:space="preserve" text-anchor="start" x="7.88" y="-209.5" font-family="Times New Roman,serif" font-size="14.00" fill="white">○</text>
</g>
<!-- 4&#45;1&#45;&gt;4&#45;8 -->
<g id="edge2" class="edge">
<title>4&#45;1:e1&#45;&gt;4&#45;8</title>
<path fill="none" stroke="#aaaaaa" d="M11.88,-334.25C11.88,-334.25 11.93,-290.86 11.96,-259.08"/>
<polygon fill="#aaaaaa" stroke="#aaaaaa" points="15.46,-259.1 11.97,-249.1 8.46,-259.1 15.46,-259.1"/>
</g>
<!-- 4&#45;2&#45;&gt;4&#45;1 -->
<!-- 4&#45;2&#45;&gt;4&#45;1 -->
<g id="edge4" class="edge">
<title>4&#45;2:e1&#45;&gt;4&#45;1</title>
<path fill="none" stroke="#aaaaaa" d="M18.88,-466.75C18.88,-466.75 18.93,-423.36 18.96,-391.58"/>
<polygon fill="#aaaaaa" stroke="#aaaaaa" points="22.46,-391.6 18.97,-381.6 15.46,-391.6 22.46,-391.6"/>
</g>
<!-- 4&#45;9 -->
<g id="node9" class="node">
<title>4&#45;9</title>
<polygon fill="none" stroke="white" points="76,-357.75 76,-380.25 100,-380.25 100,-357.75 76,-357.75"/>
<text xml:space="preserve" text-anchor="start" x="79" y="-364.5" font-family="Times New Roman,serif" font-size="14.00" fill="white">4&#45;9</text>
<polygon fill="none" stroke="white" points="76,-335.25 76,-357.75 100,-357.75 100,-335.25 76,-335.25"/>
<text xml:space="preserve" text-anchor="start" x="83.88" y="-342" font-family="Times New Roman,serif" font-size="14.00" fill="white">○</text>
</g>
<!-- 4&#45;2&#45;&gt;4&#45;9 -->
<g id="edge5" class="edge">
<title>4&#45;2:e2&#45;&gt;4&#45;9</title>
<path fill="none" stroke="#aaaaaa" d="M33.12,-466.75C33.12,-466.75 55.76,-422.2 71.95,-390.33"/>
<polygon fill="#aaaaaa" stroke="#aaaaaa" points="75.06,-391.94 76.47,-381.44 68.82,-388.77 75.06,-391.94"/>
</g>
<!-- 4&#45;3 -->
<g id="node3" class="node">
<title>4&#45;3</title>
<polygon fill="none" stroke="white" points="143.62,-501.5 143.62,-524 186.38,-524 186.38,-501.5 143.62,-501.5"/>
<text xml:space="preserve" text-anchor="start" x="156" y="-508.25" font-family="Times New Roman,serif" font-size="14.00" fill="white">4&#45;3</text>
<polygon fill="none" stroke="white" points="143.62,-479 143.62,-501.5 157.88,-501.5 157.88,-479 143.62,-479"/>
<text xml:space="preserve" text-anchor="start" x="146.62" y="-485.75" font-family="Times New Roman,serif" font-size="14.00" fill="white">○</text>
<polygon fill="none" stroke="white" points="157.88,-479 157.88,-501.5 172.12,-501.5 172.12,-479 157.88,-479"/>
<polygon fill="none" stroke="white" points="172.12,-479 172.12,-501.5 186.38,-501.5 186.38,-479 172.12,-479"/>
<text xml:space="preserve" text-anchor="start" x="175.12" y="-485.75" font-family="Times New Roman,serif" font-size="14.00" fill="white">○</text>
<polygon fill="none" stroke="white" points="143.62,-456.5 143.62,-479 157.88,-479 157.88,-456.5 143.62,-456.5"/>
<polygon fill="none" stroke="white" points="157.88,-456.5 157.88,-479 172.12,-479 172.12,-456.5 157.88,-456.5"/>
<text xml:space="preserve" text-anchor="start" x="160.88" y="-463.25" font-family="Times New Roman,serif" font-size="14.00" fill="white">○</text>
<polygon fill="none" stroke="white" points="172.12,-456.5 172.12,-479 186.38,-479 186.38,-456.5 172.12,-456.5"/>
</g>
<!-- 4&#45;3&#45;&gt;4&#45;9 -->
<g id="edge6" class="edge">
<title>4&#45;3:e1&#45;&gt;4&#45;9</title>
<path fill="none" stroke="#aaaaaa" d="M142.62,-490.25C142.62,-490.25 117.46,-429.67 101.29,-390.75"/>
<polygon fill="#aaaaaa" stroke="#aaaaaa" points="104.55,-389.46 97.48,-381.57 98.08,-392.15 104.55,-389.46"/>
</g>
<!-- 4&#45;10 -->
<g id="node10" class="node">
<title>4&#45;10</title>
<polygon fill="none" stroke="white" points="158.62,-236.5 158.62,-259 189.38,-259 189.38,-236.5 158.62,-236.5"/>
<text xml:space="preserve" text-anchor="start" x="161.62" y="-243.25" font-family="Times New Roman,serif" font-size="14.00" fill="white">4&#45;10</text>
<polygon fill="none" stroke="white" points="158.62,-214 158.62,-236.5 189.38,-236.5 189.38,-214 158.62,-214"/>
<text xml:space="preserve" text-anchor="start" x="169.88" y="-220.75" font-family="Times New Roman,serif" font-size="14.00" fill="white">○</text>
<polygon fill="none" stroke="white" points="158.62,-191.5 158.62,-214 189.38,-214 189.38,-191.5 158.62,-191.5"/>
<text xml:space="preserve" text-anchor="start" x="169.88" y="-198.25" font-family="Times New Roman,serif" font-size="14.00" fill="white">○</text>
</g>
<!-- 4&#45;3&#45;&gt;4&#45;10 -->
<g id="edge8" class="edge">
<title>4&#45;3:e3&#45;&gt;4&#45;10</title>
<path fill="none" stroke="#aaaaaa" d="M165,-456.5C165,-456.5 169.67,-337 172.28,-270.18"/>
<polygon fill="#aaaaaa" stroke="#aaaaaa" points="175.78,-270.39 172.67,-260.26 168.78,-270.12 175.78,-270.39"/>
</g>
<!-- 4&#45;11 -->
<g id="node11" class="node">
<title>4&#45;11</title>
<polygon fill="none" stroke="white" points="236.62,-236.5 236.62,-259 267.38,-259 267.38,-236.5 236.62,-236.5"/>
<text xml:space="preserve" text-anchor="start" x="239.62" y="-243.25" font-family="Times New Roman,serif" font-size="14.00" fill="white">4&#45;11</text>
<polygon fill="none" stroke="white" points="236.62,-214 236.62,-236.5 252,-236.5 252,-214 236.62,-214"/>
<text xml:space="preserve" text-anchor="start" x="240.19" y="-220.75" font-family="Times New Roman,serif" font-size="14.00" fill="white">○</text>
<polygon fill="none" stroke="white" points="252,-214 252,-236.5 267.38,-236.5 267.38,-214 252,-214"/>
<polygon fill="none" stroke="white" points="236.62,-191.5 236.62,-214 252,-214 252,-191.5 236.62,-191.5"/>
<polygon fill="none" stroke="white" points="252,-191.5 252,-214 267.38,-214 267.38,-191.5 252,-191.5"/>
<text xml:space="preserve" text-anchor="start" x="255.56" y="-198.25" font-family="Times New Roman,serif" font-size="14.00" fill="white">○</text>
</g>
<!-- 4&#45;3&#45;&gt;4&#45;11 -->
<g id="edge7" class="edge">
<title>4&#45;3:e2&#45;&gt;4&#45;11</title>
<path fill="none" stroke="#aaaaaa" d="M187.38,-490.25C187.38,-490.25 222.97,-344.83 241.33,-269.85"/>
<polygon fill="#aaaaaa" stroke="#aaaaaa" points="244.67,-270.9 243.65,-260.36 237.87,-269.24 244.67,-270.9"/>
</g>
<!-- 4&#45;4 -->
<g id="node4" class="node">
<title>4&#45;4</title>
<polygon fill="none" stroke="white" points="327,-490.25 327,-512.75 351,-512.75 351,-490.25 327,-490.25"/>
<text xml:space="preserve" text-anchor="start" x="330" y="-497" font-family="Times New Roman,serif" font-size="14.00" fill="white">4&#45;4</text>
<polygon fill="none" stroke="white" points="327,-467.75 327,-490.25 351,-490.25 351,-467.75 327,-467.75"/>
<text xml:space="preserve" text-anchor="start" x="334.88" y="-474.5" font-family="Times New Roman,serif" font-size="14.00" fill="white">○</text>
</g>
<!-- 4&#45;4&#45;&gt;4&#45;11 -->
<g id="edge9" class="edge">
<title>4&#45;4:e1&#45;&gt;4&#45;11</title>
<path fill="none" stroke="#aaaaaa" d="M339,-466.75C339,-466.75 292.7,-338.75 267.65,-269.51"/>
<polygon fill="#aaaaaa" stroke="#aaaaaa" points="271.03,-268.57 264.34,-260.36 264.45,-270.95 271.03,-268.57"/>
</g>
<!-- 4&#45;5 -->
<g id="node5" class="node">
<title>4&#45;5</title>
<polygon fill="none" stroke="white" points="441.75,-490.25 441.75,-512.75 470.25,-512.75 470.25,-490.25 441.75,-490.25"/>
<text xml:space="preserve" text-anchor="start" x="447" y="-497" font-family="Times New Roman,serif" font-size="14.00" fill="white">4&#45;5</text>
<polygon fill="none" stroke="white" points="441.75,-467.75 441.75,-490.25 456,-490.25 456,-467.75 441.75,-467.75"/>
<text xml:space="preserve" text-anchor="start" x="444.75" y="-474.5" font-family="Times New Roman,serif" font-size="14.00" fill="white">○</text>
<polygon fill="none" stroke="white" points="456,-467.75 456,-490.25 470.25,-490.25 470.25,-467.75 456,-467.75"/>
<text xml:space="preserve" text-anchor="start" x="459" y="-474.5" font-family="Times New Roman,serif" font-size="14.00" fill="white">○</text>
</g>
<!-- 4&#45;12 -->
<g id="node12" class="node">
<title>4&#45;12</title>
<polygon fill="none" stroke="white" points="403.62,-357.75 403.62,-380.25 434.38,-380.25 434.38,-357.75 403.62,-357.75"/>
<text xml:space="preserve" text-anchor="start" x="406.62" y="-364.5" font-family="Times New Roman,serif" font-size="14.00" fill="white">4&#45;12</text>
<polygon fill="none" stroke="white" points="403.62,-335.25 403.62,-357.75 434.38,-357.75 434.38,-335.25 403.62,-335.25"/>
<text xml:space="preserve" text-anchor="start" x="414.88" y="-342" font-family="Times New Roman,serif" font-size="14.00" fill="white">○</text>
</g>
<!-- 4&#45;5&#45;&gt;4&#45;12 -->
<g id="edge10" class="edge">
<title>4&#45;5:e1&#45;&gt;4&#45;12</title>
<path fill="none" stroke="#aaaaaa" d="M448.88,-466.75C448.88,-466.75 436.77,-422.97 427.97,-391.16"/>
<polygon fill="#aaaaaa" stroke="#aaaaaa" points="431.35,-390.25 425.31,-381.55 424.6,-392.12 431.35,-390.25"/>
</g>
<!-- 4&#45;13 -->
<g id="node13" class="node">
<title>4&#45;13</title>
<polygon fill="none" stroke="white" points="477.62,-357.75 477.62,-380.25 508.38,-380.25 508.38,-357.75 477.62,-357.75"/>
<text xml:space="preserve" text-anchor="start" x="480.62" y="-364.5" font-family="Times New Roman,serif" font-size="14.00" fill="white">4&#45;13</text>
<polygon fill="none" stroke="white" points="477.62,-335.25 477.62,-357.75 493,-357.75 493,-335.25 477.62,-335.25"/>
<text xml:space="preserve" text-anchor="start" x="481.19" y="-342" font-family="Times New Roman,serif" font-size="14.00" fill="white">○</text>
<polygon fill="none" stroke="white" points="493,-335.25 493,-357.75 508.38,-357.75 508.38,-335.25 493,-335.25"/>
<text xml:space="preserve" text-anchor="start" x="496.56" y="-342" font-family="Times New Roman,serif" font-size="14.00" fill="white">○</text>
</g>
<!-- 4&#45;5&#45;&gt;4&#45;13 -->
<g id="edge11" class="edge">
<title>4&#45;5:e2&#45;&gt;4&#45;13</title>
<path fill="none" stroke="#aaaaaa" d="M463.12,-466.75C463.12,-466.75 475.23,-422.97 484.03,-391.16"/>
<polygon fill="#aaaaaa" stroke="#aaaaaa" points="487.4,-392.12 486.69,-381.55 480.65,-390.25 487.4,-392.12"/>
</g>
<!-- 4&#45;6 -->
<g id="node6" class="node">
<title>4&#45;6</title>
<polygon fill="none" stroke="white" points="590.5,-501.5 590.5,-524 647.5,-524 647.5,-501.5 590.5,-501.5"/>
<text xml:space="preserve" text-anchor="start" x="610" y="-508.25" font-family="Times New Roman,serif" font-size="14.00" fill="white">4&#45;6</text>
<polygon fill="none" stroke="white" points="590.5,-479 590.5,-501.5 604.75,-501.5 604.75,-479 590.5,-479"/>
<text xml:space="preserve" text-anchor="start" x="593.5" y="-485.75" font-family="Times New Roman,serif" font-size="14.00" fill="white">○</text>
<polygon fill="none" stroke="white" points="604.75,-479 604.75,-501.5 619,-501.5 619,-479 604.75,-479"/>
<polygon fill="none" stroke="white" points="619,-479 619,-501.5 633.25,-501.5 633.25,-479 619,-479"/>
<polygon fill="none" stroke="white" points="633.25,-479 633.25,-501.5 647.5,-501.5 647.5,-479 633.25,-479"/>
<text xml:space="preserve" text-anchor="start" x="636.25" y="-485.75" font-family="Times New Roman,serif" font-size="14.00" fill="white">○</text>
<polygon fill="none" stroke="white" points="590.5,-456.5 590.5,-479 604.75,-479 604.75,-456.5 590.5,-456.5"/>
<polygon fill="none" stroke="white" points="604.75,-456.5 604.75,-479 619,-479 619,-456.5 604.75,-456.5"/>
<text xml:space="preserve" text-anchor="start" x="607.75" y="-463.25" font-family="Times New Roman,serif" font-size="14.00" fill="white">○</text>
<polygon fill="none" stroke="white" points="619,-456.5 619,-479 633.25,-479 633.25,-456.5 619,-456.5"/>
<text xml:space="preserve" text-anchor="start" x="622" y="-463.25" font-family="Times New Roman,serif" font-size="14.00" fill="white">○</text>
<polygon fill="none" stroke="white" points="633.25,-456.5 633.25,-479 647.5,-479 647.5,-456.5 633.25,-456.5"/>
</g>
<!-- 4&#45;7 -->
<g id="node7" class="node">
<title>4&#45;7</title>
<polygon fill="none" stroke="white" points="625.75,-357.75 625.75,-380.25 654.25,-380.25 654.25,-357.75 625.75,-357.75"/>
<text xml:space="preserve" text-anchor="start" x="631" y="-364.5" font-family="Times New Roman,serif" font-size="14.00" fill="white">4&#45;7</text>
<polygon fill="none" stroke="white" points="625.75,-335.25 625.75,-357.75 640,-357.75 640,-335.25 625.75,-335.25"/>
<text xml:space="preserve" text-anchor="start" x="628.75" y="-342" font-family="Times New Roman,serif" font-size="14.00" fill="white">○</text>
<polygon fill="none" stroke="white" points="640,-335.25 640,-357.75 654.25,-357.75 654.25,-335.25 640,-335.25"/>
<text xml:space="preserve" text-anchor="start" x="643" y="-342" font-family="Times New Roman,serif" font-size="14.00" fill="white">○</text>
</g>
<!-- 4&#45;6&#45;&gt;4&#45;7 -->
<g id="edge13" class="edge">
<title>4&#45;6:e2&#45;&gt;4&#45;7</title>
<path fill="none" stroke="#aaaaaa" d="M648.5,-490.25C648.5,-490.25 647.5,-456.5 647.5,-456.5 647.5,-456.5 644.67,-419.58 642.48,-391.12"/>
<polygon fill="#aaaaaa" stroke="#aaaaaa" points="646,-391.17 641.74,-381.47 639.02,-391.71 646,-391.17"/>
</g>
<!-- 4&#45;6&#45;&gt;4&#45;13 -->
<g id="edge12" class="edge">
<title>4&#45;6:e1&#45;&gt;4&#45;13</title>
<path fill="none" stroke="#aaaaaa" d="M589.5,-490.25C589.5,-490.25 543.22,-427.18 514.76,-388.4"/>
<polygon fill="#aaaaaa" stroke="#aaaaaa" points="517.92,-386.8 509.19,-380.81 512.28,-390.94 517.92,-386.8"/>
</g>
<!-- 4&#45;14 -->
<g id="node14" class="node">
<title>4&#45;14</title>
<polygon fill="none" stroke="white" points="551.62,-369 551.62,-391.5 582.38,-391.5 582.38,-369 551.62,-369"/>
<text xml:space="preserve" text-anchor="start" x="554.62" y="-375.75" font-family="Times New Roman,serif" font-size="14.00" fill="white">4&#45;14</text>
<polygon fill="none" stroke="white" points="551.62,-346.5 551.62,-369 567,-369 567,-346.5 551.62,-346.5"/>
<text xml:space="preserve" text-anchor="start" x="555.19" y="-353.25" font-family="Times New Roman,serif" font-size="14.00" fill="white">○</text>
<polygon fill="none" stroke="white" points="567,-346.5 567,-369 582.38,-369 582.38,-346.5 567,-346.5"/>
<polygon fill="none" stroke="white" points="551.62,-324 551.62,-346.5 567,-346.5 567,-324 551.62,-324"/>
<polygon fill="none" stroke="white" points="567,-324 567,-346.5 582.38,-346.5 582.38,-324 567,-324"/>
<text xml:space="preserve" text-anchor="start" x="570.56" y="-330.75" font-family="Times New Roman,serif" font-size="14.00" fill="white">○</text>
</g>
<!-- 4&#45;6&#45;&gt;4&#45;14 -->
<g id="edge14" class="edge">
<title>4&#45;6:e3&#45;&gt;4&#45;14</title>
<path fill="none" stroke="#aaaaaa" d="M611.88,-456.5C611.88,-456.5 598.72,-427.85 586.66,-401.57"/>
<polygon fill="#aaaaaa" stroke="#aaaaaa" points="589.93,-400.3 582.57,-392.67 583.57,-403.22 589.93,-400.3"/>
</g>
<!-- 4&#45;15 -->
<g id="node15" class="node">
<title>4&#45;15</title>
<polygon fill="none" stroke="white" points="638.62,-225.25 638.62,-247.75 669.38,-247.75 669.38,-225.25 638.62,-225.25"/>
<text xml:space="preserve" text-anchor="start" x="641.62" y="-232" font-family="Times New Roman,serif" font-size="14.00" fill="white">4&#45;15</text>
<polygon fill="none" stroke="white" points="638.62,-202.75 638.62,-225.25 669.38,-225.25 669.38,-202.75 638.62,-202.75"/>
<text xml:space="preserve" text-anchor="start" x="649.88" y="-209.5" font-family="Times New Roman,serif" font-size="14.00" fill="white">○</text>
</g>
<!-- 4&#45;6&#45;&gt;4&#45;15 -->
<g id="edge15" class="edge">
<title>4&#45;6:e4&#45;&gt;4&#45;15</title>
<path fill="none" stroke="#aaaaaa" d="M626.12,-456.5C626.12,-456.5 676,-391.5 676,-391.5 676,-391.5 676,-324 676,-324 676,-324 667.69,-287.08 661.29,-258.62"/>
<polygon fill="#aaaaaa" stroke="#aaaaaa" points="664.72,-257.92 659.11,-248.94 657.89,-259.46 664.72,-257.92"/>
</g>
<!-- 4&#45;7&#45;&gt;4&#45;6 -->
<g id="edge16" class="edge">
<title>4&#45;7:e1&#45;&gt;4&#45;6</title>
<path fill="none" stroke="#aaaaaa" d="M624.75,-346.5C624.75,-346.5 622.47,-403.19 620.78,-445.12"/>
<polygon fill="#aaaaaa" stroke="#aaaaaa" points="617.29,-444.86 620.38,-454.99 624.28,-445.14 617.29,-444.86"/>
</g>
<!-- 4&#45;7&#45;&gt;4&#45;15 -->
<g id="edge17" class="edge">
<title>4&#45;7:e2&#45;&gt;4&#45;15</title>
<path fill="none" stroke="#aaaaaa" d="M647.12,-334.25C647.12,-334.25 649.91,-290.47 651.94,-258.66"/>
<polygon fill="#aaaaaa" stroke="#aaaaaa" points="655.4,-259.3 652.55,-249.1 648.42,-258.86 655.4,-259.3"/>
</g>
<!-- boss_4_mask -->
<g id="node16" class="node">
<title>boss_4_mask</title>
<polygon fill="none" stroke="white" points="55.62,-104 55.62,-126.5 122.38,-126.5 122.38,-104 55.62,-104"/>
<text xml:space="preserve" text-anchor="start" x="58.62" y="-110.75" font-family="Times New Roman,serif" font-size="14.00" fill="white">Boss Mask</text>
<polygon fill="none" stroke="white" points="55.62,-81.5 55.62,-104 77.88,-104 77.88,-81.5 55.62,-81.5"/>
<text xml:space="preserve" text-anchor="start" x="62.62" y="-88.25" font-family="Times New Roman,serif" font-size="14.00" fill="white">○</text>
<polygon fill="none" stroke="white" points="77.88,-81.5 77.88,-104 100.12,-104 100.12,-81.5 77.88,-81.5"/>
<text xml:space="preserve" text-anchor="start" x="84.88" y="-88.25" font-family="Times New Roman,serif" font-size="14.00" fill="white">○</text>
<polygon fill="none" stroke="white" points="100.12,-81.5 100.12,-104 122.38,-104 122.38,-81.5 100.12,-81.5"/>
<text xml:space="preserve" text-anchor="start" x="107.12" y="-88.25" font-family="Times New Roman,serif" font-size="14.00" fill="white">○</text>
</g>
<!-- 4&#45;8&#45;&gt;boss_4_mask -->
<g id="edge18" class="edge">
<title>4&#45;8:e1&#45;&gt;boss_4_mask</title>
<path fill="none" stroke="#aaaaaa" d="M12,-201.75C12,-201.75 42.31,-163.66 64.9,-135.28"/>
<polygon fill="#aaaaaa" stroke="#aaaaaa" points="67.48,-137.66 70.97,-127.66 62,-133.3 67.48,-137.66"/>
</g>
<!-- 4&#45;9&#45;&gt;boss_4_mask -->
<g id="edge19" class="edge">
<title>4&#45;9:e1&#45;&gt;boss_4_mask</title>
<path fill="none" stroke="#aaaaaa" d="M88,-334.25C88,-334.25 88.58,-200.68 88.86,-137.45"/>
<polygon fill="#aaaaaa" stroke="#aaaaaa" points="92.36,-137.69 88.9,-127.67 85.36,-137.65 92.36,-137.69"/>
</g>
<!-- 4&#45;10&#45;&gt;4&#45;11 -->
<g id="edge21" class="edge">
<title>4&#45;10:e2&#45;&gt;4&#45;11</title>
<path fill="none" stroke="#aaaaaa" d="M189.38,-202.75C189.38,-190.39 209.73,-192.57 227.04,-200.74"/>
<polygon fill="#aaaaaa" stroke="#aaaaaa" points="224.96,-203.58 235.39,-205.43 228.39,-197.48 224.96,-203.58"/>
</g>
<!-- 4&#45;10&#45;&gt;boss_4_mask -->
<g id="edge20" class="edge">
<title>4&#45;10:e1&#45;&gt;boss_4_mask</title>
<path fill="none" stroke="#aaaaaa" d="M157.62,-225.25C157.62,-225.25 127.29,-172.1 106.96,-136.47"/>
<polygon fill="#aaaaaa" stroke="#aaaaaa" points="110.02,-134.76 102.02,-127.81 103.94,-138.23 110.02,-134.76"/>
</g>
<!-- 4&#45;11&#45;&gt;4&#45;10 -->
<g id="edge22" class="edge">
<title>4&#45;11:e1&#45;&gt;4&#45;10</title>
<path fill="none" stroke="#aaaaaa" d="M236.62,-225.25C236.62,-225.25 217.4,-225.25 200.42,-225.25"/>
<polygon fill="#aaaaaa" stroke="#aaaaaa" points="200.81,-221.75 190.81,-225.25 200.81,-228.75 200.81,-221.75"/>
</g>
<!-- boss_4_baron -->
<g id="node17" class="node">
<title>boss_4_baron</title>
<polygon fill="none" stroke="white" points="364.5,-104 364.5,-126.5 433.5,-126.5 433.5,-104 364.5,-104"/>
<text xml:space="preserve" text-anchor="start" x="367.5" y="-110.75" font-family="Times New Roman,serif" font-size="14.00" fill="white">Boss Baron</text>
<polygon fill="none" stroke="white" points="364.5,-81.5 364.5,-104 387.5,-104 387.5,-81.5 364.5,-81.5"/>
<text xml:space="preserve" text-anchor="start" x="371.88" y="-88.25" font-family="Times New Roman,serif" font-size="14.00" fill="white">○</text>
<polygon fill="none" stroke="white" points="387.5,-81.5 387.5,-104 410.5,-104 410.5,-81.5 387.5,-81.5"/>
<text xml:space="preserve" text-anchor="start" x="394.88" y="-88.25" font-family="Times New Roman,serif" font-size="14.00" fill="white">○</text>
<polygon fill="none" stroke="white" points="410.5,-81.5 410.5,-104 433.5,-104 433.5,-81.5 410.5,-81.5"/>
<text xml:space="preserve" text-anchor="start" x="417.88" y="-88.25" font-family="Times New Roman,serif" font-size="14.00" fill="white">○</text>
</g>
<!-- 4&#45;11&#45;&gt;boss_4_baron -->
<g id="edge23" class="edge">
<title>4&#45;11:e2&#45;&gt;boss_4_baron</title>
<path fill="none" stroke="#aaaaaa" d="M259.69,-191.5C259.69,-191.5 313.99,-157.79 354.78,-132.45"/>
<polygon fill="#aaaaaa" stroke="#aaaaaa" points="356.63,-135.43 363.28,-127.18 352.94,-129.48 356.63,-135.43"/>
</g>
<!-- 4&#45;12&#45;&gt;boss_4_baron -->
<g id="edge24" class="edge">
<title>4&#45;12:e1&#45;&gt;boss_4_baron</title>
<path fill="none" stroke="#aaaaaa" d="M419,-334.25C419,-334.25 407.35,-200.68 401.83,-137.45"/>
<polygon fill="#aaaaaa" stroke="#aaaaaa" points="405.33,-137.32 400.98,-127.66 398.36,-137.93 405.33,-137.32"/>
</g>
<!-- 4&#45;13&#45;&gt;4&#45;14 -->
<g id="edge26" class="edge">
<title>4&#45;13:e2&#45;&gt;4&#45;14</title>
<path fill="none" stroke="#aaaaaa" d="M508.38,-346.5C508.38,-334.81 525.42,-332.8 540.96,-336.86"/>
<polygon fill="#aaaaaa" stroke="#aaaaaa" points="539.74,-340.14 550.34,-340.31 542.16,-333.57 539.74,-340.14"/>
</g>
<!-- 4&#45;13&#45;&gt;boss_4_baron -->
<g id="edge25" class="edge">
<title>4&#45;13:e1&#45;&gt;boss_4_baron</title>
<path fill="none" stroke="#aaaaaa" d="M485.31,-334.25C485.31,-334.25 441,-191.5 441,-191.5 441,-191.5 426.31,-161.26 414.31,-136.53"/>
<polygon fill="#aaaaaa" stroke="#aaaaaa" points="417.56,-135.21 410.04,-127.74 411.26,-138.27 417.56,-135.21"/>
</g>
<!-- 4&#45;14&#45;&gt;4&#45;13 -->
<g id="edge27" class="edge">
<title>4&#45;14:e1&#45;&gt;4&#45;13</title>
<path fill="none" stroke="#aaaaaa" d="M551.62,-357.75C551.62,-357.75 534.91,-357.75 519.49,-357.75"/>
<polygon fill="#aaaaaa" stroke="#aaaaaa" points="519.76,-354.25 509.76,-357.75 519.76,-361.25 519.76,-354.25"/>
</g>
<!-- boss_4_plunder -->
<g id="node18" class="node">
<title>boss_4_plunder</title>
<polygon fill="none" stroke="white" points="575,-104 575,-126.5 653,-126.5 653,-104 575,-104"/>
<text xml:space="preserve" text-anchor="start" x="578" y="-110.75" font-family="Times New Roman,serif" font-size="14.00" fill="white">Boss Plunder</text>
<polygon fill="none" stroke="white" points="575,-81.5 575,-104 614,-104 614,-81.5 575,-81.5"/>
<text xml:space="preserve" text-anchor="start" x="590.38" y="-88.25" font-family="Times New Roman,serif" font-size="14.00" fill="white">○</text>
<polygon fill="none" stroke="white" points="614,-81.5 614,-104 653,-104 653,-81.5 614,-81.5"/>
<text xml:space="preserve" text-anchor="start" x="629.38" y="-88.25" font-family="Times New Roman,serif" font-size="14.00" fill="white">○</text>
</g>
<!-- 4&#45;14&#45;&gt;boss_4_plunder -->
<g id="edge28" class="edge">
<title>4&#45;14:e2&#45;&gt;boss_4_plunder</title>
<path fill="none" stroke="#aaaaaa" d="M574.69,-324C574.69,-324 597.17,-198.76 608.13,-137.7"/>
<polygon fill="#aaaaaa" stroke="#aaaaaa" points="611.57,-138.35 609.89,-127.89 604.68,-137.11 611.57,-138.35"/>
</g>
<!-- 4&#45;15&#45;&gt;boss_4_plunder -->
<g id="edge29" class="edge">
<title>4&#45;15:e1&#45;&gt;boss_4_plunder</title>
<path fill="none" stroke="#aaaaaa" d="M654,-201.75C654,-201.75 638.79,-164.97 627.13,-136.77"/>
<polygon fill="#aaaaaa" stroke="#aaaaaa" points="630.51,-135.77 623.46,-127.87 624.04,-138.45 630.51,-135.77"/>
</g>
<!-- 5&#45;1 -->
<g id="node19" class="node">
<title>5&#45;1</title>
<text xml:space="preserve" text-anchor="middle" x="28" y="-3.2" font-family="Times New Roman,serif" font-size="14.00" fill="white">5&#45;1</text>
</g>
<!-- boss_4_mask&#45;&gt;5&#45;1 -->
<g id="edge30" class="edge">
<title>boss_4_mask:e1&#45;&gt;5&#45;1</title>
<path fill="none" stroke="#aaaaaa" d="M66.75,-81.5C66.75,-81.5 48.72,-47.89 37.26,-26.51"/>
<polygon fill="#aaaaaa" stroke="#aaaaaa" points="40.38,-24.93 32.57,-17.78 34.21,-28.24 40.38,-24.93"/>
</g>
<!-- 5&#45;2 -->
<g id="node20" class="node">
<title>5&#45;2</title>
<text xml:space="preserve" text-anchor="middle" x="89" y="-3.2" font-family="Times New Roman,serif" font-size="14.00" fill="white">5&#45;2</text>
</g>
<!-- boss_4_mask&#45;&gt;5&#45;2 -->
<g id="edge31" class="edge">
<title>boss_4_mask:e2&#45;&gt;5&#45;2</title>
<path fill="none" stroke="#aaaaaa" d="M89,-81.5C89,-81.5 89,-49.11 89,-27.71"/>
<polygon fill="#aaaaaa" stroke="#aaaaaa" points="92.5,-27.96 89,-17.96 85.5,-27.96 92.5,-27.96"/>
</g>
<!-- 5&#45;3 -->
<g id="node21" class="node">
<title>5&#45;3</title>
<text xml:space="preserve" text-anchor="middle" x="150" y="-3.2" font-family="Times New Roman,serif" font-size="14.00" fill="white">5&#45;3</text>
</g>
<!-- boss_4_mask&#45;&gt;5&#45;3 -->
<g id="edge32" class="edge">
<title>boss_4_mask:e3&#45;&gt;5&#45;3</title>
<path fill="none" stroke="#aaaaaa" d="M111.25,-81.5C111.25,-81.5 129.28,-47.89 140.74,-26.51"/>
<polygon fill="#aaaaaa" stroke="#aaaaaa" points="143.79,-28.24 145.43,-17.78 137.62,-24.93 143.79,-28.24"/>
</g>
<!-- 5&#45;4 -->
<g id="node22" class="node">
<title>5&#45;4</title>
<text xml:space="preserve" text-anchor="middle" x="338" y="-3.2" font-family="Times New Roman,serif" font-size="14.00" fill="white">5&#45;4</text>
</g>
<!-- boss_4_baron&#45;&gt;5&#45;4 -->
<g id="edge33" class="edge">
<title>boss_4_baron:e1&#45;&gt;5&#45;4</title>
<path fill="none" stroke="#aaaaaa" d="M376,-81.5C376,-81.5 358.32,-47.89 347.08,-26.51"/>
<polygon fill="#aaaaaa" stroke="#aaaaaa" points="350.24,-25 342.49,-17.78 344.04,-28.26 350.24,-25"/>
</g>
<!-- 5&#45;5 -->
<g id="node23" class="node">
<title>5&#45;5</title>
<text xml:space="preserve" text-anchor="middle" x="399" y="-3.2" font-family="Times New Roman,serif" font-size="14.00" fill="white">5&#45;5</text>
</g>
<!-- boss_4_baron&#45;&gt;5&#45;5 -->
<g id="edge34" class="edge">
<title>boss_4_baron:e2&#45;&gt;5&#45;5</title>
<path fill="none" stroke="#aaaaaa" d="M399,-81.5C399,-81.5 399,-49.11 399,-27.71"/>
<polygon fill="#aaaaaa" stroke="#aaaaaa" points="402.5,-27.96 399,-17.96 395.5,-27.96 402.5,-27.96"/>
</g>
<!-- 5&#45;6 -->
<g id="node24" class="node">
<title>5&#45;6</title>
<text xml:space="preserve" text-anchor="middle" x="460" y="-3.2" font-family="Times New Roman,serif" font-size="14.00" fill="white">5&#45;6</text>
</g>
<!-- boss_4_baron&#45;&gt;5&#45;6 -->
<g id="edge35" class="edge">
<title>boss_4_baron:e3&#45;&gt;5&#45;6</title>
<path fill="none" stroke="#aaaaaa" d="M422,-81.5C422,-81.5 439.68,-47.89 450.92,-26.51"/>
<polygon fill="#aaaaaa" stroke="#aaaaaa" points="453.96,-28.26 455.51,-17.78 447.76,-25 453.96,-28.26"/>
</g>
<!-- 5&#45;7 -->
<g id="node25" class="node">
<title>5&#45;7</title>
<text xml:space="preserve" text-anchor="middle" x="584" y="-3.2" font-family="Times New Roman,serif" font-size="14.00" fill="white">5&#45;7</text>
</g>
<!-- boss_4_plunder&#45;&gt;5&#45;7 -->
<g id="edge36" class="edge">
<title>boss_4_plunder:e1&#45;&gt;5&#45;7</title>
<path fill="none" stroke="#aaaaaa" d="M594.5,-81.5C594.5,-81.5 589.79,-49.11 586.68,-27.71"/>
<polygon fill="#aaaaaa" stroke="#aaaaaa" points="590.16,-27.33 585.26,-17.94 583.24,-28.34 590.16,-27.33"/>
</g>
<!-- 5&#45;8 -->
<g id="node26" class="node">
<title>5&#45;8</title>
<text xml:space="preserve" text-anchor="middle" x="645" y="-3.2" font-family="Times New Roman,serif" font-size="14.00" fill="white">5&#45;8</text>
</g>
<!-- boss_4_plunder&#45;&gt;5&#45;8 -->
<g id="edge37" class="edge">
<title>boss_4_plunder:e2&#45;&gt;5&#45;8</title>
<path fill="none" stroke="#aaaaaa" d="M633.5,-81.5C633.5,-81.5 638.66,-49.11 642.06,-27.71"/>
<polygon fill="#aaaaaa" stroke="#aaaaaa" points="645.5,-28.36 643.62,-17.94 638.59,-27.26 645.5,-28.36"/>
</g>
</g>
<text x="99%" y="99%" text-anchor="end"
      font-family="Arial, sans-serif"
      font-size="9"
      fill="#777">
Kody • CC BY-SA 4.0
</text>
</svg>
